<?xml version='1.0' encoding='utf-8'?>
<!DOCTYPE svg PUBLIC '-//W3C//DTD SVG 1.1//EN' 'http://www.w3.org/Graphics/SVG/1.1/DTD/svg11.dtd'>
<!-- Generator: Adobe Illustrator 25.4.1, SVG Export Plug-In . SVG Version: 6.00 Build 0)  -->
<svg version="1.1" x="0px" height="50px" id="Capa_1" xmlns:xlink="http://www.w3.org/1999/xlink" width="130px" xml:space="preserve" xmlns:x="http://ns.adobe.com/Extensibility/1.0/" xmlns:graph="http://ns.adobe.com/Graphs/1.0/" style="enable-background:new 0 0 130 50;" xmlns:i="http://ns.adobe.com/AdobeIllustrator/10.0/" viewBox="0 0 130 50" y="0px" xmlns="http://www.w3.org/2000/svg">
 <style type="text/css">&#xd;
	.st0{fill:#333333;}&#xd;
	.st1{fill:#828282;}&#xd;
	.st2{fill:#FEFEFE;}&#xd;
	.st3{enable-background:new    ;}&#xd;
	.st4{fill:#FFFFFF;}&#xd;
</style>
 <metadata>
  <sfw xmlns="http://ns.adobe.com/SaveForWeb/1.0/">
   <slices/>
   <sliceSourceBounds x="0" bottomLeftOrigin="true" height="50" width="129.9" y="0"/>
  </sfw>
 </metadata>
 <g id="Capa_1_00000138541779206760670920000006500182483304967340_">
  <g id="Fondos"/>
  <g id="Para_Botones_Botones_xA0_Imagen_00000085965584236556756730000001563763528198841479_"/>
  <g>
   <path d="M121.5,50H8.5C3.8,50,0,46.2,0,41.5v-33C0,3.8,3.8,0,8.5,0h112.9c4.7,0,8.5,3.8,8.5,8.5v33C130,46.2,126.2,50,121.5,50z"/>
   <path d="M29,34.5c1.7-4.3,3.6-8.5,5-12.9c0.1,0.1,0.1,0.2,0.1,0.3c-0.7,2.6-1.7,5.1-2.6,7.7c-0.6,1.7-1.3,3.3-2.2,4.8&#xd;&#xa;&#x9;&#x9;&#x9;C29.2,34.4,29.1,34.5,29,34.5z" class="st0"/>
   <path d="M33.9,14c-1.3-2.6-3.3-4.7-6.1-5.8c0.1-0.1,0.2-0.1,0.3-0.1c2.6,1,4.8,3.1,5.8,5.8C34,13.9,34,14,33.9,14z" class="st0"/>
   <path d="M20.2,8.2c-0.2,0.4-0.6,0.4-0.9,0.5c-1.4,0.8-2.5,1.8-3.5,2.9c-0.1,0.1-0.1,0.2-0.3,0.2&#xd;&#xa;&#x9;&#x9;&#x9;C16.4,10.1,18.4,8.7,20.2,8.2z" class="st1"/>
   <path d="M24.6,43.4c0.7-1.1,1.1-2.5,1.9-3.5C26.4,40.4,25.1,43.6,24.6,43.4z" class="st1"/>
   <path d="M34.7,17.2c-0.1-0.5-0.3-0.9-0.3-1.4C34.9,16.2,34.9,16.7,34.7,17.2z" class="st0"/>
   <path d="M34.4,20.1c0-0.5,0.1-0.9,0.3-1.4C34.9,19.2,34.7,19.6,34.4,20.1z" class="st0"/>
   <path d="M22.7,7.5c-0.2,0.1-0.5,0.2-0.8,0.2C22.2,7.3,22.4,7.3,22.7,7.5z" class="st0"/>
   <path d="M26.2,7.7c-0.3,0-0.5,0-0.8-0.2C25.7,7.2,25.9,7.4,26.2,7.7z" class="st0"/>
   <path d="M26.7,39.4c0-0.4,0.2-0.7,0.4-0.9C27.1,38.8,27,39.1,26.7,39.4z" class="st1"/>
   <path d="M22.6,41.9c0.3,0.1,0.3,0.5,0.4,0.8C22.7,42.5,22.7,42.2,22.6,41.9z" class="st1"/>
   <path d="M34.3,15.4c-0.1-0.2-0.2-0.4-0.2-0.6C34.5,14.9,34.5,15.1,34.3,15.4z" class="st0"/>
   <path d="M34.1,21.4c0-0.2,0-0.4,0.1-0.5C34.4,21.1,34.3,21.2,34.1,21.4z" class="st0"/>
   <path d="M27.4,8c-0.2,0-0.4,0-0.5-0.2C27.2,7.6,27.3,7.7,27.4,8z" class="st0"/>
   <path d="M23,42.7c0.2,0,0.3,0.1,0.2,0.3C23,43,22.9,42.9,23,42.7z" class="st1"/>
   <path d="M26.7,7.8c-0.1,0-0.2,0-0.2,0C26.6,7.5,26.6,7.6,26.7,7.8z" class="st0"/>
   <path d="M21.2,7.8c-0.1,0.1-0.1,0.1-0.2,0.1C21.1,7.7,21.1,7.7,21.2,7.8z" class="st0"/>
   <path d="M15.3,12.2c0,0.1,0,0.2-0.2,0.2C15.1,12.3,15.1,12.2,15.3,12.2z" class="st1"/>
   <path d="M15.5,11.8c0,0.1-0.1,0.2-0.2,0.2C15.3,11.9,15.3,11.9,15.5,11.8z" class="st1"/>
   <path d="M34.3,20.6c0-0.1,0-0.2,0.1-0.2C34.5,20.5,34.5,20.6,34.3,20.6z" class="st0"/>
   <path d="M34,14.4c-0.1-0.1-0.1-0.1-0.1-0.2C34.1,14.2,34.2,14.3,34,14.4z" class="st0"/>
   <path d="M111.4,25.2c-0.1,1.3,2.1,1.4,2,0C113.4,24,111.4,24,111.4,25.2z" class="st1"/>
   <path d="M112.4,29.4c1.3,0.1,1.2-2,0-2C111.1,27.4,111,29.5,112.4,29.4z" class="st1"/>
   <path d="M112.4,23.2c1.1,0,1.4-2.1,0-1.9C110.9,21.1,111.1,23.2,112.4,23.2z" class="st1"/>
   <path d="M29.6,10.2c-0.6,0.1-0.9-0.3-1.3-0.5C26,8.6,23.4,8.2,21,9.2c-2.9,1-5.3,3.6-5.9,6.6c0,0.2-0.2,0.4-0.4,0.5&#xd;&#xa;&#x9;&#x9;&#x9;C15.4,9.6,24.2,5.9,29.6,10.2z" class="st0"/>
   <path d="M14.9,20.9c0.3,0.1,0.4,0.4,0.5,0.6c0.4,1.5,0.9,2.9,1.5,4.3c0.4,1.1,0.7,2.2,1.2,3.3&#xd;&#xa;&#x9;&#x9;&#x9;c0.5,1.3,1.3,2.6,1.5,3.9C17.7,29.2,16,25.1,14.9,20.9z" class="st0"/>
   <path d="M22.1,38.6c0.8,0.1,1.2,3.1,2,3.1c0.4-0.1,1-2.2,1.4-2.7c0.3-0.5,0.8-2.1,1.3-2.1c-0.7,1.8-1.7,3.5-2.5,5.3&#xd;&#xa;&#x9;&#x9;&#x9;c-0.2,0.4-0.4,0.4-0.6,0C23.2,41,22.6,39.9,22.1,38.6z" class="st0"/>
   <path d="M31.4,26.2c-0.3-0.2,0-0.4,0-0.6c0.4-1,0.7-2.1,1-3.1c0.4-0.7,0.6-3,1.2-3.3c-0.1,1.1-0.4,2.1-0.8,3.2&#xd;&#xa;&#x9;&#x9;&#x9;C32.4,23.6,32,25,31.4,26.2z" class="st0"/>
   <path d="M33.6,16.9c-0.3-0.2-0.4-0.6-0.5-1c-0.2-0.8-0.5-1.5-0.8-2.3c-0.1-0.6-1.1-1.2-1-1.8&#xd;&#xa;&#x9;&#x9;&#x9;C32.7,13.1,33.5,15,33.6,16.9z" class="st0"/>
   <path d="M30.7,11.2c-0.2,0-0.4,0.2-0.6,0.2c-0.1-0.1-0.2-0.1-0.4-0.2v-0.1c0.3-0.4-0.2-0.6-0.2-0.9&#xd;&#xa;&#x9;&#x9;&#x9;C30.1,10.4,30.5,10.7,30.7,11.2z" class="st0"/>
   <path d="M26.9,36.7c-0.1-0.4,0.2-1.1,0.7-1.4C27.4,35.8,27.2,36.3,26.9,36.7z" class="st0"/>
   <path d="M14.5,19.3c0.4,0.3,0.5,0.7,0.3,1.2C14.6,20.1,14.5,19.7,14.5,19.3z" class="st0"/>
   <path d="M30.5,28.5c0.1-0.4,0-0.9,0.4-1.1C30.8,27.7,30.7,28.1,30.5,28.5z" class="st0"/>
   <path d="M33.6,18.1c-0.2-0.3-0.2-0.6,0-0.9C33.7,17.6,33.7,17.9,33.6,18.1z" class="st0"/>
   <path d="M31,27.1c-0.1-0.3-0.1-0.6,0.3-0.7C31.3,26.7,31.1,26.9,31,27.1z" class="st0"/>
   <path d="M27.7,35c-0.2-0.3,0-0.4,0.2-0.4C27.9,34.7,27.8,34.9,27.7,35z" class="st0"/>
   <path d="M19.9,33.7c0.3,0.1,0.3,0.3,0.2,0.5C20,34.1,19.9,33.9,19.9,33.7z" class="st0"/>
   <path d="M14.5,16.9c0.1,0.2,0.2,0.3-0.1,0.4C14.4,17.1,14.4,17,14.5,16.9z" class="st0"/>
   <path d="M30.3,28.9c-0.1-0.2-0.1-0.3,0.1-0.4C30.5,28.7,30.4,28.8,30.3,28.9z" class="st0"/>
   <path d="M21.5,37.2c0.2,0,0.2,0.1,0.1,0.3C21.5,37.4,21.4,37.4,21.5,37.2z" class="st0"/>
   <path d="M19.7,33.2c0.2,0,0.2,0.1,0.1,0.3C19.7,33.4,19.6,33.3,19.7,33.2z" class="st0"/>
   <path d="M30.1,29.4c-0.1-0.1-0.1-0.3,0.1-0.3C30.2,29.3,30.2,29.3,30.1,29.4z" class="st0"/>
   <path d="M26.1,26.1c-4,1.6-8.8-1.4-10-5.3c-0.7-2.5-0.5-5.3,1.3-7.2c0.1,0.2-0.2,0.4-0.1,0.6c0.3-0.1,0.6-0.2,0.8-0.3&#xd;&#xa;&#x9;&#x9;&#x9;c0.2,0.2,0.1,0.6,0.4,0.8c0,0.2,0.2,0.3,0.2,0.5c-0.8,0-0.7,0.5-1,1.1c-0.5,1-0.3,2.1-0.3,3.2c0,0.4,0.4,0.4,0.6,0.1&#xd;&#xa;&#x9;&#x9;&#x9;c0.3-0.3,0.1-0.6,0.1-0.9c-0.1-0.8,0-1.5,0.9-1.9c0.3,1.4-0.8,2-0.4,3.2c0.1,0.4,0.3,0.7,0.3,1.1c-0.3,0-0.3-0.4-0.6-0.5&#xd;&#xa;&#x9;&#x9;&#x9;c0,1.5,1.9,3.4,3.4,3.7c0.1,0.2,0.2,0.4,0.4,0.6c-1.4,0.2-2.4-1.2-3.3-2c-1.5-1.7-2-3.6-1.6-5.9c0-0.8,1.2-2,0.4-2.6&#xd;&#xa;&#x9;&#x9;&#x9;c-0.3-0.1-0.4,0.3-0.5,0.5c-2.8,4.9,1.2,10.9,6.6,11.1c0.1,0,0.4,0.1,0.4-0.1c0-0.5-1.9-0.3-1.6-1.4c0.5,0.2,0.9,0.4,1.4,0.5&#xd;&#xa;&#x9;&#x9;&#x9;c0.4,0.2,0.9,0.1,1.2,0.4C25.1,26.2,25.7,25.8,26.1,26.1z" class="st1"/>
   <path d="M31.8,15.9c0.1,0.3,0,0.6,0.2,0.8c0.2,1,0.1,2,0.1,2.9c-0.5,1.9-1.5,3.8-3.1,5.1c-0.1,0-0.2,0.1-0.3,0.2&#xd;&#xa;&#x9;&#x9;&#x9;C28,25.3,27.1,26,26.3,26c0.4-0.4,1.3-0.4,1.3-1.1c0-0.2-0.1-0.3-0.3-0.3c0.1-0.3,0.4-0.4,0.5-0.7c0.2,0,0.3,0.1,0.5,0.1&#xd;&#xa;&#x9;&#x9;&#x9;c0,0.5,0.5-0.1,0.7-0.2c4.6-3.6,1-12.8,1.4-7c-0.3,0-0.2-0.5-0.6-0.4c0-0.7,0-1.3,0.2-2c0.3,0,0.5,0.4,0.9,0.1&#xd;&#xa;&#x9;&#x9;&#x9;c0.1,0.1,0.2,0.1,0.4,0.2l0,0C31.4,15.2,31.7,15.5,31.8,15.9z" class="st1"/>
   <path d="M28.4,11.6c-0.4,0-1.2-0.6-1.4-0.2c-2.4-0.8-3.8-0.8-6.2,0c-0.3-0.3-0.7-0.2-1.1-0.3&#xd;&#xa;&#x9;&#x9;&#x9;c-0.3-0.1-0.6,0.5-0.4,0.7c-0.2,0.4-0.7,0.7-0.8,1.2c-0.1,0.1-0.1,0.4-0.3,0.4c-0.2-0.2-0.5,0-0.7,0c0.2-1.1,1.2-1.6,1.7-2.5&#xd;&#xa;&#x9;&#x9;&#x9;c0.2-0.3,0.4-0.4,0.7-0.1c0.2,0.2,0.4,0.2,0.6,0.1c0.8-0.6,1.7-0.7,2.6-0.8C25,10.1,27.1,10.3,28.4,11.6z" class="st1"/>
   <path d="M29.4,12.2c-0.2,0-0.5,0.1-0.6-0.2c0.7,0,0.5-0.7,1-0.9v0.1c-0.2,0.2-0.4,0.5-0.1,0.7s0.4-0.1,0.5-0.2&#xd;&#xa;&#x9;&#x9;&#x9;c0.1,0,0.1,0.1,0.1,0.2c0,0.6,0.3,1.2,0.1,1.8c-0.2,0-0.3,0.1-0.4,0.2c-0.2-0.4-0.1-0.9-0.3-1.3C29.8,12.3,29.6,12.2,29.4,12.2z" class="st1"/>
   <path d="M30.5,13.7c0.2-0.6-0.2-1.2-0.1-1.8c0.5,0.2,0.3,0.7,0.3,1.1c0,0.8,0.6,1.2,0.7,1.8&#xd;&#xa;&#x9;&#x9;&#x9;C30.9,14.6,30.8,14.1,30.5,13.7z" class="st0"/>
   <path d="M29.8,24c0.7-0.7,1.1-1.5,1.6-2.3C31.3,22.5,30.6,23.9,29.8,24z" class="st0"/>
   <path d="M31.8,15.9c-0.1-0.4-0.4-0.7-0.4-1.1C31.7,15.1,31.9,15.4,31.8,15.9z" class="st0"/>
   <path d="M31.5,21.5c0-0.3,0.1-0.5,0.3-0.7C31.9,21.1,31.8,21.3,31.5,21.5z" class="st0"/>
   <path d="M31.9,20.3c0-0.2,0-0.5,0.2-0.7C32.3,19.9,32.2,20.1,31.9,20.3z" class="st0"/>
   <path d="M32,16.7c-0.2-0.2-0.2-0.4-0.2-0.6C32.1,16.2,32.1,16.4,32,16.7z" class="st0"/>
   <path d="M28.7,25c0.1-0.1,0.1-0.2,0.3-0.2C29,25,28.9,25,28.7,25z" class="st0"/>
   <path d="M22.7,24.9c0.2,0.5,1.6,0.5,1.6,0.9c0,0.2-0.3,0.1-0.4,0.1c-5.4-0.1-9.4-6.2-6.6-11.1&#xd;&#xa;&#x9;&#x9;&#x9;c0.1-0.2,0.2-0.6,0.5-0.5c0.8,0.6-0.4,1.8-0.4,2.6c-0.5,2.2,0,4.2,1.6,5.9c0.9,0.9,1.8,2.2,3.3,2C22.4,25,22.6,24.9,22.7,24.9z" class="st0"/>
   <path d="M24.1,24.9c0-0.1,0-0.2,0-0.2c-0.6-0.4-0.8-1.2-1.5-1.3c-0.5-0.1,0.2-0.4-0.1-1.2c0.2,0,0.4,0.1,0.5,0.1&#xd;&#xa;&#x9;&#x9;&#x9;c0.1,0.2-0.4,0.5-0.2,0.7c0.3,0,0.5,0.3,0.8,0.2c0.3,0,0.7,0,1,0c0.3,0.5,1.3,0.2,1.1,1.2c0.3,0.5,1.4-0.2,1.5-0.6&#xd;&#xa;&#x9;&#x9;&#x9;c0.1-0.3,0.1-0.7,0.1-1c0.9,0.1-0.2,1,0.4,1.3c-0.7,0.9-1.3,1.6-2.6,1.3C25,25,24.5,25.1,24.1,24.9z M24.5,24.3&#xd;&#xa;&#x9;&#x9;&#x9;c0.6,0.1,0.7-0.8,0.1-0.5c-0.3,0.2-0.9-0.2-1,0C23.6,24.3,24.3,24.2,24.5,24.3z" class="st0"/>
   <path d="M19,14.5c-0.1,0-0.3,0.1-0.4,0.1c-0.2-0.2-0.2-0.5-0.4-0.8c0-0.1,0-0.3,0-0.4c0.2-0.1,0.1-0.3,0.3-0.4&#xd;&#xa;&#x9;&#x9;&#x9;c0.1,0,0.2,0,0.3,0C18.7,13.5,18.8,14.1,19,14.5z" class="st0"/>
   <path d="M22.7,24.5C22.7,24.4,22.7,24.4,22.7,24.5c0.3-0.1,0.6-0.1,0.7,0.3C23.2,24.7,22.9,24.6,22.7,24.5z" class="st0"/>
   <path d="M28.4,24.1c0.3-1.1,1.1-1.8,1.5-2.8c1.1-1.9,0.5-4,0.6-6c-0.1-0.3,0.2-0.4,0.3-0.1c1.4,3.1,0.5,7.1-2.2,9.1&#xd;&#xa;&#x9;&#x9;&#x9;C28.4,24.4,28.4,24.3,28.4,24.1z" class="st0"/>
   <path d="M26.9,17.8c-0.7,1.3-3.2-0.5-2.7,1c-0.2,0-0.3-0.2-0.5-0.3c-0.1-0.1-0.2-0.2-0.2-0.3s0-0.3,0-0.4&#xd;&#xa;&#x9;&#x9;&#x9;c0.4-0.1,0.7,0.3,1-0.1c0.3-0.7,1.5-0.9,1.2-1.8c-0.3,0.2-1.4,1.7-1.3,0.8c0.1-0.5,0.5-0.9,0.5-1.5c0.1-0.4,0.6-0.7,0.1-1.1&#xd;&#xa;&#x9;&#x9;&#x9;c0.5-0.1,0.4-0.4,0.1-0.6c0.3,0,0.5-0.6,0.8-0.3c-0.3,0.2-0.9,2.1-0.3,2c0.7,0.1,0.2,1.5,0.1,2c-0.2,0.1-0.4,0.2-0.3,0.4&#xd;&#xa;&#x9;&#x9;&#x9;c0.2,0.5,0.9,0.1,1.4,0C26.8,17.7,26.8,17.8,26.9,17.8z" class="st1"/>
   <path d="M25.7,17c0.1-0.4,0.6-1.7-0.1-1.8c-0.2,0-0.3-0.2-0.3-0.4c0.1-0.6,0.1-1.2,0.6-1.6c0.2,0.3-0.4,0.9,0.4,0.9&#xd;&#xa;&#x9;&#x9;&#x9;c-0.1,0.3-0.2,0.5,0.2,0.7c0,0.2-0.2,0.3-0.2,0.4c-0.3,0.4-0.1,0.9,0.5,1c-0.2,0.5,0,1,0,1.5c-0.4,0-1.1,0.5-1.4,0&#xd;&#xa;&#x9;&#x9;&#x9;c-0.1-0.3,0.1-0.4,0.3-0.4c0,0.8,0.9,0.5,0.7-0.1C26.2,16.5,25.9,17,25.7,17z" class="st0"/>
   <path d="M29.8,12.6c-0.2,0-0.1,0.4-0.4,0.3c0-0.3,0-0.5,0-0.8C29.6,12.2,29.8,12.3,29.8,12.6z" class="st0"/>
   <path d="M28,14.1c-0.2-0.3-0.3-0.6,0-0.9C28.1,13.5,28.1,13.8,28,14.1z" class="st0"/>
   <path d="M21,15.2c0.1,0,0.2,0,0.2,0c0,0.3,0.1,0.5,0.4,0.2c0.6-0.5,1.6,1.6-0.4,2c0-0.1,0-0.2,0-0.3&#xd;&#xa;&#x9;&#x9;&#x9;c0.3-0.3,0.7-0.8,0.5-1.3c-0.1-0.3-0.5,0.1-0.7,0C20.9,15.6,21,15.4,21,15.2z" class="st1"/>
   <path d="M22.8,19.8c0.8,0.6-0.3,1.6-0.1,2.3c-0.1,0-0.1,0-0.2,0c-0.1-0.1-0.1-0.2-0.2-0.3c-0.6-0.3,0.6-0.7-0.1-1&#xd;&#xa;&#x9;&#x9;&#x9;c0.1-0.2,0.2-0.3,0.1-0.5C22.6,20.4,22.9,20.3,22.8,19.8z" class="st1"/>
   <path d="M19.4,16c-0.1-0.2-0.1-0.4-0.1-0.6c0.3,0,0.5,0.1,0.8,0.1c0.1,0.1,0.2,0.2,0.3,0.2c-0.1,0.3-0.1,0.6-0.1,1&#xd;&#xa;&#x9;&#x9;&#x9;c-0.1,0-0.2,0-0.3,0C19.9,16.5,19.8,15.9,19.4,16z" class="st1"/>
   <path d="M21.4,19.4c-0.2,0-0.4-0.1-0.4-0.3c0.1-0.1,0.1-0.3,0-0.4c0-0.2-0.1-0.4,0.2-0.5c0.6,0,0.3,0.7,0.5,1&#xd;&#xa;&#x9;&#x9;&#x9;C21.5,19.2,21.4,19.3,21.4,19.4z" class="st1"/>
   <path d="M21,15.8c0.2,0.1,0.6-0.3,0.7,0c0.2,0.4-0.2,0.9-0.5,1.3C21,16.8,21.7,16.5,21,15.8z" class="st0"/>
   <path d="M20.4,21.1c-0.6,0-0.6-0.6-0.5-1c0-0.1,0.1-0.1,0.2-0.1s0.2,0.1,0.2,0.2C20.3,20.5,20.5,20.7,20.4,21.1z" class="st0"/>
   <path d="M21,15.2c0,0.2,0,0.4-0.1,0.5c-0.3-0.3-0.7-0.4-1-0.6c0.3-0.1,0.6-0.2,0.9-0.2C20.9,15,20.9,15.1,21,15.2z" class="st0"/>
   <path d="M19.9,16.8c0.1,0,0.2,0,0.3,0C20.5,17.3,19.6,17.2,19.9,16.8z" class="st0"/>
   <path d="M20.3,15.8c-0.1-0.1-0.2-0.2-0.3-0.2C20.2,15.3,20.7,15.7,20.3,15.8z" class="st0"/>
   <path d="M21,18.7c0.1,0.1,0.2,0.3,0,0.4C20.9,19,20.9,18.8,21,18.7z" class="st0"/>
   <path d="M22.3,23.9c-0.2-0.1-0.3-0.3-0.3-0.5C22.3,23.4,22.3,23.6,22.3,23.9z" class="st0"/>
   <path d="M19.4,16c0.1,0,0.3-0.1,0.3,0.1c-0.1,0.1-0.2,0.1-0.4,0.1C19.4,16.2,19.4,16.1,19.4,16z" class="st0"/>
   <path d="M22.7,24.4c-0.2,0-0.2-0.1-0.2-0.2C22.7,24.1,22.7,24.2,22.7,24.4z" class="st0"/>
   <path d="M24.6,23.2c0.6-0.3,0.2-0.5,0-0.7c0.8,0,1.5,0.3,2.3,0.1c0.2,0,0.4,0,0.5,0.1c0,0.3-0.1,0.7-0.1,1&#xd;&#xa;&#x9;&#x9;&#x9;c-0.1,0.4-1.2,1.1-1.5,0.6C26,23.4,24.9,23.7,24.6,23.2z" class="st1"/>
   <path d="M24.5,24.3c-0.2-0.1-0.9-0.1-0.9-0.4c0.1-0.3,0.7,0.1,1,0C25.2,23.6,25.2,24.4,24.5,24.3z" class="st1"/>
   <path d="M23,22.3c0.7,0,0.6,0.5,0.6,0.9c-0.3,0.1-0.5-0.2-0.8-0.2C22.6,22.8,23.1,22.6,23,22.3z" class="st1"/>
   <path d="M19.1,13.6c-0.1,0-0.2,0-0.3,0c-0.1-0.2,0-0.4,0-0.5c0.1,0,0.1-0.1,0.2-0.1s0.1,0.1,0.2,0.1&#xd;&#xa;&#x9;&#x9;&#x9;C19.1,13.2,19.1,13.4,19.1,13.6z" class="st1"/>
   <path d="M24.6,22.4c-0.4-0.2-0.6-0.5-0.4-0.9c0.4-0.8,0.7-0.9,1.5-0.4C25.4,21.9,24.4,21.2,24.6,22.4z" class="st1"/>
   <path d="M27.6,18.9c-0.1,0.4-0.4,0.5-0.7,0.5c-0.4,0-0.2-0.4-0.4-0.5c0.2-0.4,0.5-0.3,0.8-0.3&#xd;&#xa;&#x9;&#x9;&#x9;C27.4,18.8,27.6,18.8,27.6,18.9z" class="st1"/>
   <path d="M26.1,21.1c-0.1-0.4-0.1-0.7,0.4-0.7c0.2,0.5,0.8-0.2,1.1-0.1C27.3,20.7,26.8,21.1,26.1,21.1z" class="st1"/>
   <path d="M24.2,18.9c-0.4-1.1,0.8-0.5,1.4-0.5c-0.2,0.5-1.3-0.3-1,0.7c0,0,0,0-0.1,0C24.4,19,24.3,19,24.2,18.9&#xd;&#xa;&#x9;&#x9;&#x9;C24.3,19,24.3,18.9,24.2,18.9z" class="st0"/>
   <path d="M28.8,17.8c-0.1,0-0.1-0.1-0.2-0.1c0.2-0.5,0.4-0.9,0.6-1.4c0,0,0.1,0,0.1,0.1C29.2,16.9,29.3,17.5,28.8,17.8&#xd;&#xa;&#x9;&#x9;&#x9;z" class="st1"/>
   <path d="M27.7,20.3c-0.4-0.1-1,0.6-1.1,0.1c0.3-0.2,0.6-0.4,0.9-0.5C27.3,20.1,27.8,20,27.7,20.3z" class="st0"/>
   <path d="M26.3,18.9c-0.1,0.3-0.5,0.1-0.7,0.4c-0.1,0.1-0.3,0.1-0.3,0.2c-0.3,0-0.6-0.1-0.7-0.4c0,0,0,0,0.1,0&#xd;&#xa;&#x9;&#x9;&#x9;C25.3,19.5,25.7,18.7,26.3,18.9z" class="st0"/>
   <path d="M27.5,21.6c0,0.1,0,0.2,0,0.3C27.1,22.1,27,21.4,27.5,21.6z" class="st0"/>
   <path d="M27.6,18.9c-0.1-0.1-0.3-0.1-0.3-0.3c0.2,0,0.4,0,0.6-0.1C27.9,18.7,27.8,18.8,27.6,18.9z" class="st0"/>
   <path d="M27.2,22.6c-0.1,0-0.2,0-0.3,0C26.9,22.4,27.2,22.4,27.2,22.6z" class="st0"/>
   <path d="M25.4,11.8c-0.9-0.1-1.9-0.1-2.8,0C23.1,11.2,24.9,11.3,25.4,11.8z" class="st0"/>
   <path d="M26.9,14.6c0.1-0.4,0.4-0.3,0.6-0.3C28,14.6,27.1,15,26.9,14.6z" class="st0"/>
   <path d="M27.1,13c0,0.2-0.1,0.3-0.3,0.4c-0.2-0.1-0.4-0.1-0.6-0.2C26.4,12.9,26.8,13,27.1,13z" class="st0"/>
   <path d="M22.2,11.9c-0.2,0.1-0.4,0.3-0.6,0.2C21.7,11.7,21.9,11.8,22.2,11.9z" class="st0"/>
   <path d="M26.7,12.2c-0.2,0-0.4-0.1-0.5-0.2C26.4,11.8,26.6,11.9,26.7,12.2z" class="st0"/>
   <path d="M21.1,12.3c-0.2,0.2-0.3,0.1-0.4-0.1C20.9,12.2,21.1,12.1,21.1,12.3z" class="st0"/>
   <path d="M27.5,12.8c-0.1,0-0.1,0-0.2,0C27.3,12.6,27.6,12.6,27.5,12.8z" class="st0"/>
   <path d="M20.6,11.7c-0.1-0.2,0-0.2,0.2-0.2C20.8,11.6,20.8,11.7,20.6,11.7z" class="st0"/>
   <path d="M21.4,14.3c-0.4-0.1-0.7-0.8-0.1-0.8c1.2-0.4,2.5-0.5,3.7-0.1c0.3,0.3,0.4,0.5-0.1,0.6&#xd;&#xa;&#x9;&#x9;&#x9;c-0.7-0.1-1.5-0.3-2.2,0.1C22.3,14.2,21.9,14.1,21.4,14.3z" class="st0"/>
   <path d="M21.3,13.5c-0.2,0-0.4,0.1-0.3,0.3c-0.1,0-0.2,0.1-0.3,0.1c-0.1-0.3-0.1-0.6-0.2-0.9&#xd;&#xa;&#x9;&#x9;&#x9;C20.7,13.4,21.2,13.2,21.3,13.5z" class="st1"/>
   <path d="M19.6,11.5c0,0.1-0.1,0.2-0.2,0.2C19.3,11.5,19.6,11.3,19.6,11.5z" class="st1"/>
   <path d="M19.8,14.5c-0.5,0.1-0.7-0.2-0.7-0.7c0.3,0.1,0.8-0.1,0.8,0.5C19.9,14.3,19.8,14.3,19.8,14.5z" class="st0"/>
   <path d="M19.8,14.5c0-0.1,0-0.2,0.1-0.2c0.1,0.1,0.1,0.1,0.2,0.2C20.1,14.6,20,14.7,19.8,14.5z" class="st1"/>
   <path d="M19.1,13c-0.1,0-0.1-0.1-0.2-0.1C19,12.7,19.3,12.9,19.1,13z" class="st0"/>
   <path d="M21.4,19.4c0.2-0.7,1.1,0.2,1.4,0.4c0.1,0.4-0.2,0.5-0.6,0.6C21.8,20.2,21.7,19.8,21.4,19.4z" class="st0"/>
   <path d="M21.4,14.3c0.4-0.2,0.9-0.1,1.3-0.1c-0.5,0.3-1,0.6-1.5,0.9C21.3,14.9,21.6,14.6,21.4,14.3z" class="st1"/>
   <path d="M20.8,14.9c-0.1,0-0.2,0-0.3,0C20.5,14.7,20.9,14.7,20.8,14.9z" class="st1"/>
   <path d="M25.2,19.5c-0.1,0.2-0.4,0.3-0.6,0.3c-0.2-0.1-0.1-0.3-0.2-0.5c0-0.1-0.1-0.2-0.1-0.3c0.1,0,0.2,0.1,0.3,0.1&#xd;&#xa;&#x9;&#x9;&#x9;C24.7,19.4,24.9,19.6,25.2,19.5z" class="st1"/>
   <path d="M34.3,15.4c-0.1-0.2-0.2-0.4-0.2-0.6C34,14.7,34,14.6,34,14.5c-0.1-0.1-0.1-0.1-0.1-0.2&#xd;&#xa;&#x9;&#x9;&#x9;c-1.4-3.1-4.1-5.5-7.3-6.4c-0.1,0-0.2,0-0.2,0c-1.8-0.4-3.5-0.3-5.3,0.1C21,8.1,21,8.1,20.9,8.1c-0.3,0.1-0.5,0.2-0.8,0.3&#xd;&#xa;&#x9;&#x9;&#x9;c-0.2,0.4-0.6,0.4-0.9,0.5c-1.4,0.8-2.5,1.8-3.5,2.9c-0.1,0.1-0.1,0.2-0.3,0.2c0,0.1-0.1,0.2-0.2,0.2c0,0,0,0,0,0.1s0,0.2-0.2,0.2&#xd;&#xa;&#x9;&#x9;&#x9;c-5,8.4,4.5,21.3,7.5,29.5c0.3,0.1,0.3,0.5,0.4,0.8c0.2,0,0.3,0.1,0.2,0.3c0.4,0.6,0.8,0.7,1.5,0.4c3.8-7.3,7.2-14.9,9.7-22.8&#xd;&#xa;&#x9;&#x9;&#x9;c0-0.1,0-0.2,0.1-0.2c0.1-1.1,0.4-2.1,0.3-3.2C34.5,16.6,34.4,16,34.3,15.4z M33.6,19.1c-0.1,1.1-0.4,2.1-0.8,3.2&#xd;&#xa;&#x9;&#x9;&#x9;c-0.5,1.3-0.8,2.7-1.5,3.9c-0.1,0.3-0.1,0.7-0.4,0.9c-0.1,0.5-0.2,1-0.5,1.3v0.1c0,0.2-0.2,0.4-0.2,0.6c0,0.1,0,0.2-0.1,0.3&#xd;&#xa;&#x9;&#x9;&#x9;c-1.8,4.3-3.6,8.6-5.7,12.8c-0.2,0.4-0.4,0.4-0.6,0c-2.5-5.4-5-10.7-7.2-16.2c-1-2.8-2.3-5.7-2.1-8.7C15.3,4.6,35.1,6.3,33.6,19.1&#xd;&#xa;&#x9;&#x9;&#x9;z" class="st2"/>
   <path d="M29,13.5c-0.2,0.3-0.3,0.1-0.5-0.1c-0.1-0.1-0.2-0.5-0.5-0.2c0.3,1.2-0.6,2.1-1.3,2.9c-0.2,0.5,0,1,0,1.5&#xd;&#xa;&#x9;&#x9;&#x9;c0.1,0.1,0.1,0.1,0.2,0.2c1.6-0.8,2.7-3.9,2.4-5.7c-0.6,0.1-0.6-0.2-1-0.5c-0.4,0-1.2-0.6-1.4-0.2C27.8,11.8,29.6,12.4,29,13.5z" class="st2"/>
   <path d="M27.3,24.7c-0.5,0.7-1.2,0.8-2,0.7c-0.2,1,0.4,0.5,0.8,0.8c0.1,0,0.1,0,0.2,0c0.4-0.4,1.3-0.4,1.3-1.1&#xd;&#xa;&#x9;&#x9;&#x9;C27.6,24.7,27.5,24.7,27.3,24.7z" class="st2"/>
   <path d="M18.2,13.4c-0.2-0.2-0.5,0-0.7,0c0,0,0,0.1-0.1,0.1c0.1,0.2-0.2,0.4-0.1,0.6c0.3-0.1,0.6-0.2,0.8-0.3&#xd;&#xa;&#x9;&#x9;&#x9;C18.2,13.7,18.2,13.6,18.2,13.4z" class="st2"/>
   <path d="M29.7,12c0.3,0.2,0.4-0.1,0.5-0.2c0-0.1-0.1-0.2-0.1-0.3c-0.1-0.1-0.2-0.1-0.4-0.2&#xd;&#xa;&#x9;&#x9;&#x9;C29.6,11.5,29.4,11.7,29.7,12z" class="st2"/>
   <path d="M18.8,15.1c-0.8,0-0.7,0.5-1,1.1c-0.5,1-0.3,2.1-0.3,3.2c0.2,0.8,1,0,0.8-0.8c-0.1-0.8,0-1.5,0.9-1.9&#xd;&#xa;&#x9;&#x9;&#x9;c0.2-0.4,0.2-0.9,0.1-1.3C19.1,15.3,19,15.2,18.8,15.1z" class="st2"/>
   <path d="M22.5,24.1c-0.1-0.1-0.2-0.1-0.2-0.3c-0.2-0.1-0.3-0.3-0.3-0.5c-0.3-0.9-1.3-1.4-1.6-2.3c-0.1,0-0.2,0-0.3,0&#xd;&#xa;&#x9;&#x9;&#x9;c0.1,0.7,0.6,1.1,1,1.6c0.8,0.6,0.7,2.4,1.7,2.3c-0.1-0.2,0-0.4,0-0.6C22.5,24.4,22.5,24.3,22.5,24.1z" class="st2"/>
   <path d="M22.7,24.4L22.7,24.4L22.7,24.4L22.7,24.4z" class="st2"/>
   <path d="M29.9,16.5c-0.4,1.9-0.8,3.9-2.5,5.1c0,0.1,0,0.2,0,0.3c1,0.6,1.1,1.2,0.5,2.1c0.1,0.1,0.2,0.1,0.4,0.1&#xd;&#xa;&#x9;&#x9;&#x9;c1.2-2.7,2.8-3.8,2.1-7.2C30.2,16.9,30.3,16.4,29.9,16.5z" class="st2"/>
   <path d="M30.1,13.9c0,0.2,0,0.4,0,0.6c0.3,0,0.5,0.4,0.9,0.1c-0.2-0.3-0.3-0.6-0.5-0.9C30.3,13.6,30.2,13.8,30.1,13.9&#xd;&#xa;&#x9;&#x9;&#x9;z" class="st2"/>
   <path d="M19.4,11.7c-0.1-0.1,0.1-0.4,0.2-0.2c0.8-0.2,0.6,1.2,0.9,1.6c0.2,0.2,0.7,0.1,0.8,0.4&#xd;&#xa;&#x9;&#x9;&#x9;c1.2-0.4,2.5-0.5,3.7-0.1c0.3,0,0.6-0.7,0.8-0.2c0.1,0,0.2,0,0.3,0c0.1-0.1,0.1-0.2,0.3-0.2c0-0.3,0.5-0.5,0.2-0.8&#xd;&#xa;&#x9;&#x9;&#x9;c-1.3-0.5-2.7-0.5-4.1-0.4c-0.4,0-0.7,0.3-1,0.3c-0.3,0.1-0.7,0.6-0.8,0.1c-0.2-0.1-0.3-0.7,0-0.7v-0.1c-0.3-0.3-0.7-0.2-1.1-0.3&#xd;&#xa;&#x9;&#x9;&#x9;c-0.3-0.1-0.6,0.5-0.4,0.7C19.4,11.8,19.4,11.7,19.4,11.7z" class="st2"/>
   <path d="M25.6,21.1c0.2,0,0.3,0,0.5,0c-0.5-1,2-0.8,2.6-3.3c-0.1,0-0.1-0.1-0.2-0.1c-0.3,0.4-0.5,0.9-0.9,1.2&#xd;&#xa;&#x9;&#x9;&#x9;c-0.1,0.4-0.4,0.5-0.7,0.5c-0.4,0-0.2-0.4-0.4-0.5c-0.1,0-0.2,0-0.3,0c-0.1,0.3-0.5,0.1-0.7,0.4c-0.1,0.1-0.2,0.1-0.3,0.2h-0.1&#xd;&#xa;&#x9;&#x9;&#x9;c-0.1,0.2-0.4,0.3-0.6,0.3c-0.2-0.1-0.1-0.3-0.2-0.5c0-0.1-0.1-0.2-0.1-0.3l-0.1-0.1c-0.2,0-0.3-0.2-0.5-0.3&#xd;&#xa;&#x9;&#x9;&#x9;c0,0.4,0.4,0.5,0.4,0.9s0.3,0.6,0.7,0.5c-0.4,0.1-0.7-0.1-0.7-0.5s-0.4-0.5-0.4-0.9c-0.1-0.2-0.5-0.4-0.4-0.6c0,0.1,0,0.2,0.2,0.3&#xd;&#xa;&#x9;&#x9;&#x9;c0-0.1,0-0.3,0-0.4h0.1l0,0c0.3,0.1,0.7,0.3,0.9-0.1c0.3-0.7,1.5-0.9,1.2-1.8c-0.4,0.4-1.6,1.9-1.2,0.5c0.3-0.3,0.4-0.8,0.4-1.2&#xd;&#xa;&#x9;&#x9;&#x9;c0.1-0.4,0.6-0.7,0.1-1.1c-1.6-0.4-2.5,0.3-3.7,1.1c0,0.3,0.1,0.5,0.4,0.2c0.6-0.5,1.6,1.6-0.4,2c-0.1,0.2-0.1,0.5-0.1,0.7&#xd;&#xa;&#x9;&#x9;&#x9;c0.6,0,0.3,0.7,0.5,1c2.3,1.1,1.1,1.2,1,3c0.8,0.2,0.9,0.2,0.9,1c0.7,0,2,0,0.9-0.8c-0.4-0.2-0.6-0.5-0.4-0.9&#xd;&#xa;&#x9;&#x9;&#x9;C24.5,20.8,24.8,20.7,25.6,21.1z M26,20.4c0.2-0.1,0.5-0.3,0.5-0.6C26.5,20.1,26.2,20.3,26,20.4z M25.9,19.4L25.9,19.4L25.9,19.4z&#xd;&#xa;&#x9;&#x9;&#x9; M25.8,19.4c-0.1,0-0.2,0-0.2-0.1C25.7,19.4,25.7,19.4,25.8,19.4z M26,20.4c-0.4,0.2-0.9,0.6-1.4,0.1C25.1,21,25.5,20.6,26,20.4z&#xd;&#xa;&#x9;&#x9;&#x9; M24.5,20.5C24.5,20.4,24.5,20.4,24.5,20.5C24.5,20.4,24.5,20.4,24.5,20.5z M24.4,20.4C24.4,20.4,24.3,20.4,24.4,20.4&#xd;&#xa;&#x9;&#x9;&#x9;C24.3,20.4,24.4,20.4,24.4,20.4z M23.9,20.7c-0.1,0.4-0.1,0.8-0.1,1.2C23.8,21.5,23.8,21.1,23.9,20.7z M23.3,20.8L23.3,20.8&#xd;&#xa;&#x9;&#x9;&#x9;c0.1-0.5,0.1-0.8-0.1-1C23.5,20,23.4,20.3,23.3,20.8z M24.4,17.4c0-0.1-0.2-0.2-0.2-0.3C24.2,17.2,24.4,17.3,24.4,17.4z&#xd;&#xa;&#x9;&#x9;&#x9; M24.9,15.1c-0.2-0.2-0.1-0.5-0.4-0.7C24.8,14.6,24.7,15,24.9,15.1z M24.4,14.5c-0.2-0.1-0.4-0.1-0.6-0.1&#xd;&#xa;&#x9;&#x9;&#x9;C24.1,14.3,24.3,14.4,24.4,14.5z M22.8,14.7L22.8,14.7L22.8,14.7z M22.3,14.8c-0.2,0.2,0.3,0.4,0.4,0.7&#xd;&#xa;&#x9;&#x9;&#x9;C22.6,15.2,22.1,15,22.3,14.8z M22.2,17.2c0.4-0.3,0.6-0.7,0.6-1.2c0.1,0.7-0.7,1.1-1.1,1.6C21.9,17.5,22.1,17.4,22.2,17.2z&#xd;&#xa;&#x9;&#x9;&#x9; M22.1,18.2c0.1,0.1,0.1,0.2,0.1,0.3C22.1,18.4,22.1,18.3,22.1,18.2z M22.9,19.5c0.1,0.1,0.2,0.2,0.3,0.2&#xd;&#xa;&#x9;&#x9;&#x9;C23.1,19.7,23,19.6,22.9,19.5z M23.8,22.3c-0.2,0.1-0.4,0-0.6-0.1s-0.2-0.3-0.1-0.4c0,0.2-0.1,0.4,0.1,0.4c0.2,0.1,0.6,0.3,0.7,0&#xd;&#xa;&#x9;&#x9;&#x9;C23.9,22.2,23.9,22.2,23.8,22.3z" class="st2"/>
   <path d="M20.7,14.8c0.1,0,0.1,0.1,0.1,0.2c0.1,0.1,0.1,0.2,0.2,0.2s0.2,0,0.2,0c0-0.3,0.3-0.5,0.2-0.8&#xd;&#xa;&#x9;&#x9;&#x9;c-0.2-0.1-0.3-0.2-0.4-0.4c-0.1,0-0.2,0.1-0.3,0.1c0,0.3,0,0.7-0.5,0.5c-0.1,0.2-0.2,0.2-0.3,0c-0.7,0.1-0.6-0.4-0.8-0.9&#xd;&#xa;&#x9;&#x9;&#x9;c-0.1,0-0.2,0-0.3,0c-0.1,0.8,0.4,1.3,1.2,1.6c0.2-0.1,0.4-0.1,0.6-0.2C20.5,14.8,20.6,14.8,20.7,14.8z" class="st2"/>
   <path d="M22.2,20.9c0.1-0.2,0.2-0.3,0.1-0.5c-0.4-0.2-0.5-0.7-0.8-1c-0.1,0-0.1,0-0.2,0&#xd;&#xa;&#x9;&#x9;&#x9;C21.2,20.2,21.1,21.2,22.2,20.9z" class="st2"/>
   <path d="M26.3,14.1c-0.1,0.3-0.2,0.6,0.2,0.7c0.1-0.1,0.3-0.1,0.4-0.2c0.1-0.4,0.4-0.3,0.6-0.3c0-0.5,0.2-1,0-1.5&#xd;&#xa;&#x9;&#x9;&#x9;c-0.1,0-0.1,0-0.2,0C26.9,13.2,26.8,13.8,26.3,14.1z" class="st2"/>
  </g>
 </g>
 <g id="Textos">
  <g class="st3">
   <path d="M58.6,20.7H62c0.7,0,1.2,0,1.5,0.1s0.6,0.2,0.9,0.4s0.5,0.4,0.7,0.7s0.3,0.6,0.3,1s-0.1,0.8-0.3,1.1&#xd;&#xa;&#x9;&#x9;&#x9;c-0.2,0.3-0.5,0.6-0.9,0.8c0.5,0.1,0.9,0.4,1.2,0.8c0.3,0.4,0.4,0.8,0.4,1.3c0,0.4-0.1,0.8-0.3,1.2s-0.4,0.7-0.7,0.9&#xd;&#xa;&#x9;&#x9;&#x9;c-0.3,0.2-0.7,0.4-1.2,0.4c-0.3,0-1,0.1-2.1,0.1h-2.9L58.6,20.7L58.6,20.7z M60.3,22.1v2h1.1c0.7,0,1.1,0,1.3,0&#xd;&#xa;&#x9;&#x9;&#x9;c0.3,0,0.5-0.1,0.7-0.3s0.3-0.4,0.3-0.7s-0.1-0.5-0.2-0.7c-0.1-0.2-0.4-0.3-0.7-0.3c-0.2,0-0.7,0-1.5,0H60.3L60.3,22.1z&#xd;&#xa;&#x9;&#x9;&#x9; M60.3,25.6v2.3h1.6c0.6,0,1,0,1.2-0.1c0.3,0,0.5-0.2,0.6-0.3c0.2-0.2,0.2-0.4,0.2-0.7s-0.1-0.5-0.2-0.7c-0.1-0.2-0.3-0.3-0.5-0.4&#xd;&#xa;&#x9;&#x9;&#x9;c-0.2-0.1-0.8-0.1-1.5-0.1H60.3L60.3,25.6z" class="st4"/>
   <path d="M68.5,25L67,24.7c0.2-0.6,0.5-1.1,0.9-1.3s1-0.4,1.8-0.4c0.7,0,1.3,0.1,1.7,0.3c0.4,0.2,0.6,0.4,0.8,0.7&#xd;&#xa;&#x9;&#x9;&#x9;c0.1,0.3,0.2,0.8,0.2,1.5v1.9c0,0.6,0,1,0.1,1.2c0.1,0.3,0.1,0.5,0.3,0.8h-1.6c0-0.1-0.1-0.3-0.2-0.5c0-0.1,0-0.2-0.1-0.2&#xd;&#xa;&#x9;&#x9;&#x9;c-0.3,0.3-0.6,0.5-0.9,0.6s-0.7,0.2-1,0.2c-0.7,0-1.2-0.2-1.5-0.5c-0.4-0.4-0.6-0.8-0.6-1.3c0-0.4,0.1-0.7,0.3-1s0.4-0.5,0.7-0.6&#xd;&#xa;&#x9;&#x9;&#x9;c0.3-0.1,0.7-0.3,1.3-0.4c0.8-0.1,1.3-0.3,1.6-0.4v-0.2c0-0.3-0.1-0.5-0.2-0.7c-0.2-0.1-0.5-0.2-0.9-0.2c-0.3,0-0.5,0.1-0.7,0.2&#xd;&#xa;&#x9;&#x9;&#x9;C68.8,24.5,68.6,24.7,68.5,25z M70.8,26.3c-0.2,0.1-0.5,0.2-1,0.3s-0.8,0.2-0.9,0.3c-0.2,0.1-0.3,0.4-0.3,0.6&#xd;&#xa;&#x9;&#x9;&#x9;c0,0.2,0.1,0.4,0.3,0.6c0.2,0.2,0.4,0.3,0.7,0.3c0.3,0,0.6-0.1,0.9-0.3c0.2-0.1,0.3-0.3,0.4-0.5c0-0.1,0.1-0.4,0.1-0.8L70.8,26.3&#xd;&#xa;&#x9;&#x9;&#x9;L70.8,26.3z" class="st4"/>
   <path d="M75.6,29.4h-1.7v-6.3h1.5V24c0.3-0.4,0.5-0.7,0.7-0.8s0.4-0.2,0.7-0.2c0.4,0,0.7,0.1,1.1,0.3l-0.5,1.5&#xd;&#xa;&#x9;&#x9;&#x9;c-0.3-0.2-0.5-0.3-0.8-0.3c-0.2,0-0.4,0.1-0.6,0.2s-0.3,0.4-0.4,0.7s-0.1,1-0.1,2.1L75.6,29.4L75.6,29.4z" class="st4"/>
   <path d="M82.4,27.4l1.7,0.3c-0.2,0.6-0.5,1.1-1,1.4c-0.5,0.3-1,0.5-1.7,0.5c-1.1,0-1.9-0.4-2.4-1.1&#xd;&#xa;&#x9;&#x9;&#x9;c-0.4-0.6-0.6-1.3-0.6-2.2c0-1,0.3-1.9,0.8-2.4c0.5-0.6,1.2-0.9,2.1-0.9s1.7,0.3,2.2,0.9c0.5,0.6,0.8,1.6,0.8,2.8H80&#xd;&#xa;&#x9;&#x9;&#x9;c0,0.5,0.1,0.9,0.4,1.2s0.6,0.4,1,0.4c0.3,0,0.5-0.1,0.7-0.2C82.1,27.9,82.3,27.7,82.4,27.4z M82.5,25.7c0-0.5-0.1-0.8-0.4-1.1&#xd;&#xa;&#x9;&#x9;&#x9;c-0.2-0.2-0.5-0.4-0.9-0.4s-0.7,0.1-0.9,0.4c-0.2,0.3-0.4,0.6-0.4,1.1H82.5L82.5,25.7z" class="st4"/>
   <path d="M84.9,27.6l1.7-0.3c0.1,0.3,0.2,0.6,0.4,0.7s0.5,0.3,0.9,0.3s0.7-0.1,1-0.2c0.1-0.1,0.2-0.3,0.2-0.4&#xd;&#xa;&#x9;&#x9;&#x9;c0-0.1,0-0.2-0.1-0.3s-0.3-0.1-0.6-0.2c-1.3-0.3-2.2-0.6-2.6-0.8c-0.5-0.3-0.7-0.8-0.7-1.4c0-0.5,0.2-1,0.6-1.4s1.1-0.6,2-0.6&#xd;&#xa;&#x9;&#x9;&#x9;s1.5,0.1,1.9,0.4c0.4,0.3,0.7,0.7,0.9,1.2l-1.6,0.3c-0.1-0.2-0.2-0.4-0.4-0.6c-0.2-0.1-0.5-0.2-0.8-0.2c-0.4,0-0.7,0.1-0.9,0.2&#xd;&#xa;&#x9;&#x9;&#x9;c-0.1,0.1-0.2,0.2-0.2,0.3s0.1,0.2,0.2,0.3s0.7,0.3,1.5,0.5c0.9,0.2,1.5,0.4,1.9,0.7c0.3,0.3,0.5,0.7,0.5,1.2&#xd;&#xa;&#x9;&#x9;&#x9;c0,0.6-0.2,1.1-0.7,1.5s-1.2,0.6-2.1,0.6s-1.5-0.2-2-0.5C85.4,28.6,85,28.2,84.9,27.6z" class="st4"/>
  </g>
 </g>
</svg>
