<?xml version='1.0' encoding='utf-8'?>
<!DOCTYPE svg PUBLIC '-//W3C//DTD SVG 1.1//EN' 'http://www.w3.org/Graphics/SVG/1.1/DTD/svg11.dtd'>
<!-- Generator: Adobe Illustrator 25.4.1, SVG Export Plug-In . SVG Version: 6.00 Build 0)  -->
<svg version="1.1" x="0px" height="50px" id="Capa_1" xmlns:xlink="http://www.w3.org/1999/xlink" width="130px" xml:space="preserve" xmlns:x="http://ns.adobe.com/Extensibility/1.0/" xmlns:graph="http://ns.adobe.com/Graphs/1.0/" style="enable-background:new 0 0 130 50;" xmlns:i="http://ns.adobe.com/AdobeIllustrator/10.0/" viewBox="0 0 130 50" y="0px" xmlns="http://www.w3.org/2000/svg">
 <style type="text/css">&#xd;
	.st0{fill:#828282;}&#xd;
	.st1{fill:#333333;}&#xd;
	.st2{fill:#FEFEFE;}&#xd;
	.st3{enable-background:new    ;}&#xd;
	.st4{fill:#FFFFFF;}&#xd;
</style>
 <metadata>
  <sfw xmlns="http://ns.adobe.com/SaveForWeb/1.0/">
   <slices/>
   <sliceSourceBounds x="0" bottomLeftOrigin="true" height="50" width="129.9" y="112.8"/>
  </sfw>
 </metadata>
 <g id="Capa_1_00000138541779206760670920000006500182483304967340_">
  <g id="Fondos"/>
  <g id="Para_Botones_Botones_xA0_Imagen_00000085965584236556756730000001563763528198841479_"/>
  <g>
   <path d="M121.5,50H8.5C3.8,50,0,46.2,0,41.5v-33C0,3.8,3.8,0,8.5,0h112.9c4.7,0,8.5,3.8,8.5,8.5v33C130,46.2,126.2,50,121.5,50z"/>
   <path d="M10.7,17.5c-1.6,0.7,4.4,8.1,5.5,8.9c1.1,1,0.3,5.7,0.5,7.3c-0.5,3-1.5,1.7-3.1,2.9c-2.2,2.9,8,3.1,7.6,0.8&#xd;&#xa;&#x9;&#x9;&#x9;c-0.3-0.1-0.2,0.6-0.6,0.3c-0.4-0.4,0.7-1.3-0.2-1.4c-0.5-0.1-0.9-0.4-1.4-0.4c-0.2,0-0.4-0.2-0.4-0.4c-0.9-1.4-0.6-3.1-0.7-4.7&#xd;&#xa;&#x9;&#x9;&#x9;c0-0.5,0.2-0.7,0.6-0.5c1.4,0.5,2.9,0.6,4.3,0.4c0.3,0,0.4,0.1,0.6,0.3c1.5,2.9,10.1,3.3,10.5-0.5c0.2-4.3,0.1-8.6,0.4-12.9&#xd;&#xa;&#x9;&#x9;&#x9;c-0.1-0.7-0.1-1.4-0.6-2c-0.6-2.2-2.2-1.6-3.9-2.2c0.9-0.2,2,0.2,2.9,0.5c0.5,0.2,0.9,0.5,1,1.2c0.1,0.5,0.5,0.8,0.7,1.3&#xd;&#xa;&#x9;&#x9;&#x9;c0.5,4.7-0.1,9.5-0.2,14.2c-0.5,3-4.8,2.9-7.2,2.7c-1.4-0.1-3-1-3.8-2.2c-0.1-0.2-0.3-0.2-0.5-0.2c-1.4,0-2.9,0.1-4.3-0.4&#xd;&#xa;&#x9;&#x9;&#x9;c-0.3-0.1-0.3,0-0.3,0.2c0.1,1.7-0.8,4.7,1.6,5c0.9,0.1,2.1,1,1.6,2c-0.6,2-8.5,2-8.6-0.3c-0.1-1,1-1.5,1.8-1.7&#xd;&#xa;&#x9;&#x9;&#x9;c1.1-0.1,1.5-0.8,1.6-1.8c0.1-2.2,0-4.5,0-6.7c0-0.2,0-0.5-0.2-0.6c-2.5-2.1-4.2-5.1-5.9-8c-1.3-2.3,3.7-2.1,5-2.2&#xd;&#xa;&#x9;&#x9;&#x9;c0.8,0,0.8,0,0.8-0.8c-0.2-1.4,0.6-2.5,1-3.6c0.6-0.8,2.1-1.3,3.1-1.1c-1.2,0.4-2.9,0.3-3.1,1.9c-1.3,2.1-0.5,1.8-0.9,3.8&#xd;&#xa;&#x9;&#x9;&#x9;c-0.1,0-0.2,0.1-0.3,0.2c-0.9,0.1-3.1-0.2-3.7,0.3c-0.3,0-1-0.1-1.1,0.2C10.8,17.4,10.7,17.4,10.7,17.5z" class="st0"/>
   <path d="M27.6,13.4c-2,0.3-0.2-1.7-3.1-2.1c-0.6-0.1-1.1-0.1-1.7-0.4c0.3-0.2,0.7-0.1,1,0c0.9,0.2,2.1,0.2,2.6,1.1&#xd;&#xa;&#x9;&#x9;&#x9;C26.6,12.7,27,13.1,27.6,13.4z" class="st0"/>
   <path d="M112.2,26.5c1.1,0,1.2-1.7,0-1.7C111.2,24.7,111.2,26.4,112.2,26.5z" class="st0"/>
   <path d="M111.4,23.1c0,1.1,1.7,1,1.7,0C113.1,21.9,111.4,22,111.4,23.1z" class="st0"/>
   <path d="M111.4,28.1c0,1.1,1.6,1.1,1.7,0C113.1,27.1,111.4,27,111.4,28.1z" class="st0"/>
   <path d="M26.4,13.7c0.5,1,6.7-0.9,6.8,1.9c-1-0.4-0.2,0.5-1.4,1c0.1,0.2,0.3,0.1,0.4,0.2c-0.2,0.4-0.7,0.3-1,0.4&#xd;&#xa;&#x9;&#x9;&#x9;c-1.7,0.5-3.3,0.1-5-0.1c-0.2,0-0.3-0.1-0.4-0.3c0.4-0.2,0.4-0.6,0.2-0.9c0.4-0.3-0.2-0.6,0.1-0.9c-0.2,0.3-0.9,0.2-0.7,0.8&#xd;&#xa;&#x9;&#x9;&#x9;c-0.7,0.3-0.2-0.4-0.4-0.4c-0.2,0-0.4,0.1-0.7,0.1c-0.2-0.3,0.1-0.5,0.1-0.7c-0.5-0.2-0.8,0.2-1.2,0.2c-1.3,0-4.5,0.1-5.3-0.9&#xd;&#xa;&#x9;&#x9;&#x9;c0.1-0.1,0.6,0,0.2-0.4c-0.3-0.4-0.6-0.8-0.9-1.2c0.6-1.4,2.6-1,3.8-1c1.1-0.1,5.1-0.3,4.8,1.5c-0.8-0.2,0,0.5-1.4,1.1&#xd;&#xa;&#x9;&#x9;&#x9;C25.5,14.8,24.9,13.9,26.4,13.7z M27.8,16.8c1.2-0.3,2.4,0.2,3.6-0.3c-1.3,0-2.5,0-3.6,0c-0.2,0-0.3,0-0.3,0.3&#xd;&#xa;&#x9;&#x9;&#x9;c-0.4,0-0.7,0-1.1,0.1C26.8,16.9,27.3,17.2,27.8,16.8z M28.2,15.7c-0.8,0.3-0.3-0.8-0.8-0.8c-0.3,0-0.9,0.2-0.8,0.6&#xd;&#xa;&#x9;&#x9;&#x9;c0.4,0.1,0.5,0.5,0.9,0.5c1.5,0.1,3,0.3,4.4-0.1c0.9-0.2,0.2-1-0.5-0.5c-0.1-1.7-2.2-0.2-3.1-0.5c-0.4-0.1-0.7,0.4-0.3,0.6&#xd;&#xa;&#x9;&#x9;&#x9;C28.1,15.6,28.2,15.6,28.2,15.7z M24.2,13c0-0.8-0.1-0.9-0.9-0.9c-0.3,0-0.6,0-0.9,0.1c-0.6,0.4-1.3-0.1-1.8,0.3&#xd;&#xa;&#x9;&#x9;&#x9;c-0.3-0.3-1.4-0.1-1.1,0.4c0.3,0.2,0.5,0.6,0.9,0.6c1.5,0,3.4,0.4,4.8-0.4C25.2,12.7,24.5,12.8,24.2,13z M24.2,14.1&#xd;&#xa;&#x9;&#x9;&#x9;c-1.5,0-3,0-4.5,0C21.2,14.4,22.7,14.4,24.2,14.1z M18.8,13.4c0.8,0-0.2-0.4,0.3-0.7c0.1,0,0.1-0.1,0-0.2&#xd;&#xa;&#x9;&#x9;&#x9;c-0.2-0.1-0.4,0.1-0.6,0.2C18,12.9,18.3,13.5,18.8,13.4z" class="st0"/>
   <path d="M17.9,26c-0.1,0-0.1,0-0.2,0c-0.3-0.4-0.6-0.4-0.9,0.1c0.3,0.1,0.6,0.1,0.9,0.2c0,0.6-0.5,1.3,0.1,1.8&#xd;&#xa;&#x9;&#x9;&#x9;c0.1,0.1,0.1,0.2,0.3,0.1v0.1c-0.1,0.1-0.2,0.2-0.2,0.3c-0.5,0.1-0.3,0.4-0.2,0.7c0,1.8-0.1,3.5,0.1,5.3c-0.2-0.3-0.4-0.6-0.8-0.3&#xd;&#xa;&#x9;&#x9;&#x9;c0-2.2,0.1-4.4,0-6.7c0.1-1.9-0.9-1.2-1.5-2.5c0.1,0,0.2-0.1,0.3-0.1c0.5,0.4,1.1,0.5,1.7,0.2c0.3-0.1,0.1-0.6,0.1-0.8&#xd;&#xa;&#x9;&#x9;&#x9;c0-0.6-0.2-0.7-0.7-0.4c-0.4,0.2-0.8,0.5-1.3,0.5c-0.2,0-0.4,0-0.3-0.3c0.5-0.2,2.4-0.7,2.2-1.5c-0.2-0.5,0.2-1.1,0.7-1.2&#xd;&#xa;&#x9;&#x9;&#x9;c-0.1,0.1-0.1,0.3-0.1,0.4c-0.7,0.3,0.1,1.1-0.6,1.5c0.2,0,0.4-0.1,0.6-0.2c0.1,0.1,0.2,0.1,0.3,0.2c0,0.2,0.5,0.2,0.3,0.6&#xd;&#xa;&#x9;&#x9;&#x9;c-0.2,0.6-0.3,1.2-0.4,1.8c0,0,0,0,0,0.1C18.1,25.8,17.9,25.8,17.9,26z" class="st0"/>
   <path d="M24.1,28.2c0.4,1,0.2,1.9,0.4,2.9c0.2-1.5,1.8,1,5.9,0.4c2.5-0.2,2-1.3,3.1-0.7c0.1,0.8-1.1,1.5-1.8,1.6&#xd;&#xa;&#x9;&#x9;&#x9;c0.2-0.3-0.2-0.3-0.3-0.4c0.1-0.3,0.7-0.1,1.2-0.7c-0.7-0.1-1.1,0.5-1.8,0.5c-1.7,0.2-3.4,0.2-5-0.5c-0.2-0.1-0.6-0.4-0.7-0.2&#xd;&#xa;&#x9;&#x9;&#x9;c-0.1,0.4,0.4,0.4,0.6,0.7c0.8,0.3,1.8,0.3,2.6,0.5c1,0.2,1.9-0.3,2.9-0.2c-0.1,0.2-0.4,0-0.5,0.2c0.2,0.2,0.6-0.1,0.8,0.1&#xd;&#xa;&#x9;&#x9;&#x9;c-0.4,0.3-0.8,0.4-1.3,0.3c0-0.1,0.3-0.1,0.3-0.3c-1,0-2,0-2.9,0c-0.3-0.1-0.3,0.1-0.1,0.3c-1.2,0-2.3-0.4-3.1-1.4&#xd;&#xa;&#x9;&#x9;&#x9;c-0.2-0.3-0.1-0.7-0.2-1C24.1,29.6,23.9,28.9,24.1,28.2z M33.2,31C33,31.1,33,31.2,33,31.3C33.2,31.5,33.3,31.2,33.2,31z" class="st0"/>
   <path d="M18.8,36.7c0.3,0.1,0.5-0.3,0.9-0.1c0.2,0.1,0.5,0.3,0.3,0.6c-0.2,0.4-0.6-0.3-0.9-0.1&#xd;&#xa;&#x9;&#x9;&#x9;c-0.1,0.1-0.1,0.2,0,0.2c0.1,0.4,0.5,0.2,0.8,0.3c0.4,0,0.4,0.6,0,0.6c-0.8,0.1-3.4,0.7-3.8,0.1c0.3-0.2,0.7,0.2,1-0.2&#xd;&#xa;&#x9;&#x9;&#x9;c-0.6-0.3-1.1,0-1.9-0.4c0.1-0.3-0.6-0.5-0.1-0.8c0.2-0.1,0.2-0.5,0.6-0.5c0.4,0-0.1-0.7,0.6-0.8c0.1,0.1-0.2,0.3,0.1,0.4&#xd;&#xa;&#x9;&#x9;&#x9;c0.1,0.2,0.3,0.2,0.5,0.1c0.3-0.1,0.2-0.4,0.2-0.6c0.2,0,0.2-0.2,0.3-0.3c0.7-0.2,0.7,0.7,1,1c-0.2,0-0.7,0.2-0.6,0.5&#xd;&#xa;&#x9;&#x9;&#x9;C18.1,37.1,18.8,37.2,18.8,36.7z M17.3,37c1-0.3-0.5-1-1-0.3c-1-0.2-1.5,0.8-0.5,0.6C16.3,37,17.4,37.9,17.3,37z" class="st0"/>
   <path d="M33.5,29.7c-0.3-4.2,0.5-8.5,0.2-12.8c-0.3,0.2-0.3,0.5-0.3,0.8c-0.2-0.9-2.2,1-3.7,0.6&#xd;&#xa;&#x9;&#x9;&#x9;c0.6-0.5,3.7-0.5,3.4-1.7c-0.2-0.4-0.5,0.1-0.8,0.1c0-0.3,0.3-0.3,0.4-0.4c0.3-0.2,0.6,0.1,0.9,0c0.2,0.3,0.3,0.6,0.3,0.9&#xd;&#xa;&#x9;&#x9;&#x9;c0,3,0,6-0.1,8.9c0,1.1-0.1,2.2-0.2,3.3C33.6,29.5,33.6,29.6,33.5,29.7z" class="st0"/>
   <path d="M22.5,18c0.1,0,0.2-0.1,0.2-0.2c-0.2-0.4-1.3-0.1-1.8-0.3c-1.3-0.1-2.6-0.3-3.9-0.3c-0.9,0.2-0.4-1.6-0.6-2.1&#xd;&#xa;&#x9;&#x9;&#x9;c0-0.2-0.1-0.5,0.1-0.6h0.1c0,0.7,0,1.3,0,2c0,0.4,0.1,0.5,0.5,0.5c1.8,0.1,3.5,0,5.2,0.4c0.5,0.1,0.6-0.1,0.6-0.5&#xd;&#xa;&#x9;&#x9;&#x9;c0-0.3,0.2-0.6,0.1-0.8c-0.1-0.2-0.5,0-0.8-0.1c0.3-0.2,0.7-0.3,1-0.2c0.6,0.3-0.7,1.8,0.3,1.6c-0.1,0.2-0.1,0.4,0,0.5&#xd;&#xa;&#x9;&#x9;&#x9;c-0.9,0.3-1.3,1.4-2.3,1.5c-0.1-0.1,0.3-0.2,0.1-0.4c0-0.2,0.1-0.2,0.2-0.3c0.3,0,0.4-0.3,0.6-0.4C22.4,18.2,22.5,18.1,22.5,18z" class="st0"/>
   <path d="M23.7,17.8c-0.1-0.4,0.1-0.7,0.1-1.1c0.5-0.3,0.3-0.9,0.6-1.3c0.2,0,0.4-0.1,0.7-0.1c0.2,0.1-0.3,0.8,0.4,0.4&#xd;&#xa;&#x9;&#x9;&#x9;c0.2,0,0.4,0,0.6,0c0.5,1-0.4,1-1.2,1c-0.1-0.1-0.2-0.4-0.5-0.3c-0.2,0.1,0,0.3,0,0.5c0,0.1,0.1,0.3,0.1,0.4&#xd;&#xa;&#x9;&#x9;&#x9;c-0.5,0.4-0.7,0.9-0.5,1.6c0.1,1.2,0.1,2.4,0,3.6c-0.1,0-0.1,0-0.2-0.1c0-0.3,0-0.6,0-0.9c0.2-0.3,0.1-0.6,0-0.9c0-0.5,0-1,0-1.5&#xd;&#xa;&#x9;&#x9;&#x9;c0.2-0.3-0.3-0.5-0.2-0.8C23.7,18.3,24.2,18.2,23.7,17.8z" class="st1"/>
   <path d="M17.6,29.4c0-0.3-0.3-0.6,0.2-0.7c0.4,0.7,1.1,0.9,1.9,1c0.1,0.1,0.1,0.2,0.2,0c0.1,0,0.1,0,0.2,0&#xd;&#xa;&#x9;&#x9;&#x9;c0.1,0.3,0.4,0.1,0.7,0.1c0.1,0.2,0.2,0.1,0.4,0c0.6-0.1,1.2,0.1,1.8,0.1c0.2,0,0.4,0,0.4,0.3c-1.2,0.1-2.3,0.1-3.5,0&#xd;&#xa;&#x9;&#x9;&#x9;c-0.1-0.2-0.3-0.3-0.5-0.2C18.7,30.1,18.2,29.6,17.6,29.4z" class="st1"/>
   <path d="M15.8,25c-0.1,0-0.2,0.1-0.3,0.1c-0.8-0.6-1.3-1.5-1.9-2.3c-0.3-0.5-0.8-0.9-1-1.5c0.1-0.1,0.2-0.2,0.2-0.4&#xd;&#xa;&#x9;&#x9;&#x9;c0.7,1.1,1.6,2.1,2.4,3.1c0,0.3,0.1,0.3,0.3,0.3C15.5,24.7,15.8,24.8,15.8,25z" class="st1"/>
   <path d="M18.4,28.5c1.4,0.4,2.9,0.8,4.4,0.7c1.3,0,0.3-1.6,0.7-2.4c0.3,0.2,0.1,1.5,0.2,1.9c0,0.4-0.2,0.7-0.7,0.7&#xd;&#xa;&#x9;&#x9;&#x9;C21.8,29.4,19.3,29.5,18.4,28.5z" class="st0"/>
   <path d="M23.6,18.6c-0.1,0.3,0.4,0.5,0.2,0.8c-0.5-0.1-0.3,0.3-0.3,0.4c-0.1,1.6,0.1,3.2,0,4.7&#xd;&#xa;&#x9;&#x9;&#x9;c-0.2-0.1-0.1-0.4-0.1-0.5c0-1.3-0.1-2.6-0.2-4c0-0.1,0.1-0.4-0.2-0.3h-0.1C22.9,19.2,23.2,18.8,23.6,18.6z" class="st0"/>
   <path d="M12.9,21.1c-0.1,0.1-0.2,0.2-0.2,0.4c-0.8-1.1-1.6-2.1-2.1-3.4c0.4,0.1,0.5,0.2,0.7,0.4c0,0,0,0,0,0.1&#xd;&#xa;&#x9;&#x9;&#x9;C11.7,19.4,12.6,20.1,12.9,21.1z" class="st0"/>
   <path d="M15.3,37.7c0.4,0.1,0.8,0.4,1.2,0.3c0.2,0,0.4,0,0.6,0.1c-0.3,0.4-0.7,0-1,0.2c-0.4,0-0.8,0-1.2-0.1&#xd;&#xa;&#x9;&#x9;&#x9;c-0.1-0.2-0.3-0.3-0.5-0.5C14.8,37.7,15,37.6,15.3,37.7z" class="st1"/>
   <path d="M17.4,12.6c0.3,0.4,0.5,0.8,0.9,1.2s-0.1,0.2-0.2,0.4c-0.1,0-0.1-0.1-0.2-0.1c-0.2-0.4-0.4-0.3-0.6,0&#xd;&#xa;&#x9;&#x9;&#x9;c-0.1,0.3-0.2,0.5-0.6,0.4c0-0.1,0-0.2,0-0.3C17.2,13.7,17.3,13.1,17.4,12.6z" class="st1"/>
   <path d="M33.6,16.3c-0.3,0.1-0.6-0.2-0.9,0c-0.2,0.1-0.4,0.2-0.4,0.4c-0.1,0-0.1,0-0.2,0.1c-0.1-0.1-0.3,0-0.4-0.2&#xd;&#xa;&#x9;&#x9;&#x9;c1.2-0.5,0.4-1.4,1.4-1C33.3,15.9,33.6,16,33.6,16.3z" class="st1"/>
   <path d="M27.5,32.7c-0.2-0.2-0.2-0.3,0.1-0.3c1,0,1.9,0,2.9,0c0,0.2-0.2,0.1-0.3,0.3c-0.7,0.1-1.4-0.2-2.1,0&#xd;&#xa;&#x9;&#x9;&#x9;C27.9,32.8,27.7,32.7,27.5,32.7z" class="st1"/>
   <path d="M26.4,13.7c-1.5,0.2-0.8,1.1-1.8,0.5c1.3-0.6,0.6-1.4,1.4-1.1C26.2,13.2,26.3,13.4,26.4,13.7z" class="st1"/>
   <path d="M18.8,36.7c0,0.5-0.7,0.4-0.8,0c-0.1-0.3,0.3-0.6,0.6-0.5C18.5,36.9,18.7,36.4,18.8,36.7z" class="st1"/>
   <path d="M14.5,37.7c0.1,0.2,0.3,0.3,0.5,0.5c-0.5,0-1.1-0.3-1.3-0.8C14,37.5,14.3,37.6,14.5,37.7z" class="st0"/>
   <path d="M23.4,30.2c-0.1-0.6-0.8-0.1-1.1-0.3c0.3-0.1,1.4-0.5,1.5,0C23.7,30.1,23.7,30.3,23.4,30.2z" class="st0"/>
   <path d="M23.8,22.6c0.1,0,0.1,0,0.2,0.1c0,0.4,0.1,0.9-0.1,1.3C23.6,23.5,23.8,23.1,23.8,22.6z" class="st0"/>
   <path d="M28.1,32.8c0.5-0.1,0.9-0.1,1.4,0C29,33,28.5,33,28.1,32.8z" class="st0"/>
   <path d="M17.3,13c0,0.4-0.2,0.8-0.6,1.1C16.8,13.7,17,13.3,17.3,13z" class="st0"/>
   <path d="M31.5,32.5c-0.2-0.2-0.6,0-0.8-0.1c0.1-0.2,0.4,0,0.5-0.2c0.1,0,0.1,0,0.2-0.1c0.1,0.1,0.5,0.1,0.3,0.4&#xd;&#xa;&#x9;&#x9;&#x9;C31.6,32.5,31.6,32.5,31.5,32.5z" class="st1"/>
   <path d="M17.5,35.2c0-0.3,0-0.6,0-0.8c0.2,0.2,0.3,0.5,0.4,0.8C17.7,35.2,17.6,35.2,17.5,35.2z" class="st1"/>
   <path d="M23.8,20.8c0.2,0.3,0.2,0.6,0,0.9C23.6,21.4,23.7,21.1,23.8,20.8z" class="st0"/>
   <path d="M24,25.5c0.1,0.3,0.1,0.6,0,0.9C23.8,26.1,23.9,25.8,24,25.5z" class="st0"/>
   <path d="M19.1,29.6c-0.3-0.1-0.6-0.1-0.8-0.4C18.6,29.3,19,29.2,19.1,29.6z" class="st0"/>
   <path d="M16.9,34.6c0,0.3,0.2,0.6-0.3,0.7C16.7,35,16.7,34.7,16.9,34.6z" class="st0"/>
   <path d="M19.4,30c0.2-0.1,0.4,0,0.5,0.2C19.7,30.3,19.5,30.3,19.4,30z" class="st0"/>
   <path d="M20.5,29.9c-0.2,0.1-0.3,0.1-0.4-0.1C20.3,29.6,20.5,29.6,20.5,29.9z" class="st0"/>
   <path d="M21.2,29.9c-0.1,0.1-0.3,0.1-0.4,0C21,29.7,21.1,29.8,21.2,29.9z" class="st0"/>
   <path d="M10.7,17.5c0.1-0.1,0.1-0.1,0.2-0.1C10.9,17.6,10.8,17.7,10.7,17.5z" class="st2"/>
   <path d="M20,29.7c-0.1,0.1-0.2,0.1-0.2,0S19.9,29.6,20,29.7z" class="st0"/>
   <path d="M16.6,35.2c0,0.2,0,0.3-0.2,0.2C16.5,35.3,16.5,35.2,16.6,35.2z" class="st0"/>
   <path d="M18.7,36.6c-0.1,0-0.1,0-0.1-0.1C18.6,36.6,18.6,36.6,18.7,36.6z" class="st0"/>
   <path d="M24.9,16.8c-0.8,0.9,2.5,1.1,2.7,1.5c-1.1,0.2-2-0.4-3-0.8c0-0.1-0.1-0.3-0.1-0.4c0-0.2-0.2-0.4,0-0.5&#xd;&#xa;&#x9;&#x9;&#x9;C24.6,16.4,24.7,16.7,24.9,16.8z" class="st0"/>
   <path d="M28.1,18.3c0.4-0.1,0.8-0.1,1.3,0C28.9,18.5,28.5,18.5,28.1,18.3z" class="st0"/>
   <path d="M28.2,15.7c0-0.1-0.1-0.2-0.1-0.2c-0.4-0.2-0.1-0.8,0.3-0.6c1,0.4,3-1.2,3.1,0.5c-0.6,0.5-1.5,0.2-2.3,0.2&#xd;&#xa;&#x9;&#x9;&#x9;c-0.2,0-0.4-0.2-0.6,0C28.5,15.7,28.3,15.7,28.2,15.7z" class="st1"/>
   <path d="M21.7,13.2c-0.1,0-0.3-0.1-0.4,0c-0.2-0.1-0.3-0.1-0.5,0c-0.2-0.1-0.1-0.4-0.1-0.6c0.5-0.4,1.3,0.1,1.8-0.3&#xd;&#xa;&#x9;&#x9;&#x9;c0.3-0.1,0.6-0.1,0.9-0.1c0.8,0,0.9,0.1,0.9,0.9c-0.1,0-0.2,0.1-0.3,0.1c-0.2-0.1-0.4,0-0.6,0.2c-0.4,0-0.8-0.1-1.2-0.1&#xd;&#xa;&#x9;&#x9;&#x9;C22.1,13.1,21.9,13.1,21.7,13.2z M22.4,12.6c-0.5-0.1-0.4,0.5,0.1,0.4C23,13.1,22.9,12.5,22.4,12.6z" class="st1"/>
   <path d="M27.5,16.8c0.1,0,0.2,0,0.3,0c-0.4,0.4-0.9,0.1-1.4,0.1C26.7,16.8,27.1,16.9,27.5,16.8z" class="st1"/>
   <path d="M22.7,19.6h0.1c-0.1,0.3-0.1,0.6-0.1,0.9c-0.8-0.1-0.1,0.6-0.6,0.8c0-0.3-0.1-0.6-0.4-0.7&#xd;&#xa;&#x9;&#x9;&#x9;c-0.2,0.3,0,0.5,0.2,0.7c0,0.2,0,0.4-0.1,0.5c-0.9,1.1-1.6,2.2-2.5,3.3c-0.3,0.4-0.6,0.6-1,0.5c0.1-0.6,0.1-1.2,0.4-1.8&#xd;&#xa;&#x9;&#x9;&#x9;c0.1-0.4-0.3-0.4-0.3-0.6c1,0.2,1.3,0.6,1.7-0.5c0.2-0.8,1.1-1.2,1-1.8c-0.5,0.6-1.1,0.8-1.8,0.4c0.5-0.7-0.5-0.2-0.4-0.6&#xd;&#xa;&#x9;&#x9;&#x9;c0.4-0.1,0.8-0.3,1.3-0.2c0.1,0,0.3,0,0.3-0.2C21.4,20.4,22.3,20.6,22.7,19.6z" class="st1"/>
   <path d="M17.6,26.4c-0.3-0.1-0.6-0.1-0.9-0.2C17.2,25.3,17.9,25.9,17.6,26.4z" class="st1"/>
   <path d="M17.7,28.1c-0.4-0.4-0.2-0.9-0.1-1.4C17.8,27.1,17.7,27.6,17.7,28.1z" class="st1"/>
   <path d="M21.9,21.4c-0.1-0.2-0.4-0.4-0.2-0.7c0.3,0.1,0.4,0.4,0.4,0.7C22,21.4,22,21.4,21.9,21.4z" class="st0"/>
   <path d="M17.9,26c0.1-0.2,0.2-0.2,0.3-0.2C18.2,26.1,18.1,26.1,17.9,26z" class="st1"/>
   <path d="M18.1,28.3c-0.1,0-0.2,0-0.3-0.1C17.9,28.1,18,28.1,18.1,28.3z" class="st1"/>
   <path d="M18,22c0.1,0.4,0.1,0.9,0,1.3c-0.2,0.1-0.4,0.2-0.6,0.2C18.1,23.1,17.3,22.2,18,22z" class="st1"/>
   <path d="M18.8,21.5c-0.1,0.4-0.5,0.3-0.8,0.4c0.1-0.1,0.1-0.3,0.2-0.4C18.4,21.7,18.6,21.4,18.8,21.5z" class="st1"/>
   <path d="M17.3,37c0.1,0.9-1,0-1.5,0.3c-1,0.1-0.4-0.9,0.6-0.6c0.1,0.4,0.3,0.3,0.5,0.2C17.1,37,17.2,37,17.3,37z" class="st1"/>
   <path d="M16.5,36c0.5,0.2,0.4-0.4,0.7-0.5c0,0.2,0.1,0.5-0.2,0.6C16.8,36.3,16.6,36.2,16.5,36z" class="st1"/>
   <path d="M21.3,19.3c0,0.1,0,0.1,0,0.2c-0.1,0.1-0.1,0.2-0.1,0.3c-0.9,0-0.6-1.1,0.2-0.9&#xd;&#xa;&#x9;&#x9;&#x9;C21.6,19.1,21.3,19.2,21.3,19.3z" class="st1"/>
   <path d="M23.8,16.8c0-0.4,0.2-0.6,0.4-0.9C24.2,16.2,24.2,16.6,23.8,16.8z" class="st0"/>
   <path d="M20.4,15.8C19.1,16.2,18.2,15,17,15c0-0.2,0-0.4,0-0.6c0.2-0.1,0.2-0.3,0.3-0.4c0.2-0.3,0.4-0.4,0.6,0&#xd;&#xa;&#x9;&#x9;&#x9;c-0.6-0.1-0.7,0.6-0.2,0.9c0.7,0.4,1.6,0.7,2.4,0.8C20.2,15.7,20.3,15.7,20.4,15.8z" class="st0"/>
   <path d="M22.2,15.9c-0.1,0.1-0.2,0.1-0.3,0C22,15.7,22.1,15.7,22.2,15.9z" class="st0"/>
   <path d="M23.4,13.4c0.1-0.2,0.3-0.3,0.6-0.2C23.8,13.4,23.7,13.6,23.4,13.4z" class="st0"/>
   <path d="M21.7,13.2c0.2-0.1,0.4-0.1,0.5,0.1C22,13.4,21.9,13.4,21.7,13.2z" class="st0"/>
   <path d="M20.8,13.2c0.2-0.1,0.4-0.1,0.5,0C21.1,13.5,20.9,13.4,20.8,13.2z" class="st0"/>
   <path d="M31.1,15.6c-0.5,0.5-1.8,0.3-2.5,0c0.2-0.3,0.4-0.1,0.6,0C29.8,15.6,30.4,15.7,31.1,15.6z" class="st0"/>
   <path d="M18.8,21.5c-0.2-0.1-0.4,0.2-0.6,0c0.1-0.2,0.1-0.4-0.2-0.4c-0.9,0-1.7-0.5-2.6-0.4c-0.1-0.4-1.7-1.8-0.6-1.8&#xd;&#xa;&#x9;&#x9;&#x9;c1.9,0,3.7-0.1,5.6,0.1c-0.3,0.4-0.8,0-1,0.4c0.7,0.5,0.6,0.6-0.3,0.9c0.5,0.1,1-0.1,1.4,0.1c0,0.2-0.2,0.2-0.3,0.2&#xd;&#xa;&#x9;&#x9;&#x9;c-0.5-0.1-0.9,0.2-1.3,0.2c-0.1,0.4,0.9-0.1,0.4,0.6C19.1,21.4,19,21.5,18.8,21.5z" class="st0"/>
   <path d="M21.2,19.8c0-0.1,0-0.2,0.1-0.3c0.3,0.2,0.5,0.5,0.8,0.8c-0.2,0-0.5,0.1-0.7,0.1C21.4,20.2,21.2,20,21.2,19.8&#xd;&#xa;&#x9;&#x9;&#x9;z" class="st0"/>
   <path d="M16.4,36.7c0.2-0.1,0.4,0.1,0.5,0.2C16.7,37.1,16.5,37.1,16.4,36.7z" class="st0"/>
   <path d="M17,15c0.1,0,0.2,0,0.3,0C17.4,15.3,16.9,15.3,17,15z" class="st1"/>
   <path d="M33.3,14.8c-0.8-1.3-4.4-1.3-5.8-1.3c-2,0.3-0.3-1.7-3.2-2.1c-4.6-1-8.6-0.5-8.3,5.1c0.1,0,0.1,0,0.1,0.1H16&#xd;&#xa;&#x9;&#x9;&#x9;c0.1-0.1,0,0,0,0.1c0,0,0,0,0-0.1c-0.1,0-0.2,0.1-0.3,0.2h0.1c-1.1-0.1-2.2,0-3.2,0.1l0,0c-0.2,0-0.5,0-0.6,0.3c0.1,0,0.1,0,0.2,0&#xd;&#xa;&#x9;&#x9;&#x9;c-0.3,0-0.7-0.1-1,0l0,0l0,0c-0.4-0.1-0.3,0.7-0.6,0.3c-1.6,0.7,4.4,8.1,5.6,8.9c1.1,1.1,0.3,5.6,0.5,7.3c-0.5,3-1.5,1.7-3.1,2.9&#xd;&#xa;&#x9;&#x9;&#x9;c-2.3,2.9,8,3.1,7.6,0.8c-0.3-0.1-0.2,0.6-0.6,0.3c-0.4-0.4,0.7-1.3-0.2-1.4c-0.5-0.1-0.9-0.4-1.4-0.4c-0.2,0-0.4-0.2-0.4-0.4&#xd;&#xa;&#x9;&#x9;&#x9;c-0.9-1.4-0.6-3.1-0.7-4.7c0-0.5,0.2-0.7,0.6-0.5c1.4,0.5,2.9,0.6,4.3,0.4c0.3,0,0.4,0.1,0.6,0.3c1.2,1.9,3.6,2.3,5.7,2.2&#xd;&#xa;&#x9;&#x9;&#x9;c1.8-0.1,4.7-0.4,4.8-2.7c0.2-4.3,0.1-8.6,0.4-12.9c-0.1-0.7-0.1-1.4-0.6-2C33.4,15.4,33.5,15,33.3,14.8z M11.3,17.3&#xd;&#xa;&#x9;&#x9;&#x9;c0.1,0.1,0.1,0.1,0.1,0.2C11.4,17.5,11.3,17.4,11.3,17.3z M11.4,17.6L11.4,17.6L11.4,17.6z M33.8,26.2c0,1.1-0.1,2.2-0.2,3.3&#xd;&#xa;&#x9;&#x9;&#x9;c0,0.1,0,0.2-0.1,0.2c-0.1,0.8,0.2,1.8-0.6,2.2c-1,0.8-2.2,1-3.4,0.9c-0.7,0.3-1.3-0.1-2,0c-1.2,0-2.3-0.4-3.1-1.4&#xd;&#xa;&#x9;&#x9;&#x9;c-0.6-1.6-0.2-3.3-0.3-5c-0.2-0.3-0.2-0.6,0-0.9c0-0.5,0-1-0.1-1.5c-0.4-0.4-0.2-0.9-0.1-1.3c0-0.3,0-0.6,0-0.9&#xd;&#xa;&#x9;&#x9;&#x9;c-0.1-0.3-0.1-0.6,0-0.9c0-0.5,0-1,0-1.5c-0.5-0.1-0.3,0.3-0.3,0.4c0,2.3,0,4.7,0,7c0.3,0.1,0.1,1.5,0.2,1.9&#xd;&#xa;&#x9;&#x9;&#x9;c0,0.4-0.2,0.7-0.7,0.7c-1.5,0.1-3.9,0-5-1c-0.1,0.1-0.2,0.2-0.2,0.3c0.3,0.7,1,0.4,1.3,0.9c0.2,0,0.4,0.1,0.6,0.1&#xd;&#xa;&#x9;&#x9;&#x9;c0.1-0.1,0.2-0.1,0.2,0c0.1,0,0.1,0,0.2,0c0.2-0.1,0.3-0.1,0.4,0.1c0.1,0,0.2,0,0.3,0c0.1-0.2,0.3-0.1,0.4,0c0.4,0,0.7,0,1.1,0&#xd;&#xa;&#x9;&#x9;&#x9;c0.3-0.1,1.4-0.5,1.5,0c0,0.2,0,0.4-0.3,0.4c-0.6,0-3.8,0.3-4-0.2c-0.7,0-1.2-0.5-1.8-0.7c0,1.8-0.1,3.5,0.1,5.3&#xd;&#xa;&#x9;&#x9;&#x9;C18,34.7,18,35,18,35.1c0.4,0.2,0.4,0.7,0.7,1c0,0.1,0,0.2,0,0.3l0.1,0.1c0.1,0,0.1,0,0.1,0.1c0.3,0.1,0.5-0.3,0.9-0.1&#xd;&#xa;&#x9;&#x9;&#x9;c0.2,0.1,0.5,0.3,0.3,0.6c-0.2,0.4-0.6-0.3-0.9-0.1c-0.3,0.9,1.1,0.2,1.1,0.9c0,0.2-0.1,0.2-0.3,0.3c-0.8,0.1-3.4,0.7-3.8,0.1&#xd;&#xa;&#x9;&#x9;&#x9;c-0.9,0-2,0.1-2.4-0.8c0.3,0.1,0.6,0.2,0.8,0.3c0.2-0.1,0.5-0.1,0.7,0c0.1-0.3-0.6-0.5-0.1-0.8c0.2-0.1,0.2-0.5,0.6-0.5&#xd;&#xa;&#x9;&#x9;&#x9;c0.4,0-0.1-0.7,0.6-0.8c0.1-0.1,0-0.4,0.3-0.4c0.1-0.2,0-0.5,0.3-0.7c0.1-2.2,0.1-4.6,0-6.9c0-0.7,0-1.4-0.9-1.8&#xd;&#xa;&#x9;&#x9;&#x9;c-0.3-0.1-0.4-0.5-0.6-0.8c-0.8-0.6-1.3-1.5-1.9-2.3c-0.3-0.5-0.8-0.9-1-1.5c-0.8-1.1-1.5-2.1-2.1-3.4c0.4,0.1,0.5,0.2,0.7,0.4&#xd;&#xa;&#x9;&#x9;&#x9;c0.1-0.2-0.2-0.5-0.2-0.6c0,0.1,0.3,0.4,0.2,0.6c0,0,0,0,0,0.1c0.3-0.2,0.6-0.1,0.9,0c-0.3,0-0.6-0.1-0.9,0.1c1.2,2,2.5,3.9,4,5.7&#xd;&#xa;&#x9;&#x9;&#x9;c0.5-0.2,2.4-0.7,2.2-1.5c-0.2-0.5,0.2-1.1,0.7-1.2c0,0,0,0,0.1-0.1c0.1-0.2,0.1-0.4-0.2-0.4c-0.9,0-1.7-0.5-2.6-0.4&#xd;&#xa;&#x9;&#x9;&#x9;c-0.1-0.3-1.7-1.8-0.6-1.8c1.9,0,3.7-0.1,5.6,0.1c-0.3,0.4-0.8,0-1,0.4c0.7,0.5,0.6,0.6-0.3,0.9c0.8,0,1.6,0.1,2.3,0.1&#xd;&#xa;&#x9;&#x9;&#x9;c0-0.2-0.1-0.4-0.2-0.5c-0.9,0.1-0.6-1.1,0.2-0.9c0-0.2,0.1-0.2,0.2-0.3c-2.6-0.1-5.3,0.1-8,0c2.7,0,5.3,0,8,0&#xd;&#xa;&#x9;&#x9;&#x9;c0.3,0,0.4-0.3,0.6-0.4c0-0.2,0.2-0.3,0.4-0.2c0.1,0,0.2-0.1,0.2-0.2c-0.2-0.4-1.3-0.1-1.8-0.3c-1.3-0.1-2.6-0.3-3.9-0.3&#xd;&#xa;&#x9;&#x9;&#x9;c-0.2,0-0.5,0-0.5-0.3c-0.1,0-0.1,0-0.2-0.1c0,0,0.1,0.1,0.1,0c0.1-0.6-0.2-2,0.1-2.5c0.1-0.5,0.2-1.1,0.6-1.4&#xd;&#xa;&#x9;&#x9;&#x9;c0.2-1.8,2.6-1.4,3.8-1.4c1.1-0.1,5.1-0.3,4.8,1.5c0.5,0.2,0.2,0.9,0.7,0.9c1.9,0,3.9-0.2,5.7,0.4c0.5,0.2,0.7,0.7,0.8,1.2&#xd;&#xa;&#x9;&#x9;&#x9;c0.1,0.3,0.4,0.4,0.5,0.7c0.2,0.3,0.3,0.6,0.3,0.9C33.9,20.2,33.9,23.2,33.8,26.2z" class="st2"/>
   <path d="M32.6,16.7c-1.2,0.9-5.7,1-6.8,0.2c-0.3,0-0.6,0-1,0c-0.8,0.9,2.4,1.1,2.7,1.5c0.7,0,1.4-0.1,2.2,0&#xd;&#xa;&#x9;&#x9;&#x9;c0.6-0.5,3.7-0.5,3.4-1.7C33,16.4,32.8,16.5,32.6,16.7z" class="st2"/>
   <path d="M23.3,15c-1.4,0-4.5,0-5.5-1c-0.6-0.1-0.7,0.6-0.2,0.9c0.7,0.4,1.6,0.7,2.4,0.8c0.1,0,0.3,0,0.4,0.1&#xd;&#xa;&#x9;&#x9;&#x9;c0.5,0,1,0,1.5,0c0.1-0.1,0.2-0.1,0.3,0c0.1,0,0.1,0,0.2,0c0.3-0.2,0.7-0.3,1-0.2c0.6,0.3-0.7,1.8,0.3,1.6c0-0.8,0.4-1.2,0.7-1.8&#xd;&#xa;&#x9;&#x9;&#x9;c-0.2-0.3,0.1-0.5,0.1-0.7C24.1,14.6,23.7,14.9,23.3,15z" class="st2"/>
   <path d="M24.2,13c-0.1,0-0.2,0.1-0.3,0.1c-0.1,0.3-0.3,0.4-0.6,0.2c-0.4,0-0.8-0.1-1.2-0.1c-0.2,0.1-0.4,0.1-0.5-0.1&#xd;&#xa;&#x9;&#x9;&#x9;c-0.5-0.2-0.7,0.5-1,0c-0.2-0.2-0.1-0.4-0.1-0.6c-0.3-0.3-1.4-0.1-1.1,0.4c0.3,0.2,0.5,0.6,0.9,0.6c1.5,0,3.4,0.4,4.8-0.4&#xd;&#xa;&#x9;&#x9;&#x9;C25.2,12.7,24.5,12.8,24.2,13z" class="st2"/>
   <path d="M27.5,16c1.5,0.1,3,0.3,4.4-0.1c0.7-0.1,0.5-0.8-0.1-0.6c-0.3,0-0.4,0.3-0.7,0.3c-0.7,0.8-2.1-0.1-2.9,0.1&#xd;&#xa;&#x9;&#x9;&#x9;c-0.7,0.3-0.3-0.8-0.7-0.8c-0.3,0-0.9,0.2-0.8,0.6C27,15.6,27.1,16,27.5,16z" class="st2"/>
   <path d="M19.7,14.1c1.5,0.2,3,0.2,4.5,0C22.7,14.1,21.2,14.1,19.7,14.1z" class="st2"/>
   <path d="M27.7,16.5c-0.2,0-0.3,0-0.3,0.3c1.3-0.2,2.6,0.2,3.9-0.3C30.1,16.5,28.9,16.6,27.7,16.5z" class="st2"/>
   <path d="M18.8,13.4c0.8,0-0.2-0.4,0.3-0.7c0.1,0,0.1-0.1,0-0.2c-0.2-0.1-0.4,0.1-0.6,0.2C18,12.9,18.3,13.5,18.8,13.4&#xd;&#xa;&#x9;&#x9;&#x9;z" class="st2"/>
   <path d="M26,15.9c0.4-0.3-0.2-0.6,0.1-0.9c-0.2,0.3-0.9,0.2-0.7,0.8C25.7,15.9,25.8,15.9,26,15.9z" class="st2"/>
   <path d="M22.5,18c-0.2,0-0.3,0.1-0.4,0.2C22.4,18.2,22.5,18.1,22.5,18z" class="st2"/>
   <path d="M17.5,24.4c0-1.3-1.3,0.2-2,0c-0.1,0.2,0.2,0.3,0.2,0.6c0.5,0.3,1.1,0.5,1.7,0.2&#xd;&#xa;&#x9;&#x9;&#x9;C17.7,25.2,17.5,24.7,17.5,24.4z" class="st2"/>
   <path d="M30.8,31.8c-1.7,0.2-3.4,0.2-5-0.5c-0.2-0.1-0.6-0.4-0.7-0.2c-0.1,0.4,0.4,0.4,0.6,0.7&#xd;&#xa;&#x9;&#x9;&#x9;c0.8,0.3,1.8,0.3,2.6,0.5c1,0.1,2-0.3,3.1-0.2c0.1-0.4,0.7-0.1,1.2-0.7C31.9,31.1,31.5,31.8,30.8,31.8z" class="st2"/>
   <path d="M16.3,36.7C16.4,36.7,16.4,36.7,16.3,36.7c0.4-0.1,0.6,0.2,1,0.3C18.2,36.8,16.9,36,16.3,36.7z" class="st2"/>
   <path d="M23.7,17.8c-0.9,0.3-1.3,1.4-2.3,1.5c0,0.1,0,0.1,0,0.2c0.3,0.2,0.5,0.5,0.8,0.8c0.3-0.2,0.4-0.4,0.6-0.7&#xd;&#xa;&#x9;&#x9;&#x9;C22.8,18.9,24.4,18.2,23.7,17.8z" class="st2"/>
  </g>
 </g>
 <g id="Textos">
  <g class="st3">
   <path d="M51.8,20.3h3.5c0.7,0,1.2,0,1.5,0.1s0.6,0.2,0.9,0.4c0.3,0.2,0.5,0.4,0.7,0.7c0.2,0.3,0.3,0.6,0.3,1&#xd;&#xa;&#x9;&#x9;&#x9;s-0.1,0.8-0.3,1.1c-0.2,0.3-0.5,0.6-0.9,0.8c0.5,0.1,0.9,0.4,1.2,0.8s0.4,0.8,0.4,1.3c0,0.4-0.1,0.8-0.3,1.2&#xd;&#xa;&#x9;&#x9;&#x9;c-0.2,0.4-0.4,0.7-0.7,0.9c-0.3,0.2-0.7,0.4-1.2,0.4c-0.3,0-1,0.1-2.1,0.1h-2.9L51.8,20.3L51.8,20.3z M53.6,21.7v2h1.1&#xd;&#xa;&#x9;&#x9;&#x9;c0.7,0,1.1,0,1.3,0c0.3,0,0.5-0.1,0.7-0.3c0.2-0.2,0.3-0.4,0.3-0.7c0-0.3-0.1-0.5-0.2-0.7c-0.1-0.2-0.4-0.3-0.7-0.3&#xd;&#xa;&#x9;&#x9;&#x9;c-0.2,0-0.7,0-1.5,0H53.6z M53.6,25.2v2.3h1.6c0.6,0,1,0,1.2-0.1c0.3,0,0.5-0.2,0.6-0.3c0.2-0.2,0.2-0.4,0.2-0.7&#xd;&#xa;&#x9;&#x9;&#x9;c0-0.3-0.1-0.5-0.2-0.7c-0.1-0.2-0.3-0.3-0.5-0.4s-0.8-0.1-1.5-0.1L53.6,25.2L53.6,25.2z" class="st4"/>
   <path d="M64.2,27l1.7,0.3c-0.2,0.6-0.5,1.1-1,1.4s-1,0.5-1.7,0.5c-1.1,0-1.9-0.4-2.4-1.1c-0.4-0.6-0.6-1.3-0.6-2.2&#xd;&#xa;&#x9;&#x9;&#x9;c0-1,0.3-1.9,0.8-2.4c0.5-0.6,1.2-0.9,2.1-0.9c0.9,0,1.7,0.3,2.2,0.9s0.8,1.6,0.8,2.8h-4.2c0,0.5,0.1,0.9,0.4,1.2&#xd;&#xa;&#x9;&#x9;&#x9;c0.3,0.3,0.6,0.4,1,0.4c0.3,0,0.5-0.1,0.7-0.2C64,27.5,64.1,27.3,64.2,27z M64.3,25.3c0-0.5-0.1-0.8-0.4-1.1&#xd;&#xa;&#x9;&#x9;&#x9;c-0.2-0.2-0.5-0.4-0.9-0.4s-0.7,0.1-0.9,0.4s-0.4,0.6-0.4,1.1H64.3z" class="st4"/>
   <path d="M67.2,28.9v-8.7h1.7v3.1c0.5-0.6,1.1-0.9,1.8-0.9c0.8,0,1.4,0.3,1.9,0.8s0.7,1.3,0.7,2.4s-0.3,1.9-0.8,2.5&#xd;&#xa;&#x9;&#x9;&#x9;S71.4,29,70.6,29c-0.4,0-0.7-0.1-1.1-0.3c-0.4-0.2-0.7-0.4-0.9-0.8v0.9L67.2,28.9L67.2,28.9z M68.9,25.7c0,0.7,0.1,1.1,0.3,1.4&#xd;&#xa;&#x9;&#x9;&#x9;c0.3,0.4,0.7,0.7,1.1,0.7s0.7-0.2,0.9-0.5c0.3-0.3,0.4-0.8,0.4-1.5s-0.1-1.2-0.4-1.5s-0.6-0.5-1-0.5s-0.7,0.1-1,0.5&#xd;&#xa;&#x9;&#x9;&#x9;C69,24.6,68.9,25,68.9,25.7z" class="st4"/>
   <path d="M74.7,21.8v-1.5h1.7v1.5H74.7z M74.7,28.9v-6.3h1.7v6.3H74.7z" class="st4"/>
   <path d="M83.8,28.9h-1.5V28c-0.3,0.4-0.6,0.6-0.9,0.8c-0.4,0.2-0.7,0.3-1.1,0.3c-0.7,0-1.3-0.3-1.9-0.9&#xd;&#xa;&#x9;&#x9;&#x9;c-0.5-0.6-0.8-1.4-0.8-2.4c0-1.1,0.2-1.9,0.7-2.4s1.1-0.8,1.9-0.8c0.7,0,1.3,0.3,1.8,0.9v-3.1h1.7L83.8,28.9L83.8,28.9z&#xd;&#xa;&#x9;&#x9;&#x9; M79.4,25.7c0,0.7,0.1,1.2,0.3,1.5c0.3,0.4,0.6,0.7,1.1,0.7c0.4,0,0.7-0.2,1-0.5s0.4-0.8,0.4-1.5s-0.1-1.2-0.4-1.6&#xd;&#xa;&#x9;&#x9;&#x9;c-0.3-0.3-0.6-0.5-1-0.5s-0.7,0.2-1,0.5S79.4,25.1,79.4,25.7z" class="st4"/>
   <path d="M86.7,24.6l-1.5-0.3c0.2-0.6,0.5-1.1,0.9-1.3s1-0.4,1.8-0.4c0.7,0,1.3,0.1,1.7,0.3c0.4,0.2,0.6,0.4,0.8,0.7&#xd;&#xa;&#x9;&#x9;&#x9;c0.1,0.3,0.2,0.8,0.2,1.5V27c0,0.6,0,1,0.1,1.2c0.1,0.3,0.1,0.5,0.3,0.8h-1.6c0-0.1-0.1-0.3-0.2-0.5c0-0.1,0-0.2-0.1-0.2&#xd;&#xa;&#x9;&#x9;&#x9;c-0.3,0.3-0.6,0.5-0.9,0.6s-0.7,0.2-1,0.2c-0.7,0-1.2-0.2-1.5-0.5c-0.4-0.4-0.6-0.8-0.6-1.3c0-0.4,0.1-0.7,0.3-1s0.4-0.5,0.7-0.6&#xd;&#xa;&#x9;&#x9;&#x9;s0.7-0.3,1.3-0.4c0.8-0.1,1.3-0.3,1.6-0.4v-0.2c0-0.3-0.1-0.5-0.2-0.7c-0.2-0.1-0.5-0.2-0.9-0.2c-0.3,0-0.5,0.1-0.7,0.2&#xd;&#xa;&#x9;&#x9;&#x9;C86.9,24.1,86.8,24.3,86.7,24.6z M88.9,25.9c-0.2,0.1-0.5,0.2-1,0.3c-0.5,0.1-0.8,0.2-0.9,0.3c-0.2,0.1-0.3,0.4-0.3,0.6&#xd;&#xa;&#x9;&#x9;&#x9;s0.1,0.4,0.3,0.6c0.2,0.2,0.4,0.3,0.7,0.3c0.3,0,0.6-0.1,0.9-0.3c0.2-0.1,0.3-0.3,0.4-0.5c0-0.1,0.1-0.4,0.1-0.8L88.9,25.9&#xd;&#xa;&#x9;&#x9;&#x9;L88.9,25.9z" class="st4"/>
   <path d="M91.6,27.2l1.7-0.3c0.1,0.3,0.2,0.6,0.4,0.7c0.2,0.2,0.5,0.3,0.9,0.3s0.7-0.1,1-0.2c0.1-0.1,0.2-0.3,0.2-0.4&#xd;&#xa;&#x9;&#x9;&#x9;s0-0.2-0.1-0.3c-0.1-0.1-0.3-0.1-0.6-0.2c-1.3-0.3-2.2-0.6-2.6-0.8c-0.5-0.3-0.7-0.8-0.7-1.4c0-0.5,0.2-1,0.6-1.4s1.1-0.6,2-0.6&#xd;&#xa;&#x9;&#x9;&#x9;s1.5,0.1,1.9,0.4s0.7,0.7,0.9,1.2l-1.6,0.3c-0.1-0.2-0.2-0.4-0.4-0.6c-0.2-0.1-0.5-0.2-0.8-0.2c-0.4,0-0.7,0.1-0.9,0.2&#xd;&#xa;&#x9;&#x9;&#x9;c-0.1,0.1-0.2,0.2-0.2,0.3c0,0.1,0.1,0.2,0.2,0.3c0.1,0.1,0.7,0.3,1.5,0.5c0.9,0.2,1.5,0.4,1.9,0.7c0.3,0.3,0.5,0.7,0.5,1.2&#xd;&#xa;&#x9;&#x9;&#x9;c0,0.6-0.2,1.1-0.7,1.5S95.5,29,94.6,29s-1.5-0.2-2-0.5C92.1,28.2,91.8,27.8,91.6,27.2z" class="st4"/>
  </g>
 </g>
</svg>
