<?xml version="1.0" encoding="iso-8859-1"?>
<!-- Generator: Adobe Illustrator 25.4.1, SVG Export Plug-In . SVG Version: 6.00 Build 0)  -->
<!DOCTYPE svg PUBLIC "-//W3C//DTD SVG 1.1//EN" "http://www.w3.org/Graphics/SVG/1.1/DTD/svg11.dtd" [
	<!ENTITY ns_extend "http://ns.adobe.com/Extensibility/1.0/">
	<!ENTITY ns_ai "http://ns.adobe.com/AdobeIllustrator/10.0/">
	<!ENTITY ns_graphs "http://ns.adobe.com/Graphs/1.0/">
	<!ENTITY ns_vars "http://ns.adobe.com/Variables/1.0/">
	<!ENTITY ns_imrep "http://ns.adobe.com/ImageReplacement/1.0/">
	<!ENTITY ns_sfw "http://ns.adobe.com/SaveForWeb/1.0/">
	<!ENTITY ns_custom "http://ns.adobe.com/GenericCustomNamespace/1.0/">
	<!ENTITY ns_adobe_xpath "http://ns.adobe.com/XPath/1.0/">
]>
<svg version="1.1" id="Capa_1" xmlns:x="&ns_extend;" xmlns:i="&ns_ai;" xmlns:graph="&ns_graphs;"
	 xmlns="http://www.w3.org/2000/svg" xmlns:xlink="http://www.w3.org/1999/xlink" x="0px" y="0px" width="50px" height="50px"
	 viewBox="0 0 50 50" enable-background="new 0 0 50 50" xml:space="preserve">
<metadata>
	<sfw  xmlns="&ns_sfw;">
		<slices></slices>
		<sliceSourceBounds  bottomLeftOrigin="true" height="45" width="33.1" x="108.4" y="102.5"></sliceSourceBounds>
	</sfw>
</metadata>
<g>
	<path fill="#FFFFFF" d="M23,7.8c0.4,0.1,0.8,0.1,1.1-0.2c0.3-0.3,0.4-0.6,0.4-1c0-0.9,0-1.8,0-2.7c0-0.6-0.2-1.2-0.9-1.4
		c-0.2,0-0.3,0-0.5,0c-0.4,0.2-0.8,0.5-0.8,1c0,1.1,0,2.2,0,3.3C22.3,7.3,22.6,7.7,23,7.8z"/>
	<path fill="#FFFFFF" d="M41.4,33.7c-0.7-4.1-3-6.9-7-8.1c-1.5-0.5-3.2-0.6-4.7-0.9c-0.7-0.1-1.4-0.3-2.2-0.3c0-0.4,0-0.7,0-1.1
		c0-2.9,0-5.9,0-8.8c-0.1-2.9-3.4-4.6-5.9-3.3c-1.6,0.8-2.3,2.1-2.3,3.9c0,4.9,0,9.7,0,14.5c0,0.2,0,0.3,0,0.6
		C19,30,18.9,30,18.7,29.9c-1.8-0.8-3.6-1.5-5.4-2.3c-1.4-0.6-3.1-0.1-4.1,1.1C8,30.3,8.2,32.6,9.8,34c3,2.7,6,5.4,9,8
		c0.3,0.2,0.3,0.5,0.3,0.8c0,1.2,0,2.3,0,3.5c0,0.5,0.2,0.9,0.6,1.1c0.4,0.2,0.8,0.1,1.1-0.1c0.3-0.3,0.4-0.7,0.4-1.1
		c0-1.4,0-2.8,0-4.1c0-0.5-0.2-0.9-0.6-1.2c-2-1.8-4.1-3.6-6.1-5.5c-1.2-1.1-2.4-2.1-3.5-3.2c-0.6-0.6-0.7-1.4-0.3-2
		c0.4-0.6,1.2-0.9,1.9-0.6c0.4,0.1,0.8,0.3,1.1,0.5c1.9,0.8,3.9,1.7,5.8,2.5c0.9,0.4,1.6-0.1,1.7-1.1c0-0.1,0-0.3,0-0.4
		c0-5.3,0-10.6,0-15.9c0-0.2,0-0.5,0-0.7c0.1-1,0.8-1.7,1.8-1.7c0.9-0.1,1.8,0.5,2,1.4c0.1,0.3,0.1,0.6,0.1,0.8c0,3.3,0,6.6,0,9.9
		c0,0.8,0.3,1.2,1,1.3c1.9,0.3,3.8,0.6,5.7,0.9c2,0.3,3.7,0.9,5.1,2.4c2.3,2.5,2.7,5.4,1.9,8.5c-0.3,1-0.7,1.9-1.2,2.8
		c-0.8,1.6-1.7,3.2-2.5,4.8c-0.3,0.6-0.3,1,0.1,1.4c0.5,0.6,1.4,0.4,1.8-0.3c1-2,2.1-3.9,3-5.9C41.4,38.7,41.8,36.2,41.4,33.7z"/>
	<path fill="#FFFFFF" d="M14.8,10.1c0.1,0.1,0.2,0.2,0.3,0.3c0.3,0.2,0.7,0.2,1,0c0.3-0.2,0.6-0.5,0.6-1c-0.1-0.3-0.3-0.6-0.5-0.8
		c-0.7-0.7-1.4-1.4-2.1-2.1c-0.3-0.3-0.7-0.5-1.1-0.3c-0.8,0.3-1,1.2-0.4,1.9C13.4,8.7,14.1,9.4,14.8,10.1z"/>
	<path fill="#FFFFFF" d="M29.7,10.4c0.4,0.2,0.9,0.1,1.3-0.3c0.7-0.7,1.4-1.4,2.1-2.1c0.2-0.2,0.3-0.5,0.4-0.6
		c0-0.6-0.2-0.9-0.6-1.2C32.4,6,32,6.2,31.6,6.5c-0.7,0.7-1.4,1.4-2.2,2.2c-0.2,0.2-0.3,0.4-0.3,0.6C29,9.8,29.3,10.2,29.7,10.4z"/>
	<path fill="#FFFFFF" d="M11.7,17.6c0.5,0,1.1,0,1.6,0c0.5,0,1.1,0,1.6,0c0.6,0,1.1-0.4,1.1-1c0-0.6-0.4-1.1-1.1-1.1
		c-1.1,0-2.1,0-3.2,0c-0.6,0-1.1,0.5-1.1,1C10.6,17.2,11.1,17.6,11.7,17.6z"/>
	<path fill="#FFFFFF" d="M32.6,15.5L32.6,15.5c-0.5,0-1,0-1.5,0c0,0,0,0-0.1,0c-0.7,0-1.1,0.5-1.1,1.1c0,0.6,0.5,1.1,1.2,1.1
		c1,0,2,0,3.1,0c0.7,0,1.1-0.4,1.2-1c0-0.6-0.4-1.1-1.1-1.1C33.6,15.5,33.1,15.5,32.6,15.5z"/>
</g>
</svg>
