<?xml version='1.0' encoding='utf-8'?>
<!DOCTYPE svg PUBLIC '-//W3C//DTD SVG 1.1//EN' 'http://www.w3.org/Graphics/SVG/1.1/DTD/svg11.dtd'>
<!-- Generator: Adobe Illustrator 25.4.1, SVG Export Plug-In . SVG Version: 6.00 Build 0)  -->
<svg version="1.1" x="0px" height="50px" id="Capa_1" xmlns:xlink="http://www.w3.org/1999/xlink" width="130px" xml:space="preserve" xmlns:x="http://ns.adobe.com/Extensibility/1.0/" xmlns:graph="http://ns.adobe.com/Graphs/1.0/" style="enable-background:new 0 0 130 50;" xmlns:i="http://ns.adobe.com/AdobeIllustrator/10.0/" viewBox="0 0 130 50" y="0px" xmlns="http://www.w3.org/2000/svg">
 <style type="text/css">&#xd;
	.st0{fill:#333333;}&#xd;
	.st1{fill:#828282;}&#xd;
	.st2{fill:#FEFEFE;}&#xd;
	.st3{enable-background:new    ;}&#xd;
	.st4{fill:#FFFFFF;}&#xd;
</style>
 <metadata>
  <sfw xmlns="http://ns.adobe.com/SaveForWeb/1.0/">
   <slices/>
   <sliceSourceBounds x="0" bottomLeftOrigin="true" height="50" width="129.9" y="56.4"/>
  </sfw>
 </metadata>
 <g id="Capa_1_00000138541779206760670920000006500182483304967340_">
  <g id="Fondos"/>
  <g id="Para_Botones_Botones_xA0_Imagen_00000085965584236556756730000001563763528198841479_"/>
  <g>
   <path d="M121.5,50H8.5C3.8,50,0,46.2,0,41.5v-33C0,3.8,3.8,0,8.5,0h112.9c4.7,0,8.5,3.8,8.5,8.5v33C130,46.2,126.2,50,121.5,50z"/>
   <path d="M28.6,10.2c1.5-0.3,3,0.3,4.5,0.3c0.6,0,0.9,0.4,0.8,1c-0.2,1.8,0.5,3.5,0.3,5.3c0,1,0.1,2,0,2.9&#xd;&#xa;&#x9;&#x9;&#x9;c-0.1,1.2,0.4,2.3,0,3.6c-0.4,1.5,0.1,3.3-0.1,4.9c-0.1,0.3-0.1,0.6,0,0.8c0.6,0.9-0.1,1.7-0.1,2.6c-0.3,3.5,1.1,5.9-2.9,7.5&#xd;&#xa;&#x9;&#x9;&#x9;c-4.1,1.6-11.8,2-14.8-1.7c-0.4-0.6-0.4-1.3-0.4-1.9c-0.1-1.3,0-2.5,0-3.8c0.1-0.8-0.6-1.5-0.3-2.2c0.4-1.9,0.1-3.9,0.2-5.8&#xd;&#xa;&#x9;&#x9;&#x9;c0-0.3,0-0.5-0.2-0.8c-0.5-0.8,0.1-1.6,0.1-2.4c-0.1-3.1,0.2-6.1,0.2-9.2c0-0.4,0.3-0.7,0.7-0.7c3.3-0.2,6.5-0.5,9.8-0.3&#xd;&#xa;&#x9;&#x9;&#x9;c-0.7,0.8,1.1,0.6,1,1.3c-0.9,0.9-5.7-0.1-7.2,0.1c-0.5,0.1-1.5-0.3-1.7,0.4c-0.3,0.9-0.3,1.8-0.1,2.7c-0.1,0.9-0.4,1.8,0.2,2.7&#xd;&#xa;&#x9;&#x9;&#x9;c-0.2,1.3,1.2,4.6-0.3,5.1c-0.5,0.2-0.5,0.5-0.1,0.7c0.8,0.5,1.7,0.3,2.6,0.5c0.1,0.1,0.1,0.2,0.2,0c0.3,0,0.6,0,1,0.1&#xd;&#xa;&#x9;&#x9;&#x9;c0.2,0.2,0.5,0.2,0.7,0c0.1,0,0.1,0,0.2,0c0.1,0.2,0.3,0.1,0.5,0.1c1.5-0.1,2.9,0,4.4-0.1c0.5-0.1,2.4-0.1,2.3-0.9&#xd;&#xa;&#x9;&#x9;&#x9;c0-0.6-1.1-0.4-1.6-0.7c0.2-0.2,0.6-0.2,0.6-0.6c0-0.6,0.2-1.3,0.3-1.9c0.2-1,0.1-2.1,0.7-3.1c0.1-0.4-0.1-1.1-0.1-1.6&#xd;&#xa;&#x9;&#x9;&#x9;c0.2-0.9-0.1-1.7-0.2-2.5c0-0.7-0.9-0.9-0.9-1.2C29,11,30,11.3,30,10.8c0-0.4-0.6-0.6-1-0.6C28.8,10.3,28.6,10.3,28.6,10.2z&#xd;&#xa;&#x9;&#x9;&#x9; M26.3,31.5c-2.1,0-4.2,0.1-6.4-0.4c-0.3-0.2-0.8-0.3-0.9,0.1c-0.3,0.8-1.4,0.1-2,0c-0.2-0.1-0.4-0.3-0.7-0.1&#xd;&#xa;&#x9;&#x9;&#x9;c-0.4,0.5,0.5,0.9,0.1,1.4c-0.5,0.8,0,1.8-0.2,2.7c-0.1,0.9,0.5,1.5,1.3,1.9c0.3,0.2,1,0.1,1.2,0.5c0,0.1-0.1,0.1-0.2,0.1&#xd;&#xa;&#x9;&#x9;&#x9;c-1,0.2,0.6,1.3,1.1,1.1c0.3-0.1,0.5-0.1,0.8,0c0.5,0.4,1.2,0.4,1.8,0.4c1.5,0,3,0,4.5,0c0.5,0,2.4-0.5,2.7-1&#xd;&#xa;&#x9;&#x9;&#x9;c0.2-0.4,0.6-0.6,1-0.7c1.8-0.4,3.1-1.1,2.6-3.2c-0.1-0.3-0.1-0.7-0.4-1c-1.6-1,0.7-0.8,0.5-1.9c-0.2-0.5-1.9,0.3-2.5,0.2&#xd;&#xa;&#x9;&#x9;&#x9;c-0.3,0-0.6,0.1-0.8-0.1C29.3,30.9,27.1,31.6,26.3,31.5z M24,28.6c0.2,0,0.3,0,0.4,0c1-0.4,2.1-0.4,3.2-0.7&#xd;&#xa;&#x9;&#x9;&#x9;c0.4-0.1,0.2-0.8-0.2-0.6c-0.6,0.1-1.2,0.6-1.8,0.3c-0.1-0.1-0.2,0.1-0.3,0.2c-0.4,0.4-1,0.4-1.3,0.2c-0.6-0.4-0.8-0.2-1.1,0.3&#xd;&#xa;&#x9;&#x9;&#x9;c-0.1,0.2-0.4,0.5-0.7,0.3c-0.3-0.2,0.1-0.3,0.2-0.5c0.3-0.6-0.4-1.1-0.6-0.3c-0.6,2.4-1.8,1.5-1.6,2.5c0.1,0.5,1.1-0.2,1.2-0.5&#xd;&#xa;&#x9;&#x9;&#x9;c0.2-0.6,0.7-0.7,1.2-0.9C23.2,28.6,23.6,28.1,24,28.6z M28.8,28.2c-0.3-0.4-1.6,0.3-2.1,0.3c-1.1,0.2-2.2,0.4-3.2,0.7&#xd;&#xa;&#x9;&#x9;&#x9;c-0.3,0.1-0.5,0.3-0.4,0.6s0.4,0.1,0.6,0C25.3,29,27.1,28.9,28.8,28.2z M22.2,10.4c-0.2,0-0.5,0.1-0.7,0.2&#xd;&#xa;&#x9;&#x9;&#x9;c-0.3,0.2-0.2,0.7,0.2,0.7C22.4,11.5,23.7,10.3,22.2,10.4z M21,26.5c-0.5,0.1-0.5,0.6-0.7,0.9c-0.1,0.3-0.1,0.6,0.1,0.8&#xd;&#xa;&#x9;&#x9;&#x9;c0.1,0.1,0.2,0.1,0.2-0.1C20.5,27.7,21.4,26.6,21,26.5z" class="st0"/>
   <path d="M19.6,23.6c-0.6,0.2-2.6-0.5-1.4-1.1c1.4-0.7,0.3-3.1,0.3-4.2c0-0.2-0.1-0.4,0-0.6c0-0.1,0.1-0.2,0-0.3&#xd;&#xa;&#x9;&#x9;&#x9;c-0.6-0.9-0.3-1.8-0.2-2.7c-0.2-0.9-0.2-1.8,0.1-2.7c0.2-0.7,1.2-0.3,1.7-0.4c1.5-0.2,6.4,0.8,7.2-0.1c0.1-0.7-1.7-0.5-1-1.3&#xd;&#xa;&#x9;&#x9;&#x9;c0.8,0,1.5,0,2.3,0c0.1,0.2,0.2,0.2,0.3,0.2c0.4,0,0.9,0.2,1,0.6c-0.1,0.5-1.1,0.2-1.1,0.6c-0.1,0.3,0.9,0.5,0.9,1.2&#xd;&#xa;&#x9;&#x9;&#x9;c0,0.8,0.4,1.7,0.2,2.5c0.1,0.5,0.3,1.2,0.1,1.6c-0.6,1-0.5,2-0.7,3.1c-0.1,0.6-0.3,1.2-0.3,1.9c0,0.4-0.4,0.3-0.6,0.6&#xd;&#xa;&#x9;&#x9;&#x9;c0.5,0.2,1.5,0,1.6,0.7c0.1,0.8-1.7,0.8-2.3,0.9c-1.5,0.1-2.9,0-4.4,0.1c-0.2,0-0.4,0.1-0.5-0.1c0.1-0.2,0.6-0.1,0.6-0.5&#xd;&#xa;&#x9;&#x9;&#x9;c-0.1-0.2-0.3-0.4-0.5-0.5C22.2,22.7,17.7,22,19.6,23.6z M24.5,15.2c0.7,0,1.3-0.2,1.9-0.2c0.8-0.1,1.2-0.4,1.1-1.3&#xd;&#xa;&#x9;&#x9;&#x9;c0-0.6-0.4-0.9-1.2-0.9c-1.3,0.1-2.6,0-4,0.1c-1.1,0.1-1,2,0,2C23.1,15,23.8,15.3,24.5,15.2z M21.4,16.3L21.4,16.3&#xd;&#xa;&#x9;&#x9;&#x9;c0.5,0.1,1.3-0.3,0.5-0.6c-0.6-0.4-1-1-1.3-1.7c-0.1-0.2-0.1-0.5-0.3-0.4c-0.3,0.1-0.2,0.4-0.2,0.6c0.1,0.6,0.6,1.1-0.1,1.5&#xd;&#xa;&#x9;&#x9;&#x9;C19.2,16.2,21.1,16.2,21.4,16.3z M27.7,22.8c-0.4-0.1-1.6,0.4-0.8,0.7c0.4,0,1.7,0.3,1.7-0.4C28.4,22.7,28,22.8,27.7,22.8z&#xd;&#xa;&#x9;&#x9;&#x9; M28,14.9c0.7-1.1,0.5-2.2-0.5-2.5c-0.1,0-0.2-0.1-0.3,0c0,0.1,0.1,0.2,0.2,0.2C28.3,13,28.1,13.9,28,14.9z" class="st1"/>
   <path d="M112.2,22.9c1.1,0,1.4-2.1,0-1.9C110.7,20.9,111,23,112.2,22.9z" class="st1"/>
   <path d="M112.1,29.1c1.3,0.1,1.2-2,0-2S110.8,29.2,112.1,29.1z" class="st1"/>
   <path d="M112.1,26c1.3,0.1,1.3-2,0-1.9C110.9,24,110.8,26,112.1,26z" class="st1"/>
   <path d="M28.8,31.4c1-0.3,0.7,0.8,1.7,0.5c0.6,0.1,2.3-0.8,2.5-0.2c0.1,0.3-0.2,0.6-0.4,0.7c-0.9,0.6-0.9,0.6-0.1,1.2&#xd;&#xa;&#x9;&#x9;&#x9;c0.3,0.3,0.4,0.7,0.4,1c0.3,1,0.1,2.3-1.1,2.7c-0.8,0.5-2,0.3-2.5,1.2c-0.1,0.2-0.2,0.3-0.4,0.3c-2.1,1-4.5,0.7-6.8,0.7&#xd;&#xa;&#x9;&#x9;&#x9;c-0.6,0-1.2,0-1.8-0.4c-0.2-0.2-0.5-0.1-0.8,0c-0.4,0.1-1.3-0.4-1.4-0.8c-0.1-0.5,0.5-0.2,0.6-0.5c0-0.1-0.1-0.2-0.2-0.2&#xd;&#xa;&#x9;&#x9;&#x9;c-2.6-0.6-2.2-1.8-2.2-4c-0.2-0.7,0.6-1,0.2-1.5c-0.2-0.2-0.3-0.5-0.1-0.7c0.2-0.3,0.4,0,0.7,0.1c0.4,0.1,0.8,0.3,1.2,0.3&#xd;&#xa;&#x9;&#x9;&#x9;c1,0.3,0.5-1.1,1.7-0.5c-1.6,1,4.3,1.8,2.9,0.4c1.1-0.1,2.3,0,3.4,0c-0.5,1.1,1.1,0.7,1.7,0.7C28.5,32.1,28.8,31.9,28.8,31.4z" class="st1"/>
   <path d="M24,28.6c-0.5-0.5-0.8,0-1.3,0.2s-1,0.4-1.2,0.9c-0.1,0.3-1.1,0.9-1.2,0.5c-0.2-1,0.9,0,1.6-2.5&#xd;&#xa;&#x9;&#x9;&#x9;c0.1-0.8,0.9-0.3,0.6,0.3c-0.1,0.2-0.5,0.2-0.2,0.5c0.3,0.2,0.5,0,0.7-0.3c0.3-0.5,0.5-0.7,1.1-0.3c0.3,0.3,0.9,0.3,1.3-0.2&#xd;&#xa;&#x9;&#x9;&#x9;c0.1-0.1,0.2-0.2,0.3-0.2c0.7,0.3,1.2-0.2,1.8-0.3c0.4-0.2,0.6,0.5,0.2,0.6c-1,0.3-2.2,0.3-3.2,0.7C24.3,28.6,24.2,28.6,24,28.6z" class="st1"/>
   <path d="M28.8,28.2c-1.7,0.7-3.5,0.8-5.2,1.6c-0.2,0.1-0.4,0.3-0.6,0c-0.1-0.3,0.1-0.6,0.4-0.6&#xd;&#xa;&#x9;&#x9;&#x9;c1.1-0.2,2.1-0.4,3.2-0.7C27.2,28.5,28.6,27.8,28.8,28.2z" class="st1"/>
   <path d="M22.2,10.4c0.7,0,1,0.3,0.4,0.7c-0.2,0.2-1.2,0.4-1.2,0C21.2,10.6,21.9,10.4,22.2,10.4z" class="st1"/>
   <path d="M21,26.5c0.4,0.1-0.5,1.2-0.3,1.7c0,0.1-0.2,0.2-0.2,0.1c-0.1-0.2-0.2-0.5-0.1-0.8C20.5,27,20.5,26.6,21,26.5&#xd;&#xa;&#x9;&#x9;&#x9;z" class="st1"/>
   <path d="M21.9,23.8c0.2-0.1,0.5-0.2,0.7,0C22.4,24,22.1,24.1,21.9,23.8z" class="st1"/>
   <path d="M20.7,23.7c0.1-0.1,0.2-0.1,0.2,0C20.8,23.9,20.7,23.9,20.7,23.7z" class="st1"/>
   <path d="M24.5,15.2c-0.7,0.1-1.4-0.2-2.1-0.2c-1,0-1.1-1.9,0-2c1.3-0.1,2.6,0,4-0.1c0.8,0,1.2,0.3,1.2,0.9&#xd;&#xa;&#x9;&#x9;&#x9;c0,0.8-0.3,1.2-1.1,1.3C25.8,15.1,25.2,15.3,24.5,15.2z" class="st0"/>
   <path d="M28,14.9c0.1-0.9,0.3-1.8-0.6-2.3c-0.1-0.1-0.2-0.1-0.2-0.2c0.1-0.2,0.2-0.1,0.3,0&#xd;&#xa;&#x9;&#x9;&#x9;C28.5,12.7,28.7,13.8,28,14.9z" class="st0"/>
   <path d="M23.4,23.3c-0.3-0.9-2.7-0.7-3.6-0.8c-0.6,0-1.1,0.5-0.2,1c0.3,0.1,0.7,0.1,1,0.2c0.1-0.1,0.2-0.1,0.2,0&#xd;&#xa;&#x9;&#x9;&#x9;c0.3,0,0.6,0.1,1,0.1c0.2-0.1,0.5-0.2,0.7,0c0.1,0,0.1,0,0.2,0C23,23.6,23.5,23.7,23.4,23.3z" class="st2"/>
   <path d="M20,31.1c-1.2,1,2,1.2,2.6,1.1c0.2,0,0.4,0,0.5-0.2s-0.1-0.3-0.2-0.5C21.9,31.5,20.9,31.3,20,31.1z" class="st2"/>
   <path d="M26.7,32.2c0.7,0,2,0.1,2-0.9c-0.8-0.1-1.7,0.1-2.5,0.1C26.1,32.1,26.2,32.2,26.7,32.2z" class="st2"/>
   <path d="M19.9,15.7c-0.7,0.5,1.2,0.6,1.5,0.7l0,0c0.5,0.1,1.3-0.2,0.5-0.6c-0.6-0.4-1-1-1.3-1.7&#xd;&#xa;&#x9;&#x9;&#x9;c-0.1-0.7-0.6-0.4-0.5,0.2C20.2,14.8,20.7,15.3,19.9,15.7z" class="st2"/>
   <path d="M26.8,23.5c0.4,0,1.7,0.3,1.7-0.4c-0.1-0.5-1.4-0.4-1.7-0.2C26.5,23.1,26.5,23.5,26.8,23.5z" class="st2"/>
  </g>
 </g>
 <g id="Textos">
  <g class="st3">
   <path d="M45.8,21v-8.7h1.7l3.5,5.8v-5.8h1.6V21h-1.8l-3.5-5.6V21H45.8z" class="st4"/>
   <path d="M58.7,21v-0.9c-0.2,0.3-0.5,0.6-0.9,0.8s-0.8,0.3-1.2,0.3s-0.8-0.1-1.1-0.3s-0.6-0.4-0.7-0.8&#xd;&#xa;&#x9;&#x9;&#x9;c-0.1-0.3-0.2-0.8-0.2-1.4v-4h1.7v2.9c0,0.9,0,1.4,0.1,1.6c0.1,0.2,0.2,0.4,0.3,0.5c0.2,0.1,0.4,0.2,0.6,0.2&#xd;&#xa;&#x9;&#x9;&#x9;c0.3,0,0.5-0.1,0.8-0.2c0.2-0.2,0.4-0.4,0.5-0.6c0.1-0.2,0.1-0.8,0.1-1.7v-2.6h1.6v6.3L58.7,21L58.7,21z" class="st4"/>
   <path d="M65.6,19l1.7,0.3c-0.2,0.6-0.5,1.1-1,1.4c-0.5,0.3-1,0.5-1.7,0.5c-1.1,0-1.9-0.4-2.4-1.1&#xd;&#xa;&#x9;&#x9;&#x9;c-0.4-0.6-0.6-1.3-0.6-2.2c0-1,0.3-1.9,0.8-2.4c0.5-0.6,1.2-0.9,2.1-0.9s1.7,0.3,2.2,0.9c0.5,0.6,0.8,1.6,0.8,2.8h-4.2&#xd;&#xa;&#x9;&#x9;&#x9;c0,0.5,0.1,0.9,0.4,1.2c0.3,0.3,0.6,0.4,1,0.4c0.3,0,0.5-0.1,0.7-0.2C65.3,19.6,65.5,19.3,65.6,19z M65.7,17.3&#xd;&#xa;&#x9;&#x9;&#x9;c0-0.5-0.1-0.8-0.4-1.1c-0.2-0.2-0.5-0.4-0.9-0.4s-0.7,0.1-0.9,0.4c-0.2,0.3-0.4,0.6-0.4,1.1H65.7L65.7,17.3z" class="st4"/>
   <path d="M68.1,19.2l1.7-0.3c0.1,0.3,0.2,0.6,0.4,0.7s0.5,0.3,0.9,0.3s0.7-0.1,1-0.2c0.1-0.1,0.2-0.3,0.2-0.4&#xd;&#xa;&#x9;&#x9;&#x9;c0-0.1,0-0.2-0.1-0.3s-0.3-0.1-0.6-0.2c-1.3-0.3-2.2-0.6-2.6-0.8c-0.5-0.3-0.7-0.8-0.7-1.4c0-0.5,0.2-1,0.6-1.4&#xd;&#xa;&#x9;&#x9;&#x9;c0.4-0.4,1.1-0.6,2-0.6s1.5,0.1,1.9,0.4s0.7,0.7,0.9,1.2l-1.6,0.3c-0.1-0.2-0.2-0.4-0.4-0.6c-0.2-0.1-0.5-0.2-0.8-0.2&#xd;&#xa;&#x9;&#x9;&#x9;c-0.4,0-0.7,0.1-0.9,0.2c-0.1,0.1-0.2,0.2-0.2,0.3s0.1,0.2,0.2,0.3s0.7,0.3,1.5,0.5c0.9,0.2,1.5,0.4,1.9,0.7&#xd;&#xa;&#x9;&#x9;&#x9;c0.3,0.3,0.5,0.7,0.5,1.2c0,0.6-0.2,1.1-0.7,1.5S72,21,71.1,21s-1.5-0.2-2-0.5C68.5,20.3,68.2,19.8,68.1,19.2z" class="st4"/>
   <path d="M78.3,14.7V16h-1.1v2.5c0,0.5,0,0.8,0,0.9c0,0.1,0.1,0.1,0.1,0.2c0.1,0.1,0.2,0.1,0.3,0.1&#xd;&#xa;&#x9;&#x9;&#x9;c0.1,0,0.4-0.1,0.7-0.2l0.1,1.3C78,21,77.6,21,77.1,21c-0.3,0-0.6-0.1-0.8-0.1c-0.2-0.1-0.4-0.2-0.5-0.4s-0.2-0.4-0.2-0.7&#xd;&#xa;&#x9;&#x9;&#x9;c0-0.2-0.1-0.6-0.1-1.2v-2.7h-0.8v-1.3h0.8v-1.2l1.7-1v2.2L78.3,14.7L78.3,14.7z" class="st4"/>
   <path d="M81,21h-1.7v-6.3h1.5v0.9c0.3-0.4,0.5-0.7,0.7-0.8c0.2-0.1,0.4-0.2,0.7-0.2c0.4,0,0.7,0.1,1.1,0.3l-0.5,1.5&#xd;&#xa;&#x9;&#x9;&#x9;c-0.3-0.2-0.5-0.3-0.8-0.3c-0.2,0-0.4,0.1-0.6,0.2c-0.2,0.1-0.3,0.4-0.4,0.7s-0.1,1-0.1,2.1L81,21L81,21z" class="st4"/>
   <path d="M83.7,17.8c0-0.6,0.1-1.1,0.4-1.6s0.7-0.9,1.2-1.2s1.1-0.4,1.7-0.4c1,0,1.7,0.3,2.3,0.9&#xd;&#xa;&#x9;&#x9;&#x9;c0.6,0.6,0.9,1.4,0.9,2.3c0,1-0.3,1.7-0.9,2.4c-0.6,0.6-1.4,0.9-2.3,0.9c-0.6,0-1.1-0.1-1.6-0.4c-0.5-0.3-0.9-0.6-1.2-1.1&#xd;&#xa;&#x9;&#x9;&#x9;S83.7,18.5,83.7,17.8z M85.4,17.9c0,0.6,0.1,1.1,0.4,1.4s0.7,0.5,1.1,0.5s0.8-0.2,1.1-0.5c0.3-0.3,0.4-0.8,0.4-1.4&#xd;&#xa;&#x9;&#x9;&#x9;c0-0.6-0.1-1.1-0.4-1.4c-0.3-0.3-0.7-0.5-1.1-0.5s-0.8,0.2-1.1,0.5C85.6,16.8,85.4,17.2,85.4,17.9z" class="st4"/>
   <path d="M90.9,19.2l1.7-0.3c0.1,0.3,0.2,0.6,0.4,0.7s0.5,0.3,0.9,0.3s0.7-0.1,1-0.2c0.1-0.1,0.2-0.3,0.2-0.4&#xd;&#xa;&#x9;&#x9;&#x9;c0-0.1,0-0.2-0.1-0.3s-0.3-0.1-0.6-0.2c-1.3-0.3-2.2-0.6-2.6-0.8c-0.5-0.3-0.7-0.8-0.7-1.4c0-0.5,0.2-1,0.6-1.4&#xd;&#xa;&#x9;&#x9;&#x9;c0.4-0.4,1.1-0.6,2-0.6s1.5,0.1,1.9,0.4s0.7,0.7,0.9,1.2l-1.6,0.3c-0.1-0.2-0.2-0.4-0.4-0.6c-0.2-0.1-0.5-0.2-0.8-0.2&#xd;&#xa;&#x9;&#x9;&#x9;c-0.4,0-0.7,0.1-0.9,0.2c-0.1,0.1-0.2,0.2-0.2,0.3s0.1,0.2,0.2,0.3s0.7,0.3,1.5,0.5s1.5,0.4,1.9,0.7c0.3,0.3,0.5,0.7,0.5,1.2&#xd;&#xa;&#x9;&#x9;&#x9;c0,0.6-0.2,1.1-0.7,1.5S94.8,21,93.9,21s-1.5-0.2-2-0.5C91.4,20.3,91.1,19.8,90.9,19.2z" class="st4"/>
  </g>
  <g class="st3">
   <path d="M45.7,29.3h1.5v0.9c0.2-0.3,0.5-0.6,0.8-0.8s0.7-0.3,1.1-0.3c0.7,0,1.3,0.3,1.9,0.9c0.5,0.6,0.8,1.4,0.8,2.4&#xd;&#xa;&#x9;&#x9;&#x9;s-0.3,1.9-0.8,2.4c-0.5,0.6-1.1,0.9-1.9,0.9c-0.3,0-0.7-0.1-0.9-0.2c-0.3-0.1-0.6-0.4-0.9-0.7V38h-1.7L45.7,29.3L45.7,29.3z&#xd;&#xa;&#x9;&#x9;&#x9; M47.4,32.3c0,0.7,0.1,1.2,0.4,1.6c0.3,0.3,0.6,0.5,1,0.5s0.7-0.1,1-0.5c0.3-0.3,0.4-0.8,0.4-1.5s-0.1-1.1-0.4-1.5s-0.6-0.5-1-0.5&#xd;&#xa;&#x9;&#x9;&#x9;s-0.7,0.2-1,0.5C47.5,31.2,47.4,31.7,47.4,32.3z" class="st4"/>
   <path d="M54.8,35.5h-1.7v-6.3h1.5v0.9c0.3-0.4,0.5-0.7,0.7-0.8s0.4-0.2,0.7-0.2c0.4,0,0.7,0.1,1.1,0.3l-0.5,1.5&#xd;&#xa;&#x9;&#x9;&#x9;c-0.3-0.2-0.5-0.3-0.8-0.3s-0.4,0.1-0.6,0.2c-0.2,0.1-0.3,0.4-0.4,0.7c-0.1,0.3-0.1,1-0.1,2.1L54.8,35.5L54.8,35.5z" class="st4"/>
   <path d="M57.5,32.3c0-0.6,0.1-1.1,0.4-1.6s0.7-0.9,1.2-1.2s1.1-0.4,1.7-0.4c1,0,1.7,0.3,2.3,0.9&#xd;&#xa;&#x9;&#x9;&#x9;c0.6,0.6,0.9,1.4,0.9,2.3c0,1-0.3,1.7-0.9,2.4c-0.6,0.6-1.4,0.9-2.3,0.9c-0.6,0-1.1-0.1-1.6-0.4c-0.5-0.3-0.9-0.6-1.2-1.1&#xd;&#xa;&#x9;&#x9;&#x9;C57.6,33.6,57.5,33,57.5,32.3z M59.2,32.4c0,0.6,0.1,1.1,0.4,1.4s0.7,0.5,1.1,0.5c0.4,0,0.8-0.2,1.1-0.5s0.4-0.8,0.4-1.4&#xd;&#xa;&#x9;&#x9;&#x9;c0-0.6-0.1-1.1-0.4-1.4c-0.3-0.3-0.7-0.5-1.1-0.5c-0.4,0-0.8,0.2-1.1,0.5C59.4,31.3,59.2,31.8,59.2,32.4z" class="st4"/>
   <path d="M71,35.5h-1.5v-0.9c-0.3,0.4-0.6,0.6-0.9,0.8c-0.4,0.2-0.7,0.3-1.1,0.3c-0.7,0-1.3-0.3-1.9-0.9&#xd;&#xa;&#x9;&#x9;&#x9;c-0.5-0.6-0.8-1.4-0.8-2.4c0-1.1,0.2-1.9,0.7-2.4c0.5-0.6,1.1-0.8,1.9-0.8c0.7,0,1.3,0.3,1.8,0.9V27H71V35.5L71,35.5z M66.6,32.3&#xd;&#xa;&#x9;&#x9;&#x9;c0,0.7,0.1,1.2,0.3,1.5c0.3,0.4,0.6,0.7,1.1,0.7c0.4,0,0.7-0.2,1-0.5s0.4-0.8,0.4-1.5s-0.1-1.2-0.4-1.6c-0.3-0.3-0.6-0.5-1-0.5&#xd;&#xa;&#x9;&#x9;&#x9;s-0.7,0.2-1,0.5S66.6,31.6,66.6,32.3z" class="st4"/>
   <path d="M76.8,35.5v-0.9c-0.2,0.3-0.5,0.6-0.9,0.8s-0.8,0.3-1.2,0.3c-0.4,0-0.8-0.1-1.1-0.3c-0.3-0.2-0.6-0.4-0.7-0.8&#xd;&#xa;&#x9;&#x9;&#x9;c-0.1-0.3-0.2-0.8-0.2-1.4v-4h1.7v2.9c0,0.9,0,1.4,0.1,1.6c0.1,0.2,0.2,0.4,0.3,0.5c0.2,0.1,0.4,0.2,0.6,0.2&#xd;&#xa;&#x9;&#x9;&#x9;c0.3,0,0.5-0.1,0.8-0.2c0.2-0.2,0.4-0.4,0.5-0.6c0.1-0.2,0.1-0.8,0.1-1.7v-2.7h1.7v6.3H76.8L76.8,35.5z" class="st4"/>
   <path d="M85.5,31.1l-1.6,0.3c-0.1-0.3-0.2-0.6-0.4-0.7c-0.2-0.2-0.4-0.2-0.8-0.2s-0.7,0.1-1,0.4s-0.4,0.8-0.4,1.4&#xd;&#xa;&#x9;&#x9;&#x9;c0,0.7,0.1,1.3,0.4,1.6c0.2,0.3,0.6,0.5,1,0.5c0.3,0,0.6-0.1,0.8-0.3c0.2-0.2,0.3-0.5,0.4-0.9l1.6,0.3c-0.2,0.7-0.5,1.3-1,1.7&#xd;&#xa;&#x9;&#x9;&#x9;s-1.1,0.6-1.9,0.6c-0.9,0-1.7-0.3-2.2-0.9c-0.5-0.6-0.8-1.4-0.8-2.4s0.3-1.8,0.8-2.4s1.3-0.9,2.2-0.9c0.8,0,1.4,0.2,1.8,0.5&#xd;&#xa;&#x9;&#x9;&#x9;C85,29.9,85.3,30.4,85.5,31.1z" class="st4"/>
   <path d="M89.7,29.3v1.3h-1.1v2.5c0,0.5,0,0.8,0,0.9c0,0.1,0.1,0.1,0.1,0.2c0.1,0.1,0.2,0.1,0.3,0.1&#xd;&#xa;&#x9;&#x9;&#x9;c0.1,0,0.4-0.1,0.7-0.2l0.1,1.3c-0.4,0.2-0.8,0.2-1.3,0.2c-0.3,0-0.6-0.1-0.8-0.1c-0.2-0.1-0.4-0.2-0.5-0.4S87,34.7,87,34.4&#xd;&#xa;&#x9;&#x9;&#x9;c0-0.2-0.1-0.6-0.1-1.2v-2.7h-0.8v-1.3h0.8V28l1.7-1v2.2L89.7,29.3L89.7,29.3z" class="st4"/>
   <path d="M90.4,32.3c0-0.6,0.1-1.1,0.4-1.6s0.7-0.9,1.2-1.2s1.1-0.4,1.7-0.4c1,0,1.7,0.3,2.3,0.9&#xd;&#xa;&#x9;&#x9;&#x9;c0.6,0.6,0.9,1.4,0.9,2.3c0,1-0.3,1.7-0.9,2.4c-0.6,0.6-1.4,0.9-2.3,0.9c-0.6,0-1.1-0.1-1.6-0.4c-0.5-0.3-0.9-0.6-1.2-1.1&#xd;&#xa;&#x9;&#x9;&#x9;C90.6,33.6,90.4,33,90.4,32.3z M92.1,32.4c0,0.6,0.1,1.1,0.4,1.4c0.3,0.3,0.7,0.5,1.1,0.5s0.8-0.2,1.1-0.5&#xd;&#xa;&#x9;&#x9;&#x9;c0.3-0.3,0.4-0.8,0.4-1.4c0-0.6-0.1-1.1-0.4-1.4c-0.3-0.3-0.7-0.5-1.1-0.5s-0.8,0.2-1.1,0.5C92.3,31.3,92.1,31.8,92.1,32.4z" class="st4"/>
   <path d="M97.6,33.7l1.7-0.3c0.1,0.3,0.2,0.6,0.4,0.7c0.2,0.2,0.5,0.3,0.9,0.3s0.7-0.1,1-0.2c0.1-0.1,0.2-0.3,0.2-0.4&#xd;&#xa;&#x9;&#x9;&#x9;c0-0.1,0-0.2-0.1-0.3s-0.3-0.1-0.6-0.2c-1.3-0.3-2.2-0.6-2.6-0.8c-0.5-0.3-0.7-0.8-0.7-1.4c0-0.5,0.2-1,0.6-1.4s1.1-0.6,2-0.6&#xd;&#xa;&#x9;&#x9;&#x9;s1.5,0.1,1.9,0.4c0.4,0.3,0.7,0.7,0.9,1.2l-1.6,0.3c-0.1-0.2-0.2-0.4-0.4-0.6c-0.2-0.1-0.5-0.2-0.8-0.2c-0.4,0-0.7,0.1-0.9,0.2&#xd;&#xa;&#x9;&#x9;&#x9;c-0.1,0.1-0.2,0.2-0.2,0.3s0.1,0.2,0.2,0.3s0.7,0.3,1.5,0.5c0.9,0.2,1.5,0.4,1.9,0.7c0.3,0.3,0.5,0.7,0.5,1.2&#xd;&#xa;&#x9;&#x9;&#x9;c0,0.6-0.2,1.1-0.7,1.5s-1.2,0.6-2.1,0.6s-1.5-0.2-2-0.5C98.1,34.8,97.8,34.3,97.6,33.7z" class="st4"/>
  </g>
 </g>
</svg>
