<?xml version='1.0' encoding='utf-8'?>
<!DOCTYPE svg PUBLIC '-//W3C//DTD SVG 1.1//EN' 'http://www.w3.org/Graphics/SVG/1.1/DTD/svg11.dtd'>
<!-- Generator: Adobe Illustrator 25.4.1, SVG Export Plug-In . SVG Version: 6.00 Build 0)  -->
<svg version="1.1" x="0px" height="50px" id="Capa_1" xmlns:xlink="http://www.w3.org/1999/xlink" width="130px" xml:space="preserve" xmlns:x="http://ns.adobe.com/Extensibility/1.0/" xmlns:graph="http://ns.adobe.com/Graphs/1.0/" style="enable-background:new 0 0 130 50;" xmlns:i="http://ns.adobe.com/AdobeIllustrator/10.0/" viewBox="0 0 130 50" y="0px" xmlns="http://www.w3.org/2000/svg">
 <style type="text/css">&#xd;
	.st0{fill:#828282;}&#xd;
	.st1{fill:#333333;}&#xd;
	.st2{fill:#FEFEFE;}&#xd;
	.st3{enable-background:new    ;}&#xd;
	.st4{fill:#FFFFFF;}&#xd;
</style>
 <metadata>
  <sfw xmlns="http://ns.adobe.com/SaveForWeb/1.0/">
   <slices/>
   <sliceSourceBounds x="0" bottomLeftOrigin="true" height="50" width="129.9" y="0"/>
  </sfw>
 </metadata>
 <g id="Capa_1_00000138541779206760670920000006500182483304967340_">
  <g id="Fondos"/>
  <g id="Para_Botones_Botones_xA0_Imagen_00000085965584236556756730000001563763528198841479_"/>
  <g>
   <path d="M121.5,50H8.5C3.8,50,0,46.2,0,41.5v-33C0,3.8,3.8,0,8.5,0h112.9c4.7,0,8.5,3.8,8.5,8.5v33C130,46.2,126.2,50,121.5,50z"/>
   <path d="M17,10.4c0-0.1,0-0.3,0-0.4c0.1-0.1,0.1-0.3,0.1-0.5c0.1-0.2,0.1-0.6,0.5-0.6c0,0.1-0.1,0.2-0.1,0.3&#xd;&#xa;&#x9;&#x9;&#x9;c-0.1,0.1-0.2,0.3-0.1,0.5c0.1,0.1,0.3,0,0.4-0.1c0.2-0.1,0.3,0,0.5,0.1c0.3,0.2,0.6,0.4,0.9,0.6c0.6,0.4,1,1,0.8,1.8&#xd;&#xa;&#x9;&#x9;&#x9;c-0.1,0.4,0.1,0.5,0.4,0.5c0.1,0.3,0.4,0.2,0.5,0.2c0.7-0.2,1.3-0.2,2-0.2s0.7,0,0.7,0.7c0,0.1,0.1,0.4-0.2,0.4&#xd;&#xa;&#x9;&#x9;&#x9;c-0.2,0-0.2-0.2-0.2-0.4c0-0.3-0.3-0.4-0.5-0.4c-0.3,0-0.4,0.1-0.4,0.4c-0.1,0.6-0.3,0.6-0.8,0.4c-0.2-0.1-0.4-0.1-0.6,0&#xd;&#xa;&#x9;&#x9;&#x9;c-0.1,0-0.1,0.1,0,0.2c0.1,0.2,0.2,0.3,0.4,0.2c0.2,0,0.4-0.2,0.5,0.1c0.1,0.4,0.1,0.7-0.1,1c-0.2,0.2-0.4,0.1-0.6,0&#xd;&#xa;&#x9;&#x9;&#x9;c-0.3-0.1-0.7-0.3-1-0.4c-0.1,0-0.2,0-0.3,0.1c-0.1,0.1,0.1,0.2,0.2,0.2c0.2,0.1,0.3,0.2,0.5,0.3c0.1,0.1,0.3,0.1,0.2,0.3&#xd;&#xa;&#x9;&#x9;&#x9;c-0.1,0.1-0.2,0.1-0.3,0.1c-0.1,0-0.2-0.1-0.3-0.1c-0.2,0-0.5-0.1-0.7,0c-0.2,0.2,0.2,0.4,0.2,0.5c0,1.2,0.7,0.6,1.1,0.5&#xd;&#xa;&#x9;&#x9;&#x9;s0.8-0.2,1-0.6c0-0.1,0.1-0.2,0.2-0.2c0.2,0,0.1,0.2,0.1,0.3c0,0.2,0,0.5-0.1,0.7s0,0.5,0.2,0.5c0.5,0.1,0.6,0.5,0.5,0.8&#xd;&#xa;&#x9;&#x9;&#x9;c0,0.6,0.1,1.1,0.3,1.6c-0.3,0-0.5,0.1-0.8,0.1c-0.1-0.3-0.2-0.5-0.4-0.8c0.2-0.1,0.4-0.2,0.3-0.4c0-0.3-0.3-0.3-0.5-0.3&#xd;&#xa;&#x9;&#x9;&#x9;c-0.1,0-0.2,0-0.3,0c-0.2,0-0.4,0-0.4,0.3c0,0.2,0.1,0.4,0.3,0.4c-0.2,1,0.3,1.7,1.2,2c0.6-0.2,0.7-0.5,0.5-1.3&#xd;&#xa;&#x9;&#x9;&#x9;c0.3,0.2,0.7,0.4,1,0.6c1.1,0.5,2,0,2.3-1.2c0.1-0.4,0-0.7-0.1-1c-0.3-0.7-0.3-1.5-0.4-2.2c0.6,0.5,0.8,1.2,1.1,1.8&#xd;&#xa;&#x9;&#x9;&#x9;c-0.4,0-0.3,0.3-0.4,0.6c0,0.3,0.1,0.4,0.4,0.3c0.2,0,0.2,0.1,0.3,0.3c-0.8,0.1-0.8,0.1-0.8,0.9c0,0.2,0,0.4,0,0.5&#xd;&#xa;&#x9;&#x9;&#x9;c0,0.3,0.1,0.5,0.4,0.6c-0.2,0.7-0.6,1.1-1.3,1.2c-1.5,0.2-2.8-0.2-3.9-1.3c-0.5-0.4-0.9-1-1.5-1.3c-1-0.7-1.5-0.6-2,0.3&#xd;&#xa;&#x9;&#x9;&#x9;c-0.3,0.1-0.6,0.3-0.5,0.8c-0.4,0.1-0.6-0.2-0.6-0.5c0-0.5-0.3-0.5-0.6-0.4c0.2-0.4,0.4-0.7,0.6-1.1c0.3-0.5,0.6-1.1,0.4-1.7&#xd;&#xa;&#x9;&#x9;&#x9;c-0.3-1.4,0-2.7,0.8-3.8c0.1-0.1,0.3-0.3,0.1-0.5C17.5,12,17.2,11.2,17,10.4z M18.3,14.4c0.2-0.1,0.2-0.2,0.3-0.2&#xd;&#xa;&#x9;&#x9;&#x9;c0.3-0.5,0.5-1,1-1.3c0.1-0.1,0.1-0.2,0.1-0.3c-0.3-0.9-0.5-1.8-1.2-2.5C18.3,10,18.1,9.8,18,9.9c-0.2,0.1-0.1,0.3-0.1,0.5&#xd;&#xa;&#x9;&#x9;&#x9;c0.1,0.6,0.3,1.3,0.8,1.8c0.3,0.4,0.5,0.8,0.1,1.2C18.5,13.6,18.5,14,18.3,14.4z M24.6,21.6c0.3-0.1,0.6,0,0.9-0.1&#xd;&#xa;&#x9;&#x9;&#x9;c0.2-0.1,0.3-0.2,0.3-0.4c0-0.2-0.2-0.2-0.3-0.2c-0.5,0-1,0.1-1.4,0.1c-0.1,0-0.2,0.1-0.3,0.2c0,0.2,0.1,0.3,0.2,0.3&#xd;&#xa;&#x9;&#x9;&#x9;C24.1,21.5,24.4,21.5,24.6,21.6z M18.3,18c-0.1,0-0.1,0-0.2,0.1c-0.4,0.3-0.5,0.7-0.7,1.1c0,0.1,0,0.2,0.1,0.2&#xd;&#xa;&#x9;&#x9;&#x9;c0.1,0.1,0.2,0,0.2-0.1c0.2-0.3,0.6-0.5,0.9-0.7c0.1-0.1,0.3-0.2,0.2-0.3C18.7,18.1,18.5,18,18.3,18z" class="st0"/>
   <path d="M30.4,34.8c0-0.2,0.3-0.2,0.3-0.4c-0.4-0.2-0.7,0.4-1.1,0.3c0.5-0.4,1.1-0.7,1.7-1c0.8-0.5,1.7-0.8,2.5-1.2&#xd;&#xa;&#x9;&#x9;&#x9;c0.3,0,0.5-0.1,0.8-0.2c0.7-0.1,1.4-0.3,2.2-0.4c0,0.3,0.2,0.3,0.4,0.2c0.8-0.4,1.6-0.5,2.4-0.9c0.4-0.2,0.7-0.7,1.1-0.9&#xd;&#xa;&#x9;&#x9;&#x9;c0.1-0.1,0.2-0.3,0.4-0.2c-0.4,0.8-1.2,1.3-1.9,1.7c-1,0.5-2,0.8-3.1,1.1c-2,0.4-3.8,1.1-5.5,2.1C30.6,34.8,30.5,34.8,30.4,34.8z" class="st0"/>
   <path d="M9.2,21.7c0,0.2-0.6,0.5,0.1,0.5c-0.1,0.2-0.3,0.3-0.4,0.5c-0.9,0.9-0.9,1.8,0,2.7c0.4,0.4,0.7,0.7,1.2,1.1&#xd;&#xa;&#x9;&#x9;&#x9;c0.3,0.2,0.6,0.5,1,0.6c0-0.2,0-0.3,0-0.4c0.3,0.3,0.5,0.7,0.7,1.1c-0.3,0-0.5-0.2-0.7-0.4c-0.2-0.2-0.4-0.2-0.4,0.2&#xd;&#xa;&#x9;&#x9;&#x9;c-0.1-0.1-0.3-0.1-0.3-0.3c0.1,0,0.2,0,0.2-0.2L10.5,27c-0.1,0-0.1,0.1-0.2,0.2c-0.1,0.1-0.2-0.1-0.4-0.1L9.8,27&#xd;&#xa;&#x9;&#x9;&#x9;c-0.1-0.2-0.3-0.4-0.5-0.4c-0.9-0.7-1.6-1.5-1.6-2.8C7.6,22.9,8.3,22.1,9.2,21.7z" class="st0"/>
   <path d="M16.2,19.7c-0.1,0.1-0.3,0.2-0.4,0.1c-1-0.4-1.8,0.1-2.7,0.5c-0.1,0.1-0.2,0.1-0.4,0.2&#xd;&#xa;&#x9;&#x9;&#x9;c0.4-0.8,1.2-1.2,1.9-1.1c1.1,0.1,1.8-0.2,2.3-1.3c0.1-0.4,0.3-0.7,0.1-1.1c-0.5-1.4,0-2.5,0.6-3.7c0.1-0.3,0.2-0.5,0-0.8&#xd;&#xa;&#x9;&#x9;&#x9;c-0.3-0.6-0.8-1-0.8-1.8c0-0.1,0-0.2,0.1-0.3c0.2,0.8,0.5,1.6,1.2,2.2c0.2,0.2,0,0.3-0.1,0.5c-0.9,1.2-1.1,2.4-0.8,3.8&#xd;&#xa;&#x9;&#x9;&#x9;c0.1,0.6-0.1,1.2-0.4,1.7C16.6,18.9,16.4,19.3,16.2,19.7z" class="st1"/>
   <path d="M24,10.4c0.1,0,0.1,0,0.1,0c0.2,0.1,0.1,0.5,0.4,0.4c0.2-0.1-0.1-0.4-0.1-0.5c-0.1-0.5-0.5-0.8-0.8-1.2&#xd;&#xa;&#x9;&#x9;&#x9;c-0.4-0.7-0.9-0.3-1.4-0.1c0.2-0.5,0.9-0.7,1.3-0.3c0.9,0.7,1.4,1.7,1.5,2.8c0,0.4,0.1,0.8,0.2,1.2c-0.2,0-0.2-0.1-0.3-0.2&#xd;&#xa;&#x9;&#x9;&#x9;c-0.1-0.2-0.1-0.4-0.4-0.4s-0.1,0.3-0.3,0.4C24.1,11.8,24.2,11.1,24,10.4z" class="st0"/>
   <path d="M21.4,37.1c0.3,0.2,0.6,0.3,1,0.1c0.5-0.2,1-0.1,1.4,0.2c0.4,0.2,0.7,0.2,1-0.1c0.2-0.2,0.4-0.3,0.7-0.4&#xd;&#xa;&#x9;&#x9;&#x9;c0.8-0.2,1.7-0.5,2.5-0.7c-0.5,0.4-1.1,0.5-1.6,0.6c-0.5,0.2-1.1,0.3-1.5,0.8c-0.3,0.4-0.9,0.4-1.2,0c-0.4-0.4-0.9-0.4-1.3-0.1&#xd;&#xa;&#x9;&#x9;&#x9;C21.8,37.7,21.6,37.4,21.4,37.1z" class="st0"/>
   <path d="M9.8,28.4c-0.1,0.3-0.3,0.5-0.3,0.9c0,0.7,0.3,1.1,1.1,1.2c0.6,0.1,1.3,0.2,1.7,0.7c0.1,0.1,0.3,0.2,0.3,0.4&#xd;&#xa;&#x9;&#x9;&#x9;c-0.8-0.5-1.8-0.6-2.6-1c-0.7-0.3-0.9-0.8-0.7-1.5C9.4,28.8,9.3,28.4,9.8,28.4z" class="st1"/>
   <path d="M16.5,34c-0.3,0.1-0.5-0.1-0.7-0.2c-0.1-0.1-0.3-0.3-0.4-0.1c-0.2,0.2,0.2,0.3,0.3,0.4&#xd;&#xa;&#x9;&#x9;&#x9;c0.4,0.2,0.9,0.4,1.3,0.7c0.1,0,0.1,0.1,0.2,0.2c-0.9-0.3-1.8-0.7-2.5-1.4c0.1-0.2,0.1-0.4-0.1-0.6c-0.2-0.2-0.5-0.4-0.5-0.7&#xd;&#xa;&#x9;&#x9;&#x9;c0.4,0.2,0.6,0.7,1.1,0.8l0,0C15.5,33.5,16.1,33.6,16.5,34z" class="st0"/>
   <path d="M22.2,11c0.2,0.3,0.1,0.4-0.2,0.5c-0.2,0.1-0.3,0.1-0.5,0.1c-0.9,0.3-1,0.2-1.2-0.7c0.5,0.4,1,0.5,1.5,0.2&#xd;&#xa;&#x9;&#x9;&#x9;C21.9,11,22.1,11.1,22.2,11z" class="st1"/>
   <path d="M20.1,10.4c-0.6-0.5-1.2-1-1.8-1.6l0.1-0.1c0.6,0.4,1.3,0.8,1.7,1.5C20.1,10.3,20.1,10.3,20.1,10.4z" class="st1"/>
   <path d="M12.3,20.8c-0.6,0.2-1.1,0.3-1.7,0.4C11.1,20.5,11.7,20.4,12.3,20.8z" class="st1"/>
   <path d="M10.2,27.3c0,0.2,0.2,0.2,0.3,0.3c0.1,0.2,0.5,0.2,0.4,0.5c-0.1,0.2-0.4,0.2-0.7,0.2c0.2-0.2,0.3-0.3,0-0.5&#xd;&#xa;&#x9;&#x9;&#x9;c-0.2-0.1-0.4-0.3-0.4-0.6C9.9,27.1,10,27.3,10.2,27.3L10.2,27.3z" class="st1"/>
   <path d="M17.6,8.8L17.6,8.8L17.6,8.8c-0.4,0.1-0.4,0.4-0.5,0.7C17,9.6,17.1,9.8,17,10c-0.3-0.5,0-0.8,0.3-1.1&#xd;&#xa;&#x9;&#x9;&#x9;C17.4,8.8,17.5,8.6,17.6,8.8z" class="st1"/>
   <path d="M41.9,28.4c-0.1-0.3-0.1-0.6,0-0.9C42.1,27.8,42.1,28.1,41.9,28.4z" class="st0"/>
   <path d="M27.8,17.7c-0.2-0.1-0.5-0.1-0.6-0.4C27.5,17.3,27.8,17.3,27.8,17.7z" class="st0"/>
   <path d="M26.2,14.5C26,14.3,26,14,26.1,13.8C26.3,14,26.3,14.2,26.2,14.5z" class="st0"/>
   <path d="M9.2,26.7c0.2,0,0.4,0.2,0.5,0.4C9.4,27.1,9.2,26.9,9.2,26.7z" class="st1"/>
   <path d="M26.2,15.6c-0.2-0.2-0.2-0.4,0-0.6C26.3,15.2,26.2,15.4,26.2,15.6z" class="st0"/>
   <path d="M29.8,35.2c0.1-0.2,0.3-0.3,0.5-0.3C30.1,35.1,30,35.2,29.8,35.2z" class="st0"/>
   <path d="M27,17c-0.2-0.1-0.3-0.2-0.3-0.5C26.9,16.7,27,16.8,27,17z" class="st0"/>
   <path d="M12.7,31.6c0.2,0.1,0.3,0.2,0.3,0.4C12.7,32.1,12.7,31.9,12.7,31.6z" class="st1"/>
   <path d="M20.8,36.6c0.2,0,0.3,0.1,0.4,0.3C21,36.8,20.8,36.7,20.8,36.6z" class="st0"/>
   <path d="M13.2,32.3c0.1,0,0.2,0.1,0.2,0.2C13.3,32.5,13.2,32.4,13.2,32.3z" class="st1"/>
   <path d="M29.4,35.3c0-0.1,0.1-0.2,0.3-0.1C29.7,35.3,29.6,35.4,29.4,35.3z" class="st0"/>
   <path d="M20.3,10.8c-0.1,0-0.2-0.1-0.2-0.2C20.3,10.5,20.3,10.6,20.3,10.8z" class="st1"/>
   <path d="M41.7,29c-0.1-0.1,0-0.2,0.1-0.3C41.8,28.9,41.8,28.9,41.7,29z" class="st0"/>
   <path d="M28.7,35.7c0.1-0.1,0.1-0.1,0.3-0.1C28.9,35.8,28.8,35.8,28.7,35.7z" class="st0"/>
   <path d="M112.1,28.9c0.6,0,1-0.4,1-1c0-0.5-0.4-1-1-1c-0.5,0-1,0.4-1,1S111.5,28.9,112.1,28.9z" class="st0"/>
   <path d="M113.1,24.8c0-0.6-0.4-1-1-1c-0.5,0-1,0.4-1,1s0.4,1,1.1,1C112.7,25.8,113.1,25.4,113.1,24.8z" class="st0"/>
   <path d="M112.2,22.8c0.5,0,1-0.5,1-1.1s-0.4-0.9-1.1-0.9c-0.6,0-0.9,0.3-0.9,0.9C111.1,22.3,111.6,22.7,112.2,22.8z" class="st0"/>
   <path d="M24,10.4c0.2,0.7,0.1,1.4,0.3,2.1c0.1,0.3,0.3,0.5,0.5,0.6c0,0.1,0,0.3-0.2,0.4c-0.2,0.1-0.5,0.2-0.7,0.4&#xd;&#xa;&#x9;&#x9;&#x9;c-0.2,0.1-0.2,0.1-0.1,0.4c-0.1,0.4-0.2,0.7-0.1,1.1c0.2,0.3,0.2,0.7,0.1,1c-0.2,0.9-0.1,1.9-0.2,2.8c0,0.5,0.3,0.8,0.8,0.7&#xd;&#xa;&#x9;&#x9;&#x9;c0.5-0.1,0.1-0.4,0.2-0.7c0.2-0.1,0.3-0.2,0.5,0s0.4,0.1,0.4-0.2c0-0.6-0.1-1.1-0.5-1.5c0-0.1-0.1-0.2-0.1-0.3&#xd;&#xa;&#x9;&#x9;&#x9;c0.2-0.2,0.1-0.4-0.2-0.5c-0.1-0.6-0.4-1.2-0.4-1.8c0.4-0.2,0.7,0.1,1.1,0.1c-0.1,0.4-0.1,0.7,0,1.1c0.1,0.7,0.1,1.5,0.4,2.2&#xd;&#xa;&#x9;&#x9;&#x9;c0.1,0.3,0.2,0.7,0.1,1c-0.2,1.2-1.2,1.7-2.3,1.2c-0.4-0.1-0.7-0.4-1-0.6l0,0c-0.2-0.5-0.4-1-0.3-1.6c0-0.3,0-0.8-0.5-0.8&#xd;&#xa;&#x9;&#x9;&#x9;c-0.2,0-0.2-0.3-0.2-0.5c0.1-0.2,0.1-0.4,0.1-0.7c0-0.1,0.1-0.3-0.1-0.3c-0.1,0-0.2,0.1-0.2,0.2c-0.2,0.4-0.6,0.5-1,0.6&#xd;&#xa;&#x9;&#x9;&#x9;s-1.1,0.7-1.1-0.5c0-0.1-0.4-0.3-0.2-0.5c0.2-0.2,0.4-0.1,0.7,0c0.1,0,0.2,0.1,0.3,0.1c0.1,0,0.3,0.1,0.3-0.1&#xd;&#xa;&#x9;&#x9;&#x9;c0.1-0.2-0.1-0.2-0.2-0.3c-0.2-0.1-0.3-0.2-0.5-0.3c-0.1-0.1-0.2-0.1-0.2-0.2c0.1-0.1,0.2-0.1,0.3-0.1c0.3,0.1,0.7,0.3,1,0.4&#xd;&#xa;&#x9;&#x9;&#x9;c0.2,0.1,0.4,0.2,0.6,0c0.2-0.3,0.3-0.6,0.1-1c-0.1-0.3-0.3-0.2-0.5-0.1c-0.2,0-0.3-0.1-0.4-0.2c0-0.1-0.1-0.1,0-0.2&#xd;&#xa;&#x9;&#x9;&#x9;c0.2-0.1,0.4-0.1,0.6,0c0.5,0.3,0.7,0.2,0.8-0.4c0-0.3,0.2-0.4,0.4-0.4c0.3,0,0.5,0.1,0.5,0.4c0,0.2,0,0.4,0.2,0.4&#xd;&#xa;&#x9;&#x9;&#x9;c0.3,0,0.1-0.3,0.2-0.4c0.1-0.7,0.1-0.7-0.7-0.7c-0.7,0-1.3-0.1-2,0.2c-0.1,0.1-0.4,0.2-0.5-0.2c0.8-0.3,1.6-0.4,2.4-0.4&#xd;&#xa;&#x9;&#x9;&#x9;c0.1,0.1,0.2,0.1,0.2,0c0.1-0.1,0.1-0.2,0-0.3c0-0.2,0-0.3,0-0.5c0.1-0.5,0.1-1,0-1.5c0-0.2-0.1-0.4,0.1-0.4&#xd;&#xa;&#x9;&#x9;&#x9;c0.2,0.1,0.4,0.4,0.5,0.5c0,0.2,0.1,0.3,0.3,0.4C24,10.3,24,10.4,24,10.4z M22.5,15.9c0,0.1,0,0.2,0,0.3c0,0.2-0.1,0.5,0.2,0.5&#xd;&#xa;&#x9;&#x9;&#x9;c0.2,0,0.2-0.3,0.3-0.4c0.2-0.6,0.3-1.2,0-1.9c-0.1-0.2,0-0.7-0.4-0.6c-0.3,0.1-0.2,0.5-0.2,0.8c0,0,0,0,0,0.1&#xd;&#xa;&#x9;&#x9;&#x9;C22.7,14.9,22.5,15.4,22.5,15.9z M23.1,17.4c-0.3,0.5-0.4,0.9-0.3,1.3c0,0.1,0.1,0.2,0.1,0.2c0.1,0,0.2-0.1,0.2-0.2&#xd;&#xa;&#x9;&#x9;&#x9;C23.1,18.3,23.3,17.9,23.1,17.4z" class="st1"/>
   <path d="M21.2,22c-0.1-0.9-1-1.2-1.4-1.9c0-0.2,0-0.4,0-0.5c0.6,0.3,1,0.8,1.5,1.3c1.1,1,2.4,1.5,3.9,1.3&#xd;&#xa;&#x9;&#x9;&#x9;c0.7-0.1,1.1-0.5,1.3-1.2c0-0.2,0.1-0.3,0.3-0.3c0.2,0.7-0.3,1.2-0.7,1.7c-0.1,0.1-0.2,0.1-0.3,0.2c-0.1,0-0.1,0-0.1,0.1&#xd;&#xa;&#x9;&#x9;&#x9;c-0.1,0.5,0.3,0.7,0.6,1.1c-0.1,0.2-0.1,0.3,0,0.5c-0.1,0.1-0.2,0.2-0.3,0.2c-0.7,0.1-0.9,0.2-1,0.9c0,0.2-0.1,0.3-0.4,0.4&#xd;&#xa;&#x9;&#x9;&#x9;c-0.5,0-1-0.1-1.5-0.4c-1.1-0.7-1.1-0.7-0.2-1.6c0.2-0.2,0.2-0.9,0.1-0.9c-0.5,0.1-0.8-0.5-1.3-0.5l0,0C21.7,22,21.4,22.1,21.2,22&#xd;&#xa;&#x9;&#x9;&#x9;z" class="st1"/>
   <path d="M18.3,14.4c0.2-0.4,0.2-0.8,0.4-1c0.4-0.5,0.2-0.8-0.1-1.2c-0.4-0.5-0.6-1.1-0.8-1.8c0-0.2-0.1-0.4,0.1-0.5&#xd;&#xa;&#x9;&#x9;&#x9;s0.3,0.1,0.4,0.2c0.7,0.7,0.9,1.6,1.2,2.5c0,0.1,0,0.2-0.1,0.3c-0.5,0.3-0.7,0.8-1,1.3C18.5,14.2,18.5,14.3,18.3,14.4z" class="st1"/>
   <path d="M24.6,21.6c-0.2,0-0.4,0-0.7-0.1c-0.1,0-0.3-0.1-0.2-0.3c0-0.1,0.1-0.2,0.3-0.2c0.5,0,1-0.1,1.4-0.1&#xd;&#xa;&#x9;&#x9;&#x9;c0.1,0,0.3,0,0.3,0.2s-0.1,0.3-0.3,0.4C25.2,21.6,24.9,21.5,24.6,21.6z" class="st1"/>
   <path d="M27.4,19.2c-0.1,0-0.3-0.1-0.4-0.2c0-0.2,0-0.3-0.3-0.3s-0.4-0.1-0.4-0.3c0-0.2-0.1-0.6,0.4-0.6&#xd;&#xa;&#x9;&#x9;&#x9;c0.1,0.1,0.2,0.2,0.3,0.2C27.6,18.3,27.6,18.5,27.4,19.2z" class="st1"/>
   <path d="M18.3,18c0.2,0.1,0.4,0.1,0.5,0.3c0.1,0.2-0.1,0.3-0.2,0.3c-0.3,0.2-0.6,0.4-0.9,0.7&#xd;&#xa;&#x9;&#x9;&#x9;c-0.1,0.1-0.1,0.1-0.2,0.1c0,0-0.1-0.1-0.1-0.2c0.2-0.4,0.3-0.8,0.7-1.1C18.2,18,18.2,18,18.3,18z" class="st1"/>
   <path d="M21.6,19.2c-0.2,0-0.3-0.3-0.6-0.1c-0.2,0-0.4-0.2-0.3-0.4c0-0.3,0.2-0.3,0.4-0.3c0.1,0,0.2,0,0.3,0&#xd;&#xa;&#x9;&#x9;&#x9;c0.2,0,0.4,0.1,0.5,0.3C22,19,21.8,19.1,21.6,19.2z" class="st1"/>
   <path d="M22.3,21.1c-0.1-0.4-0.1-0.8-0.2-1.1c0.3,0,0.5-0.1,0.8-0.1l0,0C23,20.6,22.9,20.8,22.3,21.1z" class="st1"/>
   <path d="M17.9,19.9c-0.1,0.4,0.1,0.5,0.5,0.5c0.1,0,0.3-0.2,0.4,0c0,0,0,0,0,0.1l0,0c-0.3,0-0.5,0.1-0.8,0.1&#xd;&#xa;&#x9;&#x9;&#x9;c-0.2,0-0.4,0-0.6,0C17.3,20.2,17.6,20,17.9,19.9z" class="st1"/>
   <path d="M21.8,22.3c0.5,0,0.7,0.6,1.3,0.5c0.1,0,0.1,0.7-0.1,0.9c-0.8,0.9-0.8,0.9,0.2,1.6c0.5,0.3,0.9,0.4,1.5,0.4&#xd;&#xa;&#x9;&#x9;&#x9;c0.2,0,0.3-0.1,0.4-0.4c0.1-0.7,0.3-0.8,1-0.9c0,0.1-0.1,0.2-0.2,0.3c-0.5,0.2-0.4,0.6-0.4,0.9c0,0.4,0.4,0.3,0.6,0.3&#xd;&#xa;&#x9;&#x9;&#x9;c0.3,0.1,0.2-0.2,0.1-0.3c-0.1-0.3,0.1-0.4,0.4-0.5c0.2-0.1,0.5-0.2,0.7,0.1c0.3,0.5,0.4,0.2,0.5-0.1c0-0.1,0-0.3,0.2-0.3&#xd;&#xa;&#x9;&#x9;&#x9;c0.3,0.3,0.8,0.1,1.1,0.4c0.1,0.1,0.2,0,0.3-0.1c0.1-0.2,0.2-0.4,0.3-0.6c0.3,0.1,0.5-0.1,0.5-0.4s0-0.7,0-1&#xd;&#xa;&#x9;&#x9;&#x9;c0.2,0,0.4,0.2,0.5,0.3c0.1,0.1,0.2,0.2,0,0.3c-0.6,0.3-0.3,0.7-0.1,1.1c0.1,0.2,0.3,0.5,0.2,0.7c-0.1,0.6,0.2,1,0.7,1.2&#xd;&#xa;&#x9;&#x9;&#x9;c-0.1,0.6-0.5,0.2-0.8,0.2c-0.1-0.5-0.2-0.9-0.4-1.3c-0.1-0.1-0.1-0.3-0.3-0.3c-0.2,0-0.3,0.1-0.3,0.4c0,0.2-0.1,0.3-0.3,0.2&#xd;&#xa;&#x9;&#x9;&#x9;c-0.3,0-0.6,0-0.8-0.2c-0.4-0.4-0.6-0.2-0.9,0.2c-0.1,0.2-0.2,0.4-0.5,0.4c-0.5,0-0.8,0.2-1,0.7c-0.1,0.3-0.3,0.4-0.5,0.4&#xd;&#xa;&#x9;&#x9;&#x9;c-0.3-0.1-0.2-0.4-0.2-0.5c0.1-0.4-0.1-0.4-0.4-0.3c-0.2,0.1-0.5,0.1-0.7,0.1c-0.3-0.1-0.6-0.2-0.9-0.2c-0.1-0.2-0.2-0.2-0.4-0.3&#xd;&#xa;&#x9;&#x9;&#x9;c-0.4-0.1-0.8-0.2-0.8-0.7c0-0.1-0.1-0.1-0.2-0.1c-0.4,0.1-0.6,0-0.6-0.4c0-0.3-0.2-0.3-0.4-0.2c-0.5,0.3-0.6,0.8-0.4,1.3&#xd;&#xa;&#x9;&#x9;&#x9;c0.5-0.2,0.7-0.2,0.8,0.4c0.1,0.4,0.2,0.7,0.7,0.9c0,0.2,0.3,0.3,0.4,0.5s0.2,0.5,0.3,0.7c0.1,0.1,0,0.3-0.1,0.3&#xd;&#xa;&#x9;&#x9;&#x9;c-0.4-0.1-0.9,0.2-1.3-0.1c-0.3-0.2-0.4-0.2-0.6,0.1c-0.1,0.2-0.2,0.4-0.4,0.5c-0.6,0.3-0.4,0.6,0,0.9c0,0.1-0.1,0.3-0.1,0.4&#xd;&#xa;&#x9;&#x9;&#x9;c-0.3,0.2-0.8,0.1-1,0.5c-0.1,0.2-0.1,0.4-0.4,0.3c-0.2-0.1-0.4-0.2-0.4-0.5c0.3-0.1,0.6-0.2,0.7-0.6c0-0.1,0.1-0.1,0.1-0.2&#xd;&#xa;&#x9;&#x9;&#x9;c0.1-0.2,0.4,0,0.4-0.3c-0.1-0.2-0.4-0.2-0.6-0.2c-0.3-0.1-0.5,0-0.7,0.1c-0.1-0.2-0.2-0.4-0.3-0.7c-0.5-1-0.5-1-1.3-0.2&#xd;&#xa;&#x9;&#x9;&#x9;c-0.1,0-0.1,0.1-0.1,0.2c-0.1,0-0.2,0-0.4,0.1c-0.4-0.2-0.4-0.6-0.6-1c-0.1-0.2-0.3-0.6-0.6-0.3c-0.3,0.2-0.6,0.4-0.8,0.7&#xd;&#xa;&#x9;&#x9;&#x9;c-0.2-0.1-0.2-0.3-0.2-0.4c0.1-0.4-0.1-0.7-0.4-1.1c-0.2-0.2-0.3-0.4-0.5-0.1c-0.1,0.2-0.2,0.1-0.3-0.1s-0.3-0.3-0.3-0.5&#xd;&#xa;&#x9;&#x9;&#x9;c-0.2-0.6-0.7-0.9-1.1-1.5c0.5,0,0.8,0.3,1.2,0c0.1,0.3,0,0.7,0.4,0.8c0.3,0.2,0.7,0,1,0c0.4,0,0.4,0.2,0.3,0.4c0,0.4,0,0.7,0.1,1&#xd;&#xa;&#x9;&#x9;&#x9;c0.1,0.1,0.1,0.3,0.3,0.3c0.1,0,0.2-0.2,0.3-0.3c0.1-0.9,0.6-1.5,1.4-2c0.2-0.1,0.3-0.4,0.2-0.6c-0.1-0.2-0.3-0.3-0.5-0.3&#xd;&#xa;&#x9;&#x9;&#x9;c-0.5,0-1,0-1.4-0.5c0.4-0.1,0.8-0.1,0.9-0.7c0-0.2,0.2-0.1,0.4-0.1c0.5,0,0.6,0,0.3-0.5c-0.1-0.3-0.3-0.5,0.1-0.7&#xd;&#xa;&#x9;&#x9;&#x9;c0,0.3,0.1,0.5,0.2,0.7c0.2,0.3,0.3,0.6,0.3,1c0.1,0.5,0.4,0.8,1,0.9c0.8,0.2,1.6,0.1,2.3-0.4c0.2-0.1,0.3,0,0.4,0.1&#xd;&#xa;&#x9;&#x9;&#x9;c0.2,0.1,0.5,0.1,0.5-0.1C21.3,23.4,21.8,23,21.8,22.3z M19,29c0,0.1,0,0.3,0.2,0.3s0.2-0.2,0.2-0.3c0-0.3,0.1-0.6,0.3-0.9&#xd;&#xa;&#x9;&#x9;&#x9;c0.1-0.2,0.2-0.4,0-0.5c-0.1-0.1-0.3-0.2-0.5-0.2C19,27.5,19,27.7,19,27.9C18.9,28.3,19.1,28.7,19,29z" class="st0"/>
   <path d="M16.5,21.8c-0.4,0.2-0.2,0.4-0.1,0.7c0.2,0.5,0.2,0.6-0.3,0.5c-0.1,0-0.3,0-0.4,0.1c-0.1,0.5-0.5,0.6-0.9,0.7&#xd;&#xa;&#x9;&#x9;&#x9;c-0.2,0-0.4,0.2-0.5,0.4c-0.4,0.5-0.9,0.5-1.4,0.1c-0.6-0.5-0.6-1.2-0.7-1.8c0-0.4-0.2-0.4-0.4-0.4c-1,0.1-2,0.4-2.7,1.2&#xd;&#xa;&#x9;&#x9;&#x9;c-0.5,0.4-0.7,0.9-0.3,1.4c0.5,0.7,1,1.3,1.8,1.7l0,0c0,0.1,0.1,0.2,0.2,0.2c0,0.1,0.1,0.1,0.1,0.2s0,0.2,0,0.4&#xd;&#xa;&#x9;&#x9;&#x9;c-0.4-0.1-0.7-0.4-1-0.6c-0.4-0.3-0.8-0.7-1.2-1.1c-0.9-0.9-0.9-1.8,0-2.7c0.1-0.1,0.3-0.3,0.4-0.5c0.9-0.6,1.9-0.9,3-0.8&#xd;&#xa;&#x9;&#x9;&#x9;c0.3,0,0.4-0.1,0.6-0.3c0.5-0.7,1.3-0.9,2-1c0.5-0.1,0.8,0.4,1.2,0.6c-0.1,0.4-0.3,0.2-0.5,0.1c-0.8-0.5-1.5-0.1-2.2,0.3&#xd;&#xa;&#x9;&#x9;&#x9;s-0.7,1.2-0.6,1.9c0.1,0.4,0.4,0.7,0.8,0.9c0.4,0.1,0.6-0.2,0.7-0.5c0.1-0.2,0.3-0.3,0.5-0.3c0.5,0,0.8-0.2,0.8-0.7&#xd;&#xa;&#x9;&#x9;&#x9;c0-0.4,0.3-0.6,0.5-0.8c0.3-0.3,0.5-0.2,0.6,0.2C16.6,21.8,16.6,21.8,16.5,21.8z" class="st1"/>
   <path d="M14.3,28.6c0.2-0.3,0.5-0.5,0.8-0.7c0.3-0.3,0.5,0.1,0.6,0.3c0.2,0.3,0.2,0.7,0.6,1c-0.1,0.2-0.2,0.4-0.4,0.5&#xd;&#xa;&#x9;&#x9;&#x9;c-0.1,0.1-0.3,0.1-0.3,0.3c0,0.2,0.2,0.2,0.3,0.2s0.3-0.1,0.3,0.1s-0.1,0.3-0.3,0.3c-0.4,0-0.3,0.2-0.1,0.4&#xd;&#xa;&#x9;&#x9;&#x9;c0.1,0.1,0.3,0.3,0.4,0.4c0.1,0.2,0.1,0.3-0.1,0.4c-0.4,0-0.9,0.1-1.2-0.3H15c0.2,0,0.4,0.1,0.5-0.2c0.1-0.2-0.1-0.2-0.2-0.4&#xd;&#xa;&#x9;&#x9;&#x9;c-0.2-0.2-0.2-0.4-0.1-0.6c0-0.1,0.1-0.2,0-0.3c-0.1-0.1-0.2,0-0.3,0.1c-0.5,0.3-0.6,0.3-0.7-0.3c0-0.2,0-0.4-0.1-0.6l0,0&#xd;&#xa;&#x9;&#x9;&#x9;c0.1,0,0.3,0.1,0.4-0.1c0.1-0.1,0-0.2-0.1-0.2C14.3,28.7,14.3,28.6,14.3,28.6z" class="st1"/>
   <path d="M14,29.1c0,0.2,0,0.4,0.1,0.6c0.1,0.6,0.2,0.6,0.7,0.3c0.1-0.1,0.2-0.1,0.3-0.1c0.1,0.1,0.1,0.2,0,0.3&#xd;&#xa;&#x9;&#x9;&#x9;c-0.1,0.2-0.1,0.4,0.1,0.6c0.1,0.1,0.3,0.1,0.2,0.4c-0.1,0.2-0.3,0.2-0.5,0.2h-0.1h-0.1c-0.1-0.1-0.1-0.1-0.2-0.2&#xd;&#xa;&#x9;&#x9;&#x9;c-0.4-0.4-1-0.3-1.3-0.6c0.2-0.1,0.3-0.1,0.4-0.3c0.2-0.2,0.3-0.5-0.2-0.5c-0.2,0-0.4-0.1-0.3-0.4c0-0.3,0.2-0.3,0.4-0.2&#xd;&#xa;&#x9;&#x9;&#x9;C13.7,29.2,13.8,29,14,29.1z" class="st0"/>
   <path d="M10.6,26.3c-0.8-0.4-1.3-1.1-1.8-1.7c-0.3-0.4-0.1-1,0.3-1.4c0.1,0.1,0,0.5,0.3,0.1c0.1-0.1,0.3-0.2,0.5-0.2&#xd;&#xa;&#x9;&#x9;&#x9;c0,0.1,0.1,0.3,0.3,0.3c-0.3,0.4-0.2,1-0.6,1.4c-0.2,0.3,0.1,0.5,0.4,0.7C10.2,25.8,10.6,25.9,10.6,26.3z" class="st0"/>
   <path d="M13.2,30.5c0.4,0.4,1,0.2,1.3,0.6c0.1,0.1,0.1,0.1,0.2,0.2c-0.2,0-0.3-0.1-0.5-0.1c-0.1,0-0.3-0.1-0.4,0.1&#xd;&#xa;&#x9;&#x9;&#x9;c-0.1,0.1,0,0.3,0.1,0.4s0.2,0.2,0.2,0.3c0.3,0.4,0.8,0.5,0.9,1.1c-0.5-0.1-0.6-0.7-1.1-0.8c-0.4-0.6-1.1-1-1.3-1.7&#xd;&#xa;&#x9;&#x9;&#x9;c0.1,0,0.2,0,0.2,0C13.1,30.5,13.2,30.5,13.2,30.5z" class="st1"/>
   <path d="M10.2,23.5c-0.1-0.1-0.2-0.1-0.3-0.3c0.3-0.4,0.8-0.4,1.2-0.6c0.2-0.1,0.5-0.1,0.6,0.1c0.1,0.1,0.1,0.3,0,0.5&#xd;&#xa;&#x9;&#x9;&#x9;c-0.1,0.3-0.4,0.1-0.6,0.1c-0.1,0-0.1,0-0.2,0c-0.1-0.1-0.2-0.1-0.2,0C10.6,23.4,10.4,23.4,10.2,23.5z" class="st1"/>
   <path d="M13.1,25.8c-0.5-0.1-0.3-0.5-0.4-0.8c0.1-0.2,0.2-0.5,0.5-0.4c0.2,0.1,0.1,0.4,0.1,0.6&#xd;&#xa;&#x9;&#x9;&#x9;C13.2,25.4,13.2,25.6,13.1,25.8z" class="st1"/>
   <path d="M13,28.1c0.1,0.1,0.3,0.1,0.4,0.3c0,0.1-0.1,0.2-0.2,0.2c-0.2,0-0.3-0.2-0.3-0.4C12.8,28.2,12.8,28.1,13,28.1&#xd;&#xa;&#x9;&#x9;&#x9;z" class="st0"/>
   <path d="M14.3,28.8c0.1,0,0.2,0.2,0.1,0.2c-0.1,0.1-0.3,0.1-0.4,0.1C14,28.9,14.1,28.8,14.3,28.8z" class="st0"/>
   <path d="M13.1,30.4c-0.1,0-0.2,0-0.2,0c-0.1,0-0.1-0.1,0-0.2C12.9,30.2,13,30.3,13.1,30.4z" class="st0"/>
   <path d="M10.9,26.6c-0.1,0-0.2-0.1-0.2-0.2C10.8,26.3,11,26.3,10.9,26.6z" class="st0"/>
   <path d="M10.7,23.4c0.1-0.1,0.1-0.2,0.2,0C10.9,23.4,10.8,23.4,10.7,23.4z" class="st0"/>
   <path d="M34.4,24.6c0.2,0,0.2,0.2,0.2,0.4c0,0.1,0,0.2,0.1,0.3c0.2,0,0.2-0.1,0.2-0.2s0.1-0.2,0.1-0.3&#xd;&#xa;&#x9;&#x9;&#x9;c0.1-0.7,0.7-0.9,1.2-1.1c0.2-0.1,0.6,0.1,0.9,0.3c0.1,0.1,0.2,0.3,0.4,0.4c0.3,0.3,0.3,0.5,0,0.8c-0.4,0.4-0.4,1,0.1,1.4&#xd;&#xa;&#x9;&#x9;&#x9;c-0.1,0.2-0.4,0.3-0.3,0.6c-0.6,0-0.9,0.2-0.8,0.6c0.1,0.6-0.3,1-0.7,1.3c-0.2,0.2-0.4,0.4-0.6,0.7c-0.8,0-1.2,0.6-1.7,1h-0.1&#xd;&#xa;&#x9;&#x9;&#x9;c-0.2,0-0.3,0.2-0.5,0.3c-0.5,0.3-0.6,0.3-0.8-0.3c-0.1-0.2-0.2-0.3-0.4-0.3c-0.2,0-0.4,0-0.4,0.3c0.1,0.6-0.4,0.6-0.8,0.7&#xd;&#xa;&#x9;&#x9;&#x9;c-0.5,0.1-0.9-0.1-0.9-0.7c0-0.3,0-0.6,0-0.9c0.3-0.2,0.6-0.6,1-0.3c0.7,0.4,1.1,0,1.6-0.5c0.4-0.1,0.7-0.3,0.7-0.7&#xd;&#xa;&#x9;&#x9;&#x9;c0-0.4-0.4-0.5-0.8-0.6c-0.3,0-0.2-0.2-0.3-0.4c0.2-0.2,0.3-0.4,0.5-0.6c0.4-0.1,0.4-0.6,0.7-0.7C33.6,25.6,33.9,24.9,34.4,24.6z" class="st0"/>
   <path d="M31.9,20.5c0.6,0.3,0.7,0.9,0.8,1.5c-0.4,0.1-0.4,0.3-0.4,0.7c0,0.2,0,0.3,0.2,0.4s0.5,0.1,0.5,0.4&#xd;&#xa;&#x9;&#x9;&#x9;s-0.1,0.6-0.5,0.8c-0.4,0.2-0.6,0.5-0.5,1c0,0.2,0,0.4,0,0.6c-0.5,0.2-0.8,0.1-0.7-0.5c0-0.3,0.1-0.5,0.1-0.8c0-0.4-0.2-0.9,0.5-1&#xd;&#xa;&#x9;&#x9;&#x9;c0.1,0,0.2-0.1,0.2-0.2s-0.2-0.1-0.3,0c-0.4,0.1-0.6-0.1-0.8-0.3c-0.2-0.3-0.5-0.5-0.9-0.5c-0.3,0-0.4-0.2-0.4-0.4&#xd;&#xa;&#x9;&#x9;&#x9;c0-0.4-0.2-0.6-0.5-0.8c-0.4-0.3-0.4-0.6,0.1-0.8c0.1-0.1,0.3-0.1,0.4-0.1c0.7-0.3,1.2,0.1,1.9,0.2C31.7,20.7,31.9,20.9,31.9,20.5&#xd;&#xa;&#x9;&#x9;&#x9;z M30.3,21.7c0.2,0.4,0.5,0.6,0.8,0.7c0.1,0.1,0.3,0.3,0.4,0c0.1-0.2,0.1-0.4-0.1-0.5C31.1,21.7,30.8,21.5,30.3,21.7z M30.1,21&#xd;&#xa;&#x9;&#x9;&#x9;c0-0.2-0.2-0.3-0.4-0.3c-0.2,0-0.3,0.1-0.3,0.3c0,0.2,0.1,0.3,0.3,0.3C29.8,21.3,30,21.3,30.1,21z" class="st0"/>
   <path d="M37.3,27.1c-0.1-0.3,0.2-0.4,0.3-0.6c0.7,0,1.3-0.1,2-0.1s1.4,0.2,1.7,0.8c0.3,0.7,0,1.4-0.4,2&#xd;&#xa;&#x9;&#x9;&#x9;c-0.2,0.3-0.4,0.5-0.7,0.8c-0.1,0-0.2,0.1-0.2,0.2c-1,0.8-2.1,1.2-3.3,1.5c-0.7,0.1-1.4,0.3-2.2,0.4c-0.1-0.2-0.1-0.4-0.3-0.4&#xd;&#xa;&#x9;&#x9;&#x9;c-0.1-0.1-0.3-0.1-0.1-0.3c0.3,0.1,0.6,0,0.8-0.1c0.2,0,0.5-0.1,0.7-0.1c0.7,0.1,1.3-0.3,1.9-0.4c1.4-0.4,2.5-1.2,3.1-2.5&#xd;&#xa;&#x9;&#x9;&#x9;c0.1-0.3,0.2-0.5,0-0.8c-0.3-0.4-0.8-0.5-1.2-0.5C38.7,27,38,27,37.3,27.1z" class="st1"/>
   <path d="M31.9,20.5c0,0.3-0.2,0.2-0.4,0.1c-0.6-0.1-1.2-0.5-1.9-0.2c-0.1,0.1-0.3,0.1-0.4,0.1&#xd;&#xa;&#x9;&#x9;&#x9;c-0.4,0.2-0.5,0.5-0.1,0.8c0.3,0.2,0.5,0.4,0.5,0.8c0,0.2,0.1,0.4,0.4,0.4c0.4,0,0.7,0.2,0.9,0.5c0.2,0.2,0.5,0.4,0.8,0.3&#xd;&#xa;&#x9;&#x9;&#x9;c0.1,0,0.2-0.1,0.3,0c0,0.1-0.1,0.2-0.2,0.2c-0.7,0.1-0.6,0.6-0.5,1c0,0.3-0.1,0.5-0.1,0.8c0,0.7,0.2,0.9,0.8,0.7c0,0,0,0,0.1,0.1&#xd;&#xa;&#x9;&#x9;&#x9;c-0.1,0.4-0.7,0.3-0.7,0.7c-0.5-0.3-0.8-0.6-0.7-1.2c0-0.3-0.1-0.5-0.2-0.7c-0.2-0.4-0.5-0.8,0.1-1.1c0.1-0.1,0.1-0.2,0-0.3&#xd;&#xa;&#x9;&#x9;&#x9;c-0.2-0.1-0.3-0.3-0.5-0.3c-0.2-0.1-0.5-0.1-0.7,0c-0.1,0-0.2-0.1-0.4-0.1c0-0.1,0-0.1,0-0.2c0.2-0.6,0.2-1-0.4-1.4&#xd;&#xa;&#x9;&#x9;&#x9;c-0.2-0.1-0.2-0.5,0-0.7c0.3-0.4,0.6-0.8,1.2-0.9C30.5,19.8,31.2,20,31.9,20.5z" class="st1"/>
   <path d="M32,26c0-0.2,0-0.4,0-0.6c-0.1-0.5,0.1-0.8,0.5-1s0.4-0.5,0.5-0.8c0-0.4-0.2-0.4-0.5-0.4s-0.2-0.2-0.2-0.4&#xd;&#xa;&#x9;&#x9;&#x9;c0-0.3,0.1-0.6,0.4-0.7c0.5,0.3,1.1,0.3,1.5,0.6c0.2,0.1,0.3,0.2,0.1,0.4c-0.5,0.4-0.4,0.8,0,1.2c0.1,0.1,0,0.2,0.1,0.3&#xd;&#xa;&#x9;&#x9;&#x9;c-0.5,0.3-0.8,1-1.4,1.3c-0.3,0.1-0.2,0.7-0.7,0.7C32.3,26.4,32.7,26,32,26L32,26z" class="st1"/>
   <path d="M26.9,20.7c0.2-0.4,0-0.9,0.4-1.2c0.2,0,0.3,0.5,0.6,0.2c0.1-0.1,0.2,0.1,0.2,0.2c0,0.2,0.1,0.5-0.1,0.7&#xd;&#xa;&#x9;&#x9;&#x9;c-0.1,0.1-0.2,0.1-0.3,0c-0.3-0.3-0.4,0-0.6,0.2s-0.2,0.5,0.1,0.7c0.5,0.2,0.3,0.6,0.2,0.9c-0.1,0-0.2,0-0.3-0.1&#xd;&#xa;&#x9;&#x9;&#x9;c-0.2-0.1-0.4-0.1-0.5,0.2c-0.1,0.2,0,0.4,0.3,0.5c0.1,0,0.2,0,0.2,0.1c-0.3,0.3-0.5,0.2-0.7-0.1c-0.1-0.2-0.1-0.4-0.3-0.5&#xd;&#xa;&#x9;&#x9;&#x9;C26.6,21.9,27.1,21.4,26.9,20.7z" class="st0"/>
   <path d="M25.5,14.9c-0.4,0-0.7-0.3-1.1-0.1c-0.2-0.2-0.1-0.7-0.6-0.6c-0.1-0.3-0.1-0.3,0.1-0.4&#xd;&#xa;&#x9;&#x9;&#x9;c0.2-0.1,0.5-0.3,0.7-0.4c0.2-0.1,0.2-0.2,0.2-0.4C25.6,13.5,25.8,14.1,25.5,14.9z" class="st0"/>
   <path d="M27.2,23c0-0.1-0.1-0.1-0.2-0.1c-0.3,0-0.3-0.2-0.3-0.5c0.1-0.3,0.3-0.3,0.5-0.2c0.1,0,0.2,0.1,0.3,0.1&#xd;&#xa;&#x9;&#x9;&#x9;c0.2,0.1,0.4,0.2,0.6,0.4c0,0.2,0.2,0.2,0.3,0.2l0,0c0,0.1,0,0.3,0,0.5c-0.2,0-0.4-0.2-0.6-0.2c-0.1-0.1-0.1-0.2-0.2-0.1&#xd;&#xa;&#x9;&#x9;&#x9;C27.4,23,27.3,23,27.2,23z" class="st1"/>
   <path d="M28.4,23.3c0-0.1,0-0.3,0-0.5c0.2,0,0.3,0.3,0.6,0.2c0.1,0,0.2,0.1,0.4,0.1c0,0.2,0,0.4-0.2,0.5&#xd;&#xa;&#x9;&#x9;&#x9;c-0.2,0-0.3-0.1-0.5-0.1C28.5,23.5,28.4,23.4,28.4,23.3z" class="st0"/>
   <path d="M28,18.9c0.1,0.2,0.1,0.3,0,0.5c-0.1,0.1-0.1,0-0.2,0C27.7,19.1,27.8,19,28,18.9z" class="st0"/>
   <path d="M28.4,22.8c-0.1,0-0.3,0-0.3-0.2C28.2,22.5,28.3,22.6,28.4,22.8z" class="st0"/>
   <path d="M40,30.2c0-0.1,0.1-0.2,0.2-0.2C40.3,30.2,40.2,30.3,40,30.2z" class="st0"/>
   <path d="M16.7,21.7c-0.1-0.4-0.3-0.4-0.6-0.2c-0.3,0.2-0.5,0.5-0.5,0.8c0,0.5-0.4,0.7-0.8,0.7c-0.2,0-0.4,0.1-0.5,0.3&#xd;&#xa;&#x9;&#x9;&#x9;c-0.1,0.3-0.3,0.6-0.7,0.5s-0.7-0.4-0.8-0.9c-0.1-0.7-0.1-1.4,0.6-1.9c0.7-0.4,1.4-0.8,2.2-0.3c0.2,0.1,0.4,0.3,0.5-0.1&#xd;&#xa;&#x9;&#x9;&#x9;c0.4,0,0.6,0.4,0.8,0.6C17.1,21.6,16.9,21.7,16.7,21.7z M14.8,22.3c0,0,0-0.1-0.1-0.1c-0.2-0.1-0.4,0-0.6,0.2&#xd;&#xa;&#x9;&#x9;&#x9;c-0.1,0.1-0.2,0.3-0.2,0.5C13.9,23,14,23,14,23C14.2,23,14.8,22.5,14.8,22.3z" class="st0"/>
   <path d="M18,20.6c0.3,0,0.5-0.1,0.8-0.1c0,0.3,0.1,0.4,0.4,0.4c0.4-0.1,0.6,0.1,0.8,0.4c0.1,0.2,0.2,0.3,0.4,0.4&#xd;&#xa;&#x9;&#x9;&#x9;c0.4,0.4,0.5,0.7,0.2,1.2c-0.1,0.2,0,0.6-0.3,0.6s-0.2-0.4-0.3-0.6c-0.2-0.3-0.4-0.5-0.5-0.9c-0.1-0.3-0.5-0.6-0.8-0.3&#xd;&#xa;&#x9;&#x9;&#x9;c-0.4,0.4-0.7,0.1-1-0.2C18.2,21.3,18.3,21,18,20.6z" class="st0"/>
   <path d="M21.2,22c0.2,0.1,0.5,0,0.5,0.3C21.6,22.3,21.3,22.4,21.2,22z" class="st0"/>
   <path d="M19.2,20.2c0.1-0.2,0.2-0.2,0.3-0.1C19.4,20.2,19.3,20.2,19.2,20.2z" class="st1"/>
   <path d="M15.1,33c0.5,0.2,0.9,0.1,1.4,0c0.6-0.1,1.1,0.3,1.6,0.4c0.5,0.1,1,0.3,1.5,0.5c0.1,0,0.3,0.1,0.3,0.3&#xd;&#xa;&#x9;&#x9;&#x9;s-0.2,0.3-0.3,0.3c-0.1,0-0.1,0-0.2,0s-0.3-0.1-0.4,0.1s0.2,0.2,0.2,0.3c0.1,0.2,0.6,0.1,0.6,0.5c-0.7,0-1.3-0.4-2-0.7&#xd;&#xa;&#x9;&#x9;&#x9;c-0.4-0.3-0.7-0.5-1.2-0.6c-0.1,0-0.1-0.1-0.2-0.1C16.1,33.6,15.5,33.5,15.1,33z" class="st1"/>
   <path d="M28.3,35.4c0.5-0.5,1.1-0.9,1.7-1.2c1-0.7,2.2-1.1,3.2-1.7c0.2-0.1,0.4-0.2,0.6,0c-0.8,0.4-1.7,0.8-2.5,1.2&#xd;&#xa;&#x9;&#x9;&#x9;c-0.6,0.3-1.2,0.6-1.7,1C29.2,34.9,28.8,35.3,28.3,35.4z" class="st1"/>
   <path d="M16.6,34.1c0.5,0.1,0.9,0.3,1.2,0.6C17.4,34.6,17,34.5,16.6,34.1z" class="st0"/>
   <path d="M26.5,36.1c0.4-0.4,0.9-0.5,1.5-0.6C27.5,35.8,27,36,26.5,36.1z" class="st1"/>
   <path d="M23.8,36.8c0.4,0.2,0.6-0.4,1-0.3v0.1c-0.2,0-0.2,0.1-0.2,0.3C24.5,37,24.5,37,24.4,37s-0.2,0-0.4,0&#xd;&#xa;&#x9;&#x9;&#x9;C23.9,37,23.8,36.9,23.8,36.8z" class="st1"/>
   <path d="M20.7,35.5c0.4,0,0.3,0.3,0.3,0.5C20.7,36,20.7,35.7,20.7,35.5z" class="st0"/>
   <path d="M24,37c0.1,0,0.2,0,0.4,0C24.2,37.2,24.1,37.2,24,37z" class="st0"/>
   <path d="M24.9,36.4c0.1-0.2,0.2-0.3,0.3-0.1C25.1,36.5,25,36.5,24.9,36.4z" class="st1"/>
   <path d="M24.5,36.9c0-0.2,0.1-0.3,0.2-0.3C24.8,36.7,24.8,36.9,24.5,36.9z" class="st0"/>
   <path d="M21.8,36.7c0.1,0,0.2,0,0.3,0.1C21.9,36.9,21.8,36.9,21.8,36.7z" class="st0"/>
   <path d="M25.6,36.3c0-0.2,0.1-0.2,0.2-0.1C25.8,36.3,25.7,36.4,25.6,36.3z" class="st1"/>
   <path d="M23.2,9.3C22.9,9.4,23,9.6,23,9.8c0.1,0.5,0.1,1,0,1.5c-0.2-0.2-0.3-0.5-0.2-0.7c0-0.4,0.1-0.7,0-1&#xd;&#xa;&#x9;&#x9;&#x9;c0-0.2,0-0.3,0.2-0.4C23.1,9.1,23.2,9.2,23.2,9.3z" class="st0"/>
   <path d="M23,11.8c0.2,0.1,0.1,0.2,0,0.3s-0.1,0.2-0.2,0C22.9,12,22.9,11.9,23,11.8z" class="st0"/>
   <path d="M24,10.3c-0.2-0.1-0.3-0.2-0.3-0.4C24,9.9,24.1,10,24,10.3z" class="st0"/>
   <path d="M22.5,15.9c0-0.5,0.2-0.9-0.1-1.4c0,0,0,0,0-0.1c0-0.3-0.1-0.7,0.2-0.8c0.4-0.1,0.3,0.4,0.4,0.6&#xd;&#xa;&#x9;&#x9;&#x9;c0.2,0.6,0.1,1.2,0,1.9c-0.1,0.2-0.1,0.4-0.3,0.4c-0.3,0-0.2-0.3-0.2-0.5C22.5,16,22.5,16,22.5,15.9z" class="st0"/>
   <path d="M24.7,19.2c-0.1-0.4-0.4-0.9,0.2-1.2c0.2-0.1,0.1-0.4,0.2-0.6c0.4,0.5,0.5,1,0.5,1.5c0,0.3-0.2,0.4-0.4,0.2&#xd;&#xa;&#x9;&#x9;&#x9;C25,19,24.9,19.1,24.7,19.2z" class="st0"/>
   <path d="M23.1,17.4c0.2,0.5,0.1,0.9,0,1.3c0,0.1-0.1,0.2-0.2,0.2s-0.1-0.1-0.1-0.2C22.7,18.2,22.8,17.9,23.1,17.4z" class="st0"/>
   <path d="M25,17.1c-0.2-0.1-0.2-0.3-0.2-0.5C25.2,16.7,25.2,16.9,25,17.1z" class="st0"/>
   <path d="M26.4,23.8c0.3,0.2,0.2,0.4,0,0.5C26.3,24.1,26.3,24,26.4,23.8z" class="st0"/>
   <path d="M26,22.6C25.9,22.6,25.9,22.7,26,22.6C25.9,22.6,25.9,22.6,26,22.6z" class="st0"/>
   <path d="M21.6,31.6c0.1-0.7,0.6-1,1.1-1.4c0.1-0.1,0.3-0.2,0.2-0.3c-0.2-0.2,0-0.5-0.4-0.6c-0.2,0-0.3,0.1-0.3,0.3&#xd;&#xa;&#x9;&#x9;&#x9;c0,0.1,0,0.3-0.2,0.3c-0.1-0.2,0.2-0.5-0.1-0.6c-0.2-0.1-0.3,0.1-0.4,0.3c-0.4,0-0.6,0.5-1,0.5c-0.4-0.3-0.6-0.6,0-0.9&#xd;&#xa;&#x9;&#x9;&#x9;c0.2-0.1,0.3-0.3,0.4-0.5c0.2-0.2,0.4-0.3,0.6-0.1c0.4,0.3,0.9,0,1.3,0.1c0.1,0,0.1-0.2,0.1-0.3c-0.1-0.2-0.2-0.5-0.3-0.7&#xd;&#xa;&#x9;&#x9;&#x9;c0.2,0,0.4,0.1,0.5-0.1c0.2-0.4,0.6-0.4,1-0.5c0.4,0,0.5-0.2,0.5-0.6c0.2,0,0.5,0,0.7-0.1c0.3-0.1,0.5-0.1,0.4,0.3&#xd;&#xa;&#x9;&#x9;&#x9;c-0.1,0.2-0.1,0.5,0.2,0.5c0.3,0.1,0.5-0.1,0.5-0.4c0.1-0.5,0.4-0.7,1-0.7c0.3,0,0.4-0.2,0.5-0.4c0.2-0.3,0.5-0.5,0.9-0.2&#xd;&#xa;&#x9;&#x9;&#x9;c0.2,0.2,0.5,0.2,0.8,0.2c0.2,0,0.3,0,0.3-0.2s0.1-0.4,0.3-0.4c0.2,0,0.2,0.2,0.3,0.3c0.1,0.4,0.3,0.9,0.4,1.3&#xd;&#xa;&#x9;&#x9;&#x9;c-0.2,0.1-0.4,0-0.7-0.1c0-0.3,0-0.5-0.3-0.6c-0.2,0-0.4,0-0.5,0.3s0.1,0.4,0.3,0.4c0.2,0.4,0.5,0.7,0.1,1.1&#xd;&#xa;&#x9;&#x9;&#x9;c-0.1,0.1,0.1,0.2,0.2,0.3c0.1,0.1,0.2,0.2,0.2,0.3c-0.1,0.2-0.2,0.1-0.4,0.1c-0.3-0.3-0.9-0.6-1.2-0.4c-0.4,0.3-0.5,0.1-0.7-0.1&#xd;&#xa;&#x9;&#x9;&#x9;s-0.4-0.4-0.6-0.5c-0.4-0.3-0.8-0.2-1,0.1c-0.4,0.3,0.1,0.5,0.3,0.7c-0.1,0.1-0.3,0-0.4,0.1c-0.2,0-0.5,0-0.6,0.3s0.3,0.3,0.5,0.4&#xd;&#xa;&#x9;&#x9;&#x9;c0.3,0.1,0.6,0.3,0.6,0.7c-0.2,0-0.3-0.2-0.5-0.3c-0.1-0.1-0.3-0.2-0.4,0c-0.1,0.1-0.2,0.3-0.1,0.4c0.4,0.4,0.2,0.9,0.4,1.3&#xd;&#xa;&#x9;&#x9;&#x9;c-0.7-0.1-1,0.6-1.5,0.8c0-0.1,0-0.2,0-0.4c0-0.4-0.2-0.6-0.6-0.4c-0.3,0.1-0.6,0.3-0.6-0.2c0-0.2-0.2-0.2-0.3-0.1&#xd;&#xa;&#x9;&#x9;&#x9;c-0.3,0.4-0.8,0.5-1.1,0.9C21.6,31.7,21.6,31.6,21.6,31.6z" class="st1"/>
   <path d="M21.9,27.3c-0.4-0.1-0.6-0.5-0.7-0.9c-0.1-0.6-0.2-0.6-0.8-0.4c-0.2-0.6,0-1.1,0.4-1.3&#xd;&#xa;&#x9;&#x9;&#x9;c0.2-0.1,0.4-0.1,0.4,0.2c0,0.5,0.2,0.6,0.6,0.4c0.1,0,0.2,0,0.2,0.1c0.1,0.5,0.5,0.6,0.8,0.7c0.2,0.1,0.3,0.1,0.4,0.3&#xd;&#xa;&#x9;&#x9;&#x9;C22.9,26.7,22.4,27,21.9,27.3z" class="st1"/>
   <path d="M19.9,32.3c0,0.2,0,0.4-0.3,0.5s-0.3-0.2-0.4-0.4c-0.2-0.6-0.7-0.9-1.2-1.3c-0.3-0.3-0.6-0.5-0.8-0.8&#xd;&#xa;&#x9;&#x9;&#x9;c-0.2-0.2-0.2-0.4,0.2-0.4c0.3,0,0.5,0,0.5-0.4s-0.3-0.4-0.5-0.5c-0.3,0-0.5,0-0.8,0c0-0.1,0.1-0.1,0.1-0.2&#xd;&#xa;&#x9;&#x9;&#x9;c0.8-0.7,0.8-0.7,1.3,0.2c0.1,0.2,0.3,0.4,0.3,0.7c0,0.1-0.1,0.2-0.1,0.3c-0.3,0.4-0.3,0.6,0.1,0.9l0,0c-0.1,0.3,0.1,0.4,0.4,0.5&#xd;&#xa;&#x9;&#x9;&#x9;s0.3-0.2,0.4-0.3c0.2-0.4,0.7-0.3,1-0.5c0,0.1,0.1,0.2,0.1,0.3c-0.1,0.2-0.3,0.2-0.5,0.3c-0.3,0.2-0.3,0.6-0.3,0.9&#xd;&#xa;&#x9;&#x9;&#x9;C19.5,32.3,19.7,32.3,19.9,32.3z" class="st1"/>
   <path d="M27.8,24.8c0-0.3,0-0.6,0.4-0.6c0.4-0.1,0.4-0.4,0.4-0.7c0.2,0,0.3,0.1,0.5,0.1c0.1,0.3,0.3,0.6,0.4,0.9&#xd;&#xa;&#x9;&#x9;&#x9;c-0.1,0.2-0.2,0.4-0.3,0.6c-0.1,0.1-0.2,0.2-0.3,0.1C28.6,24.9,28.1,25.1,27.8,24.8z" class="st1"/>
   <path d="M19,29c0.1-0.4-0.1-0.7,0-1.1c0-0.2,0.1-0.4,0.3-0.4c0.2,0,0.4,0,0.5,0.2s0.1,0.4,0,0.5&#xd;&#xa;&#x9;&#x9;&#x9;c-0.2,0.3-0.3,0.5-0.3,0.9c0,0.2,0,0.3-0.2,0.3C19,29.4,19,29.2,19,29z" class="st1"/>
   <path d="M28.9,29.2c0,0.5,0.4,0.4,0.7,0.5c0,0.3,0,0.6,0,0.9c0,0.5,0.4,0.8,0.9,0.7c0.4-0.1,0.8,0,0.8-0.7&#xd;&#xa;&#x9;&#x9;&#x9;c0-0.2,0.2-0.2,0.4-0.3c0.2,0,0.3,0,0.4,0.3c0.2,0.6,0.3,0.6,0.8,0.3c0.2-0.1,0.3-0.3,0.5-0.3c-0.5,0.9-1.1,1.2-2.1,0.9&#xd;&#xa;&#x9;&#x9;&#x9;c-0.4-0.1-0.5,0.1-0.7,0.4c-0.2,0.5-0.5,0.6-1,0.4c-0.1,0-0.3-0.2-0.4-0.1c-0.4,0.3-0.9,0.2-1.3,0.1c0.3-0.6,0.2-1.1-0.1-1.7&#xd;&#xa;&#x9;&#x9;&#x9;c-0.1-0.3-0.2-0.5,0.2-0.7c0.1,0,0.2-0.1,0.2-0.2s-0.1-0.2-0.3-0.2c-0.4,0-0.9,0-0.8,0.6C27,30.2,27,30.1,27,30&#xd;&#xa;&#x9;&#x9;&#x9;c0-0.3,0.3-0.5,0.2-0.9c0,0,0-0.1,0.1-0.1h0.1C27.8,29.2,28.4,28.9,28.9,29.2z" class="st1"/>
   <path d="M32.2,28.9c0-0.3-0.2-0.2-0.3-0.3c-0.2,0-0.5,0.1-0.6-0.2c0-0.4-0.4-0.8,0.3-1c0.1,0,0.2-0.1,0.3-0.2&#xd;&#xa;&#x9;&#x9;&#x9;c0,0.2,0,0.4,0.3,0.4c0.4,0,0.8,0.2,0.8,0.6C32.9,28.6,32.6,28.8,32.2,28.9z" class="st1"/>
   <path d="M35.2,29.6c-0.1,0.6-0.5,1-0.8,1.5c-0.1,0-0.1,0.1-0.2,0.1c-0.1-0.3-0.1-0.7-0.7-0.6&#xd;&#xa;&#x9;&#x9;&#x9;C34,30.2,34.4,29.6,35.2,29.6z" class="st1"/>
   <path d="M30.3,21.7c0.5-0.1,0.8,0.1,1.1,0.3c0.2,0.1,0.2,0.3,0.1,0.5s-0.3,0-0.4,0C30.8,22.2,30.5,22.1,30.3,21.7z" class="st1"/>
   <path d="M30.1,21c-0.1,0.2-0.2,0.3-0.4,0.2c-0.2,0-0.4-0.1-0.3-0.3c0-0.2,0.2-0.3,0.3-0.3C29.8,20.7,30,20.8,30.1,21z&#xd;&#xa;&#x9;&#x9;&#x9;" class="st1"/>
   <path d="M35.6,31.2c0.1-0.2,0.2-0.4-0.1-0.4c-0.1,0-0.2-0.1-0.1-0.2c1.5-0.1,2.9-0.5,4-1.6c0.3-0.3,0.7-0.7,0.7-1.2&#xd;&#xa;&#x9;&#x9;&#x9;c0.2-0.1,0.4,0,0.6-0.2c0.2,0.3,0.1,0.5,0,0.8c-0.7,1.3-1.8,2.1-3.1,2.5C36.9,30.9,36.3,31.3,35.6,31.2z" class="st0"/>
   <path d="M34.1,31.2c0.1,0,0.1-0.1,0.2-0.1c0.2,0,0.4,0,0.5,0.2c-0.2,0.2-0.5,0.3-0.8,0.1&#xd;&#xa;&#x9;&#x9;&#x9;C34.1,31.4,34.1,31.3,34.1,31.2z" class="st0"/>
   <path d="M27.8,23c-0.1,0.1-0.2,0.1-0.2-0.1C27.7,22.8,27.7,22.9,27.8,23z" class="st0"/>
   <path d="M14.8,22.3c0,0.2-0.7,0.7-0.8,0.7s-0.1-0.1-0.1-0.1c0-0.2,0-0.3,0.2-0.5c0.2-0.1,0.4-0.2,0.6-0.2&#xd;&#xa;&#x9;&#x9;&#x9;C14.8,22.2,14.8,22.3,14.8,22.3z" class="st1"/>
   <path d="M28.9,29.2c-0.5-0.4-1.1-0.1-1.6-0.3h-0.1L27.1,29c0.1,0.3-0.2,0.6-0.2,0.9c0,0.1,0,0.2,0.2,0.2&#xd;&#xa;&#x9;&#x9;&#x9;c0-0.6,0.4-0.6,0.8-0.6c0.1,0,0.2,0.1,0.3,0.2c0,0.2-0.1,0.2-0.2,0.2c-0.4,0.1-0.3,0.4-0.2,0.7c0.3,0.5,0.4,1.1,0.1,1.7&#xd;&#xa;&#x9;&#x9;&#x9;c-0.2,0.1-0.3,0.5-0.6,0.5c0-0.1,0-0.2,0-0.3c0-0.3,0.4-0.7,0-0.8c-0.4-0.1-0.4,0.4-0.7,0.6c-0.1,0-0.2,0-0.3,0.1&#xd;&#xa;&#x9;&#x9;&#x9;c-0.4-0.1-0.9,0.1-1.3-0.2c-0.1,0-0.2,0-0.3,0.1c-0.2,0.2-0.4,0.2-0.6,0.2c-0.1-0.1-0.1-0.3,0-0.5c0.5-0.2,0.9-0.8,1.5-0.8&#xd;&#xa;&#x9;&#x9;&#x9;c0.1,0,0.2,0,0.3,0.1c0.4,0.2,0.8,0.1,1.2,0.1c0.3,0,0.4-0.3,0.3-0.6c0-0.2-0.2-0.3-0.3-0.1c-0.3,0.5-0.5,0.3-0.7,0&#xd;&#xa;&#x9;&#x9;&#x9;c-0.1-0.3-0.1-0.5-0.1-0.8c0-0.4-0.2-0.5-0.6-0.7c-0.2-0.1-0.5-0.1-0.5-0.4c0.1-0.3,0.4-0.2,0.6-0.3c0.1,0,0.2,0.1,0.4-0.1&#xd;&#xa;&#x9;&#x9;&#x9;c-0.1-0.2-0.6-0.4-0.3-0.7c0.3-0.3,0.7-0.4,1-0.1c0.2,0.2,0.4,0.4,0.6,0.5c0.2,0.2,0.3,0.4,0.7,0.1c0.2-0.2,0.8,0.1,1.2,0.4&#xd;&#xa;&#x9;&#x9;&#x9;C29.4,29.1,29.2,29.2,28.9,29.2z" class="st0"/>
   <path d="M23.1,34c0,0.4-0.2,0.7-0.7,0.8c-0.3,0.1-0.6,0.1-0.9,0.2c-0.3,0-0.6-0.2-0.4-0.5c0.4-0.5,0.3-1.2,0.6-1.8&#xd;&#xa;&#x9;&#x9;&#x9;c0.1-0.1,0-0.3,0.2-0.3s0.2,0.2,0.2,0.3c0.1,0.2,0.1,0.4,0,0.6c-0.1,0.2-0.2,0.4-0.1,0.6c0.2,0.2,0.4-0.1,0.6-0.1&#xd;&#xa;&#x9;&#x9;&#x9;C22.8,33.9,22.9,33.9,23.1,34z" class="st1"/>
   <path d="M24.2,32.6c0.2,0,0.4-0.1,0.6-0.2c0.1-0.1,0.2-0.1,0.3-0.1c0.4,0.2,0.9,0,1.3,0.2c-0.4,0.3-0.7,0.8-1.3,0.8&#xd;&#xa;&#x9;&#x9;&#x9;C24.6,33.3,24.3,33.2,24.2,32.6z" class="st1"/>
   <path d="M19.9,32.3c-0.2,0-0.3,0-0.4-0.2c0-0.4,0-0.7,0.3-0.9c0.1-0.1,0.4-0.1,0.5-0.3c0.1,0,0.2-0.1,0.3-0.1&#xd;&#xa;&#x9;&#x9;&#x9;c0.1,0.1,0.2,0.2,0.3,0.3C20.5,31.5,19.9,31.7,19.9,32.3z" class="st0"/>
   <path d="M21.2,32.3c0,0.3,0,0.5,0,0.8c0,0.1,0,0.3-0.2,0.3c-0.1,0-0.3-0.1-0.4-0.2c-0.1-0.2-0.2-0.5-0.3-0.8&#xd;&#xa;&#x9;&#x9;&#x9;c0-0.1-0.1-0.3,0.1-0.4s0.2,0.2,0.2,0.3c0,0.1,0.1,0.2,0.2,0.2c0.2-0.2-0.2-0.5,0.1-0.6C21.1,32.1,21.2,32.2,21.2,32.3z" class="st1"/>
   <path d="M16.7,30.9c0.4,0,0.6,0.1,0.6,0.5c0,0.3-0.2,0.4-0.4,0.4c-0.3,0-0.4-0.2-0.4-0.5C16.4,31,16.5,30.8,16.7,30.9&#xd;&#xa;&#x9;&#x9;&#x9;z" class="st1"/>
   <path d="M23.1,34c-0.1-0.1-0.3-0.1-0.4-0.2c0-0.1,0-0.2,0-0.3c0-0.2,0.1-0.5,0.3-0.5c0.1,0,0.2,0.1,0.2,0.2&#xd;&#xa;&#x9;&#x9;&#x9;c0.1,0.2,0.2,0.5,0,0.7C23.2,33.9,23.1,33.9,23.1,34z" class="st0"/>
   <path d="M26.7,32.4c0.2-0.2,0.3-0.8,0.7-0.6c0.4,0.2,0,0.5,0,0.8c0,0.1,0,0.2,0,0.3C27,33,27,32.5,26.7,32.4z" class="st1"/>
   <path d="M21.3,29.6c0.1-0.2,0.2-0.4,0.4-0.3c0.3,0.1,0.1,0.4,0.1,0.6C21.4,30.3,21.5,29.7,21.3,29.6z" class="st0"/>
   <path d="M20.8,31.1c-0.1-0.1-0.2-0.2-0.3-0.3l0.1-0.1c0.2,0,0.5-0.5,0.7-0.1C21.5,30.9,21.1,31,20.8,31.1z" class="st1"/>
   <path d="M21.2,32.3c-0.1-0.1-0.1-0.2-0.2-0.3c0-0.3,0.1-0.5,0.5-0.4c0,0.1,0,0.1,0,0.2C21.6,32,21.4,32.2,21.2,32.3z" class="st0"/>
   <path d="M29.9,26.8c-0.2,0-0.4,0.1-0.5,0.1c-0.2-0.1-0.4-0.2-0.3-0.4c0.1-0.3,0.3-0.3,0.5-0.3&#xd;&#xa;&#x9;&#x9;&#x9;C29.9,26.3,29.9,26.6,29.9,26.8z" class="st0"/>
   <path d="M30.5,27.5c0.2,0,0.4,0.1,0.4,0.3c0,0.3-0.3,0.3-0.5,0.3c-0.2,0.1-0.3,0-0.3-0.2&#xd;&#xa;&#x9;&#x9;&#x9;C30.1,27.6,30.3,27.6,30.5,27.5z" class="st1"/>
   <path d="M18.3,30c0.1,0.3,0.1,0.6,0.1,0.9C18,30.6,17.9,30.4,18.3,30z" class="st0"/>
   <path d="M25.9,31.2c0.2-0.2,0.7-0.1,0.5-0.6c0.3,0.3,0.5,0.4,0.7,0c0.1-0.2,0.2-0.1,0.3,0.1c0.1,0.3,0,0.6-0.3,0.6&#xd;&#xa;&#x9;&#x9;&#x9;C26.7,31.4,26.3,31.4,25.9,31.2z" class="st1"/>
   <path d="M12.4,31.2c0.1,0.1,0.3,0.2,0.3,0.4c0.3,0.1,0.3,0.5,0.5,0.6c0.1,0,0.2,0.1,0.2,0.2c0.4,0.4,0.8,0.7,1.2,1&#xd;&#xa;&#x9;&#x9;&#x9;c0.3-0.6-0.5-0.8-0.5-1.3c-0.5-0.6-1.1-1-1.3-1.7c-0.3-0.1,0.2-0.3,0.2,0c0.1,0,0.1,0.1,0.2,0.1c0.3-0.1,0.9-0.7,0.3-0.8&#xd;&#xa;&#x9;&#x9;&#x9;c-0.5,0-0.4-0.9,0.1-0.6c0.1,0.1,0.3-0.1,0.4-0.1c0-0.1,0.1-0.3,0.3-0.3c0-0.1,0-0.1,0-0.2c-0.2-0.1-0.2-0.3-0.2-0.4&#xd;&#xa;&#x9;&#x9;&#x9;c0.1-0.4-0.5-1.7-0.9-1.1c-0.1,0.2-0.2,0.1-0.3-0.1s-0.3-0.3-0.3-0.5c-0.2-0.6-0.7-0.9-1.1-1.5c0.5,0,0.8,0.3,1.2,0&#xd;&#xa;&#x9;&#x9;&#x9;c0.1-0.3,0.2-0.5,0.5-0.4c0.3,0.2,0,0.9,0,1.2c0.3,0.2,0.7,0,1,0c0.6-0.1,0.1,1,0.5,1.5c0.1,0.4,0.5,0.3,0.5-0.1&#xd;&#xa;&#x9;&#x9;&#x9;c0.1-0.9,0.6-1.5,1.4-2c0.5-0.2,0.2-1-0.3-0.9c-0.5,0-1,0-1.4-0.5c-0.2,0-0.4,0.2-0.5,0.4c-0.4,0.5-0.9,0.5-1.4,0.1&#xd;&#xa;&#x9;&#x9;&#x9;c-0.6-0.5-0.6-1.2-0.7-1.8c0-0.4-0.2-0.4-0.4-0.4c-1,0.1-2,0.4-2.7,1.2c0.1,0.7,0.3-0.2,0.7,0c0.4-0.5,2.2-1.1,1.9,0.1&#xd;&#xa;&#x9;&#x9;&#x9;c-0.2,0.3-0.5,0.1-0.8,0.1c-0.1,0.1-0.2,0.1-0.2,0c-0.2,0-0.4,0.1-0.6,0.1c-0.3,0.4-0.2,1-0.6,1.4c-0.3,0.7,1,0.8,1,1.4l0,0&#xd;&#xa;&#x9;&#x9;&#x9;c0.1,0,0.3,0,0.2,0.2c0.3,0.4,0.6,0.7,0.8,1.3c-0.5,0.1-1-1-1.2-0.2c0.1,0.2,0.5,0.2,0.4,0.5c-0.2,0.3-0.8,0.1-1.1,0.4&#xd;&#xa;&#x9;&#x9;&#x9;C8.6,31.1,11.3,30.1,12.4,31.2z M13,28.1c0.1,0.1,0.3,0.1,0.4,0.3c0,0.1-0.1,0.2-0.2,0.2C12.9,28.7,12.6,28.1,13,28.1z" class="st2"/>
   <path d="M40.6,26c-0.7-0.4-2.1,0.1-2.4-0.4c-0.2-0.5,0.6-0.7,0.1-1.3c-0.6-0.8-1.5-2.1-2.6-1.8c-1,0.3-0.1-1.1-2-1.5&#xd;&#xa;&#x9;&#x9;&#x9;c-1.6-0.6-2.6-2.1-4.5-1.7c-0.9,0.1-0.8-1.2-1.5-1.6c-0.2-0.1-0.5-0.1-0.6-0.4c-0.2-0.2-0.6-0.3-0.5-0.7c-0.1-0.4-1-1.3-0.5-1.6&#xd;&#xa;&#x9;&#x9;&#x9;c0-0.2,0-0.4,0-0.5c-0.1-0.2-0.1-0.5,0-0.7c-0.1-0.5-0.4-0.8-0.8-1.1c-0.4,0-0.2-0.7-0.7-0.6c-0.3,0-0.1,0.3-0.3,0.4&#xd;&#xa;&#x9;&#x9;&#x9;c0.1,0.3,0.3,0.5,0.5,0.6c1.4,0.8,0.3,1.7,0.7,2.9c0.6,0.5,0.8,1.2,1.1,1.8c0.9,0.6,1,0.7,0.6,1.7c0.2,0,0.3,0.5,0.6,0.2&#xd;&#xa;&#x9;&#x9;&#x9;c0.4-0.1,0.4,1.2-0.1,0.9c-0.4-0.5-1,0.6-0.5,0.8c0.5,0.2,0.3,0.6,0.2,0.9c0.2,0.1,0.4,0.2,0.6,0.4c0.2-0.1,0.3,0,0.3,0.2l0,0&#xd;&#xa;&#x9;&#x9;&#x9;c0.2,0,0.3,0.3,0.6,0.2c0.1-0.6,0.3-1.2-0.4-1.6c-0.2-0.1-0.2-0.5,0-0.7c1-1.8,4.3-0.6,4.2,1.3c0.3,0.3,2,0.4,1.7,1&#xd;&#xa;&#x9;&#x9;&#x9;c-0.7,0.6-0.1,0.9,0,1.5c0.4,0,0,0.5,0.3,0.6c0.6-0.2-0.2-1,1.5-1.6c0.4-0.1,1,0.4,1.3,0.7c0.8,0.7-1,1.2,0.1,2.2&#xd;&#xa;&#x9;&#x9;&#x9;c0.7,0,1.3-0.1,2-0.1c2.5,0,2.1,2.4,0.6,3.6c0,0.2,0,0.2-0.2,0.2c-1,0.8-2.1,1.2-3.3,1.5c0,0.3,0.2,0.3,0.4,0.2&#xd;&#xa;&#x9;&#x9;&#x9;c0.8-0.4,1.6-0.5,2.4-0.9c0.6-0.3,0.9-1,1.6-1.2c0.2-0.3,0.5-0.6,0.6-0.9c-0.1-0.1,0-0.2,0.1-0.3c0-0.1,0.1-0.2,0.1-0.4&#xd;&#xa;&#x9;&#x9;&#x9;c-0.1-0.3-0.1-0.6,0-0.9C41.7,26.8,41.3,26.3,40.6,26z M28,19.4c-0.3,0.1-0.2-0.4,0-0.5C28.1,19.1,28.1,19.2,28,19.4z" class="st2"/>
   <path d="M12.3,21.4c0.3,0,0.4-0.1,0.6-0.3c0.5-0.7,1.3-0.9,2-1c0.5-0.1,0.8,0.4,1.2,0.6c0.4,0,0.6,0.4,0.8,0.6&#xd;&#xa;&#x9;&#x9;&#x9;c0.2,0.2,0,0.3-0.2,0.3l-0.1,0.1c0,0.6,0.5,1.1,0.6,1.7c0.3,1.3,2.4,1.2,3.3,0.5c0.2-0.1,0.3,0,0.4,0.1c0.2,0.1,0.5,0.1,0.5-0.1&#xd;&#xa;&#x9;&#x9;&#x9;c0-0.6,0.5-1.1,0.5-1.7l0,0c-0.2,0-0.5,0-0.5-0.3c-0.1-0.9-1-1.2-1.4-1.9c-0.1,0-0.2,0-0.3,0c-0.1,0.1-0.2,0.1-0.3,0.1&#xd;&#xa;&#x9;&#x9;&#x9;c-0.1,0.1-0.3,0.1-0.4,0.2c0,0.9,0.9,0,1.2,0.9c0.4,0.5,1.2,0.8,0.6,1.6c-0.1,0.2,0,0.6-0.3,0.6s-0.2-0.4-0.3-0.6&#xd;&#xa;&#x9;&#x9;&#x9;c-0.2-0.3-0.4-0.5-0.5-0.9c-0.1-0.3-0.5-0.6-0.8-0.3c-0.4,0.4-0.7,0.1-1-0.2c0.5-0.2,0.5-0.5,0.3-0.9c-1.9,0.4-0.6-1.1-1.8-0.9&#xd;&#xa;&#x9;&#x9;&#x9;c-0.1,0.1-0.3,0.2-0.4,0.1c-1.2-0.5-2.1,0.2-3.1,0.7c-0.8,0.8-2.5,0.5-3.5,1.3c0,0.2-0.6,0.5,0.1,0.5&#xd;&#xa;&#x9;&#x9;&#x9;C10.2,21.7,11.2,21.3,12.3,21.4z" class="st2"/>
   <path d="M25.2,36.4c-0.1,0.1-0.2,0.1-0.3,0.1l0,0l0,0v0.1c0,0.1,0,0.3-0.2,0.3C24.3,37,24.2,37.4,24,37&#xd;&#xa;&#x9;&#x9;&#x9;c-0.1-0.1-0.2-0.1-0.2-0.2c-1-0.7-2,0.3-2-0.1c-0.2-0.2-0.5-0.4-0.7-0.7c-0.3,0-0.3-0.3-0.3-0.5c-1.5-0.3-3-0.7-4.2-1.5&#xd;&#xa;&#x9;&#x9;&#x9;c-0.5,0.2-0.9-0.7-1.1-0.4c-0.3,0.3,1.4,0.9,1.6,1.1c0.8,0.7,2,0.8,3,1.1c0.4,0.1,0.5,0.6,0.9,0.7c0.2,0,0.3,0.1,0.4,0.3&#xd;&#xa;&#x9;&#x9;&#x9;c0.8,0.9,1.6-0.3,2.6,0.5c0.8,0.6,0.9-0.5,1.6-0.5c1.4-0.4,2.9-0.7,4.1-1.5c0.1-0.1,0.1-0.2,0.3-0.1h0.1c0.1-0.2,0.3-0.3,0.5-0.3&#xd;&#xa;&#x9;&#x9;&#x9;c0.1,0,0.1-0.1,0.2-0.1c0-0.2,0.3-0.2,0.4-0.4c-0.5-0.2-0.7,0.4-1.1,0.3c-1.2,0.7-2.5,1.4-3.8,1.6c-0.1,0.1-0.1,0.1-0.2,0.1&#xd;&#xa;&#x9;&#x9;&#x9;C25.5,36.4,25.4,36.4,25.2,36.4z" class="st2"/>
   <path d="M17.8,9.6c0.5-0.2,0.9,0.5,1.4,0.7c0.6,0.4,1,1,0.8,1.8c-0.1,0.4,0.1,0.5,0.4,0.5c0.8-0.3,1.6-0.4,2.4-0.4&#xd;&#xa;&#x9;&#x9;&#x9;c0.1-0.1,0.1-0.3,0.2-0.3c0-0.2,0-0.3,0-0.5c-0.5-0.5,0-1.2-0.3-1.8c-0.1-0.3,0.4-0.6,0.4-0.2c0.2,0.1,0.4,0.4,0.5,0.5&#xd;&#xa;&#x9;&#x9;&#x9;c0.3,0,0.4,0.2,0.3,0.4v0.1c0.4,0,0.2,0.5,0.5,0.4c0.2-0.1-0.1-0.4-0.1-0.5c-0.1-0.5-0.5-0.8-0.8-1.2c-0.4-0.7-0.9-0.3-1.4-0.1&#xd;&#xa;&#x9;&#x9;&#x9;c0,0.7,0,1.4,0,2.1c0.3,0.5-0.4,0.5-0.7,0.6c-1,0.4-1,0-1.2-0.9c-0.1,0-0.2-0.1-0.2-0.2v-0.1c-0.6-0.5-1.2-1.1-1.8-1.6&#xd;&#xa;&#x9;&#x9;&#x9;c-0.2,0-0.4,0-0.6,0l0,0l0,0c0,0.1-0.1,0.2-0.1,0.3C17.3,9.5,17.5,10,17.8,9.6z" class="st2"/>
   <path d="M10.5,27.2c-0.1-0.2-0.4,0.1-0.2,0.2C10.3,27.3,10.5,27.3,10.5,27.2z" class="st2"/>
   <path d="M24.4,14.8c-0.2-0.2-0.1-0.7-0.6-0.6c-0.1,0.4-0.2,0.7-0.1,1.1c0.2,0.3,0.2,0.7,0.1,1&#xd;&#xa;&#x9;&#x9;&#x9;c-0.2,0.9-0.1,1.9-0.2,2.8c0,0.5,0.3,0.8,0.8,0.7c0.5-0.1,0.1-0.4,0.2-0.7c-0.1-0.4-0.4-0.9,0.2-1.2c0.2-0.1,0.1-0.4,0.2-0.6&#xd;&#xa;&#x9;&#x9;&#x9;c0-0.1-0.1-0.2-0.1-0.3c-0.2-0.1-0.2-0.3-0.2-0.5C24.7,16,24.5,15.4,24.4,14.8z" class="st2"/>
   <path d="M26.4,24.3c-0.1,0.1-0.2,0.2-0.3,0.2c0,0.1-0.1,0.2-0.2,0.3c-0.5,0.2-0.4,0.6-0.4,0.9c0,0.4,0.4,0.3,0.6,0.3&#xd;&#xa;&#x9;&#x9;&#x9;c0.5,0.1-0.2-0.6,0.5-0.8c0.8-0.5,0.9,1,1.2-0.1c0-0.1,0-0.3,0.2-0.3c-0.1-0.9,0.8-0.3,0.8-1.3c-0.1,0-0.2-0.1-0.2-0.3&#xd;&#xa;&#x9;&#x9;&#x9;c-0.2,0-0.4-0.2-0.6-0.3c-0.1,0.1-0.2,0.1-0.2-0.1c-0.1,0-0.2,0-0.3,0c-0.5,0.5-0.7-0.3-1-0.6C24.9,23,27.3,23.9,26.4,24.3z" class="st2"/>
   <path d="M19.2,30.4c0.1-0.5,0.6-0.2,0.5-0.5c-0.1-0.2-0.4-0.2-0.6-0.2c-0.3-0.1-0.5,0-0.7,0.1c0,0.1-0.1,0.2-0.1,0.3&#xd;&#xa;&#x9;&#x9;&#x9;c0.1,0.3,0.1,0.6,0.2,0.9l0,0C18.8,30.9,19.1,30.8,19.2,30.4z" class="st2"/>
   <path d="M29.3,23.1c0,0.2,0,0.4-0.2,0.5c0.1,0.3,0.3,0.6,0.4,0.9c0.8,0.1,0.4-1,0.5-1.4C29.7,23,29.5,23.1,29.3,23.1z&#xd;&#xa;&#x9;&#x9;&#x9;" class="st2"/>
   <path d="M37.3,27.6c0.9-0.1,1.9-0.3,2.8,0.1c0.2-0.1,0.4,0,0.6-0.2c-0.9-0.9-2.3-0.3-3.4-0.4c-0.6,0-0.9,0.2-0.8,0.6&#xd;&#xa;&#x9;&#x9;&#x9;c0.1,0.6-0.3,1-0.7,1.3c-0.2,0.2-0.4,0.4-0.6,0.7c-0.1,0.6-0.6,1-0.8,1.5c0.2,0,0.4,0,0.5,0.2c0.2,0,0.5-0.1,0.7-0.1&#xd;&#xa;&#x9;&#x9;&#x9;c0.4-0.7-0.4-0.2-0.2-0.7c0.1-1.2,1.7-1.4,1.6-2.6C37,27.7,37.1,27.6,37.3,27.6z" class="st2"/>
  </g>
 </g>
 <g id="Textos">
  <g class="st3">
   <path d="M59.6,28.3v-8.7h2.6l1.6,5.9l1.6-5.9H68v8.7h-1.6v-6.8l-1.7,6.8H63l-1.7-6.8v6.8H59.6z" class="st4"/>
   <path d="M73.3,26.3l1.7,0.3c-0.2,0.6-0.5,1.1-1,1.4s-1,0.5-1.7,0.5c-1.1,0-1.9-0.4-2.4-1.1c-0.4-0.6-0.6-1.3-0.6-2.2&#xd;&#xa;&#x9;&#x9;&#x9;c0-1,0.3-1.9,0.8-2.4c0.5-0.6,1.2-0.9,2.1-0.9s1.7,0.3,2.2,0.9s0.8,1.6,0.8,2.8H71c0,0.5,0.1,0.9,0.4,1.2c0.3,0.3,0.6,0.4,1,0.4&#xd;&#xa;&#x9;&#x9;&#x9;c0.3,0,0.5-0.1,0.7-0.2C73.1,26.8,73.2,26.6,73.3,26.3z M73.4,24.6c0-0.5-0.1-0.8-0.4-1.1c-0.2-0.2-0.5-0.4-0.9-0.4&#xd;&#xa;&#x9;&#x9;&#x9;s-0.7,0.1-0.9,0.4c-0.2,0.3-0.4,0.6-0.4,1.1H73.4z" class="st4"/>
   <path d="M82.1,28.3h-1.7v-3.2c0-0.7,0-1.1-0.1-1.3c-0.1-0.2-0.2-0.4-0.3-0.5c-0.2-0.1-0.4-0.2-0.6-0.2&#xd;&#xa;&#x9;&#x9;&#x9;c-0.3,0-0.5,0.1-0.8,0.2c-0.2,0.2-0.4,0.4-0.5,0.6C78,24.2,78,24.6,78,25.3v2.8h-1.7V22h1.6v0.9c0.5-0.7,1.2-1.1,2.1-1.1&#xd;&#xa;&#x9;&#x9;&#x9;c0.4,0,0.7,0.1,1,0.2s0.5,0.3,0.7,0.5S82,23,82,23.2c0.1,0.3,0.1,0.6,0.1,1.1V28.3L82.1,28.3z" class="st4"/>
   <path d="M87.9,28.3v-0.9c-0.2,0.3-0.5,0.6-0.9,0.8c-0.4,0.2-0.8,0.3-1.2,0.3c-0.4,0-0.8-0.1-1.1-0.3&#xd;&#xa;&#x9;&#x9;&#x9;c-0.3-0.2-0.6-0.4-0.7-0.8c-0.1-0.3-0.2-0.8-0.2-1.4v-4h1.7v2.9c0,0.9,0,1.4,0.1,1.6s0.2,0.4,0.3,0.5c0.2,0.1,0.4,0.2,0.6,0.2&#xd;&#xa;&#x9;&#x9;&#x9;c0.3,0,0.5-0.1,0.8-0.2c0.2-0.2,0.4-0.4,0.5-0.6s0.1-0.8,0.1-1.7V22h1.7v6.3H87.9L87.9,28.3z M85.8,21.2l0.8-1.8h1.9l-1.6,1.8&#xd;&#xa;&#x9;&#x9;&#x9;H85.8z" class="st4"/>
  </g>
 </g>
</svg>
